{"glyphs":{"0":{"ha":1017,"x_min":19,"x_max":997,"o":"m 508 -19 q 147 114 274 -19 q 19 540 19 247 q 147 967 19 833 q 508 1100 274 1100 q 870 967 743 1100 q 997 540 997 833 q 880 125 997 269 q 508 -19 763 -19 m 508 228 q 603 331 603 228 l 603 750 q 508 853 603 853 q 414 750 414 853 l 414 331 q 508 228 414 228 z "},"1":{"ha":725,"x_min":19,"x_max":678,"o":"m 61 0 l 61 228 l 194 228 l 194 853 l 19 853 l 19 1010 l 328 1081 l 561 1081 l 561 228 l 678 228 l 678 0 l 61 0 z "},"2":{"ha":901,"x_min":17,"x_max":869,"o":"m 17 119 q 52 331 17 239 q 168 503 88 422 q 390 672 249 585 q 449 717 432 699 q 467 763 467 736 q 385 819 467 819 q 244 788 324 819 q 101 707 165 756 l 19 1003 q 224 1078 108 1047 q 456 1110 339 1110 q 753 1025 647 1110 q 858 785 858 940 q 822 638 858 701 q 733 532 785 575 q 597 433 681 489 q 460 328 504 372 q 417 228 417 285 l 585 228 l 585 307 l 869 307 l 869 0 l 17 0 l 17 119 z "},"3":{"ha":865,"x_min":19,"x_max":849,"o":"m 675 551 q 758 506 718 540 q 823 421 797 472 q 849 307 849 369 q 740 67 849 154 q 417 -19 631 -19 q 214 3 315 -19 q 33 60 113 26 l 33 356 q 212 294 119 318 q 388 271 304 271 q 473 289 446 271 q 500 349 500 307 q 403 429 500 429 l 303 429 l 303 657 l 381 657 q 472 735 472 657 q 381 810 472 810 q 242 778 314 810 q 101 697 169 747 l 19 993 q 213 1069 104 1038 q 431 1100 321 1100 q 725 1019 622 1100 q 828 792 828 939 q 785 641 828 700 q 675 551 742 582 z "},"4":{"ha":964,"x_min":25,"x_max":939,"o":"m 476 0 l 476 174 l 25 174 l 25 401 l 504 1081 l 843 1081 l 843 385 l 939 385 l 939 174 l 843 174 l 843 0 l 476 0 m 282 385 l 476 385 l 476 658 l 282 385 z "},"5":{"ha":904,"x_min":31,"x_max":885,"o":"m 565 714 q 803 622 721 714 q 885 374 885 531 q 831 167 885 256 q 672 29 778 78 q 417 -19 567 -19 q 214 3 315 -19 q 33 60 113 26 l 33 356 q 361 271 214 271 q 475 302 438 271 q 513 400 513 333 q 490 476 513 449 q 419 504 468 504 q 359 485 382 504 q 322 432 336 467 l 31 432 l 90 1081 l 829 1081 l 829 811 l 368 811 l 356 668 q 565 714 443 714 z "},"6":{"ha":963,"x_min":25,"x_max":951,"o":"m 624 682 q 865 593 778 682 q 951 346 951 504 q 835 75 951 169 q 508 -19 719 -19 q 144 113 264 -19 q 25 519 25 246 q 166 960 25 819 q 554 1100 307 1100 q 743 1083 656 1100 q 883 1038 831 1065 l 883 757 q 763 795 831 781 q 618 810 694 810 q 419 663 419 810 l 419 646 q 517 672 463 661 q 624 682 571 682 m 514 228 q 585 256 561 228 q 608 346 608 285 q 584 433 608 401 q 510 464 560 464 q 419 446 463 464 l 419 335 q 443 253 419 279 q 514 228 467 228 z "},"7":{"ha":900,"x_min":14,"x_max":886,"o":"m 169 0 q 222 274 169 124 q 353 565 274 424 q 513 811 432 706 l 306 811 l 306 683 l 14 683 l 14 1081 l 886 1081 l 886 869 q 735 603 810 756 q 612 291 661 451 q 563 0 563 131 l 169 0 z "},"8":{"ha":972,"x_min":14,"x_max":958,"o":"m 768 561 q 902 469 846 533 q 958 299 958 404 q 838 61 958 142 q 486 -19 718 -19 q 134 59 254 -19 q 14 290 14 138 q 74 467 14 400 q 218 561 135 533 q 94 647 144 588 q 44 799 44 706 q 156 1024 44 947 q 486 1100 268 1100 q 814 1024 703 1100 q 925 799 925 947 q 881 646 925 704 q 768 561 836 588 m 486 853 q 392 756 392 853 q 486 664 392 664 q 581 756 581 664 q 486 853 581 853 m 486 228 q 594 339 594 228 q 567 424 594 394 q 486 453 539 453 q 406 424 433 453 q 378 339 378 394 q 486 228 378 228 z "},"9":{"ha":963,"x_min":14,"x_max":940,"o":"m 451 1100 q 819 967 699 1100 q 940 561 940 835 q 799 121 940 261 q 411 -19 658 -19 q 222 -2 310 -19 q 82 43 135 15 l 82 324 q 203 285 135 300 q 347 271 271 271 q 546 418 546 271 l 546 433 q 354 399 457 399 q 103 485 193 399 q 14 728 14 572 q 128 1006 14 913 q 451 1100 242 1100 m 357 733 q 381 647 357 678 q 456 617 406 617 q 546 635 503 617 l 546 746 q 522 827 546 801 q 451 853 499 853 q 381 824 404 853 q 357 733 357 794 z "},"\u0000":{"ha":0,"x_min":0,"x_max":0,"o":""},"\r":{"ha":417,"x_min":0,"x_max":0,"o":""}," ":{"ha":417,"x_min":0,"x_max":0,"o":""},"A":{"ha":1119,"x_min":17,"x_max":1103,"o":"m 1047 228 l 1103 228 l 1103 0 l 558 0 l 558 228 l 642 228 l 619 339 l 431 339 l 408 228 l 492 228 l 492 0 l 17 0 l 17 228 l 72 228 l 307 1081 l 813 1081 l 1047 228 m 461 486 l 589 486 l 532 763 l 518 763 l 461 486 z "},"Á":{"ha":1119,"x_min":17,"x_max":1103,"o":"m 1047 228 l 1103 228 l 1103 0 l 558 0 l 558 228 l 642 228 l 619 339 l 431 339 l 408 228 l 492 228 l 492 0 l 17 0 l 17 228 l 72 228 l 307 1081 l 813 1081 l 1047 228 m 461 486 l 589 486 l 532 763 l 518 763 l 461 486 m 379 1164 l 379 1185 l 531 1318 l 879 1318 l 879 1282 l 653 1164 l 379 1164 z "},"Ă":{"ha":1119,"x_min":17,"x_max":1103,"o":"m 1047 228 l 1103 228 l 1103 0 l 558 0 l 558 228 l 642 228 l 619 339 l 431 339 l 408 228 l 492 228 l 492 0 l 17 0 l 17 228 l 72 228 l 307 1081 l 813 1081 l 1047 228 m 461 486 l 589 486 l 532 763 l 518 763 l 461 486 m 560 1164 q 343 1218 421 1164 q 265 1368 265 1272 l 265 1382 l 472 1382 l 472 1368 q 560 1306 472 1306 q 647 1368 647 1306 l 647 1382 l 854 1382 l 854 1368 q 776 1218 854 1272 q 560 1164 699 1164 z "},"Ắ":{"ha":1119,"x_min":17,"x_max":1103,"o":"m 1047 228 l 1103 228 l 1103 0 l 558 0 l 558 228 l 642 228 l 619 339 l 431 339 l 408 228 l 492 228 l 492 0 l 17 0 l 17 228 l 72 228 l 307 1081 l 813 1081 l 1047 228 m 461 486 l 589 486 l 532 763 l 518 763 l 461 486 m 421 1403 l 421 1424 l 531 1571 l 768 1571 l 768 1535 l 588 1403 l 421 1403 m 560 1153 q 355 1196 431 1153 q 279 1329 279 1239 l 279 1357 l 486 1357 l 486 1329 q 560 1267 486 1267 q 633 1329 633 1267 l 633 1357 l 840 1357 l 840 1329 q 765 1196 840 1239 q 560 1153 689 1153 z "},"Ặ":{"ha":1119,"x_min":17,"x_max":1103,"o":"m 1047 228 l 1103 228 l 1103 0 l 558 0 l 558 228 l 642 228 l 619 339 l 431 339 l 408 228 l 492 228 l 492 0 l 17 0 l 17 228 l 72 228 l 307 1081 l 813 1081 l 1047 228 m 461 486 l 589 486 l 532 763 l 518 763 l 461 486 m 403 -311 l 403 -97 l 647 -97 l 647 -311 l 403 -311 m 560 1153 q 355 1196 431 1153 q 279 1329 279 1239 l 279 1357 l 486 1357 l 486 1329 q 560 1267 486 1267 q 633 1329 633 1267 l 633 1357 l 840 1357 l 840 1329 q 765 1196 840 1239 q 560 1153 689 1153 z "},"Ằ":{"ha":1119,"x_min":17,"x_max":1103,"o":"m 1047 228 l 1103 228 l 1103 0 l 558 0 l 558 228 l 642 228 l 619 339 l 431 339 l 408 228 l 492 228 l 492 0 l 17 0 l 17 228 l 72 228 l 307 1081 l 813 1081 l 1047 228 m 461 486 l 589 486 l 532 763 l 518 763 l 461 486 m 560 1403 l 379 1535 l 379 1571 l 617 1571 l 726 1424 l 726 1403 l 560 1403 m 560 1153 q 355 1196 431 1153 q 279 1329 279 1239 l 279 1357 l 486 1357 l 486 1329 q 560 1267 486 1267 q 633 1329 633 1267 l 633 1357 l 840 1357 l 840 1329 q 765 1196 840 1239 q 560 1153 689 1153 z "},"Ẳ":{"ha":1119,"x_min":17,"x_max":1103,"o":"m 1047 228 l 1103 228 l 1103 0 l 558 0 l 558 228 l 642 228 l 619 339 l 431 339 l 408 228 l 492 228 l 492 0 l 17 0 l 17 228 l 72 228 l 307 1081 l 813 1081 l 1047 228 m 461 486 l 589 486 l 532 763 l 518 763 l 461 486 m 510 1418 q 540 1456 531 1439 q 549 1496 549 1474 q 530 1543 549 1525 q 478 1561 511 1561 q 415 1553 449 1561 l 415 1657 q 543 1678 478 1678 q 660 1641 618 1678 q 703 1539 703 1604 q 665 1442 703 1486 q 563 1360 628 1399 l 510 1418 m 560 1153 q 355 1196 431 1153 q 279 1329 279 1239 l 279 1357 l 486 1357 l 486 1329 q 560 1267 486 1267 q 633 1329 633 1267 l 633 1357 l 840 1357 l 840 1329 q 765 1196 840 1239 q 560 1153 689 1153 z "},"Ẵ":{"ha":1119,"x_min":17,"x_max":1103,"o":"m 1047 228 l 1103 228 l 1103 0 l 558 0 l 558 228 l 642 228 l 619 339 l 431 339 l 408 228 l 492 228 l 492 0 l 17 0 l 17 228 l 72 228 l 307 1081 l 813 1081 l 1047 228 m 461 486 l 589 486 l 532 763 l 518 763 l 461 486 m 669 1413 q 602 1419 633 1413 q 531 1440 571 1426 q 467 1459 492 1453 q 417 1465 443 1465 q 374 1451 390 1465 q 358 1414 358 1438 l 281 1414 q 320 1567 281 1518 q 450 1617 360 1617 q 582 1590 503 1617 q 614 1581 588 1589 q 663 1570 640 1574 q 703 1567 685 1567 q 746 1580 731 1567 q 761 1615 761 1593 l 839 1615 q 800 1462 839 1511 q 669 1413 761 1413 m 560 1153 q 355 1196 431 1153 q 279 1329 279 1239 l 279 1357 l 486 1357 l 486 1329 q 560 1267 486 1267 q 633 1329 633 1267 l 633 1357 l 840 1357 l 840 1329 q 765 1196 840 1239 q 560 1153 689 1153 z "},"Â":{"ha":1119,"x_min":17,"x_max":1103,"o":"m 1047 228 l 1103 228 l 1103 0 l 558 0 l 558 228 l 642 228 l 619 339 l 431 339 l 408 228 l 492 228 l 492 0 l 17 0 l 17 228 l 72 228 l 307 1081 l 813 1081 l 1047 228 m 461 486 l 589 486 l 532 763 l 518 763 l 461 486 m 210 1164 l 210 1185 l 386 1360 l 733 1360 l 910 1185 l 910 1164 l 696 1164 l 567 1276 l 553 1276 l 424 1164 l 210 1164 z "},"Ấ":{"ha":1119,"x_min":17,"x_max":1103,"o":"m 1047 228 l 1103 228 l 1103 0 l 558 0 l 558 228 l 642 228 l 619 339 l 431 339 l 408 228 l 492 228 l 492 0 l 17 0 l 17 228 l 72 228 l 307 1081 l 813 1081 l 1047 228 m 461 486 l 589 486 l 532 763 l 518 763 l 461 486 m 851 1471 l 1089 1471 l 1089 1435 l 950 1303 l 783 1303 l 783 1324 l 851 1471 m 435 1367 l 685 1367 l 847 1178 l 847 1157 l 661 1157 l 560 1257 l 458 1157 l 272 1157 l 272 1178 l 435 1367 z "},"Ậ":{"ha":1119,"x_min":17,"x_max":1103,"o":"m 1047 228 l 1103 228 l 1103 0 l 558 0 l 558 228 l 642 228 l 619 339 l 431 339 l 408 228 l 492 228 l 492 0 l 17 0 l 17 228 l 72 228 l 307 1081 l 813 1081 l 1047 228 m 461 486 l 589 486 l 532 763 l 518 763 l 461 486 m 403 -311 l 403 -97 l 647 -97 l 647 -311 l 403 -311 m 210 1164 l 210 1185 l 386 1360 l 733 1360 l 910 1185 l 910 1164 l 696 1164 l 567 1276 l 553 1276 l 424 1164 l 210 1164 z "},"Ầ":{"ha":1119,"x_min":17,"x_max":1103,"o":"m 1047 228 l 1103 228 l 1103 0 l 558 0 l 558 228 l 642 228 l 619 339 l 431 339 l 408 228 l 492 228 l 492 0 l 17 0 l 17 228 l 72 228 l 307 1081 l 813 1081 l 1047 228 m 461 486 l 589 486 l 532 763 l 518 763 l 461 486 m 951 1464 l 1019 1317 l 1019 1296 l 853 1296 l 714 1428 l 714 1464 l 951 1464 m 435 1367 l 685 1367 l 847 1178 l 847 1157 l 661 1157 l 560 1257 l 458 1157 l 272 1157 l 272 1178 l 435 1367 z "},"Ẩ":{"ha":1119,"x_min":17,"x_max":1103,"o":"m 1047 228 l 1103 228 l 1103 0 l 558 0 l 558 228 l 642 228 l 619 339 l 431 339 l 408 228 l 492 228 l 492 0 l 17 0 l 17 228 l 72 228 l 307 1081 l 813 1081 l 1047 228 m 461 486 l 589 486 l 532 763 l 518 763 l 461 486 m 804 1632 q 922 1595 879 1632 q 964 1493 964 1558 q 824 1303 964 1392 l 767 1361 q 800 1405 790 1386 q 810 1450 810 1424 q 791 1497 810 1479 q 739 1515 772 1515 q 676 1507 710 1515 l 676 1611 q 804 1632 739 1632 m 435 1367 l 685 1367 l 847 1178 l 847 1157 l 661 1157 l 560 1257 l 458 1157 l 272 1157 l 272 1178 l 435 1367 z "},"Ẫ":{"ha":1119,"x_min":17,"x_max":1103,"o":"m 1047 228 l 1103 228 l 1103 0 l 558 0 l 558 228 l 642 228 l 619 339 l 431 339 l 408 228 l 492 228 l 492 0 l 17 0 l 17 228 l 72 228 l 307 1081 l 813 1081 l 1047 228 m 461 486 l 589 486 l 532 763 l 518 763 l 461 486 m 417 1463 q 374 1449 390 1463 q 358 1411 358 1435 l 281 1411 q 320 1565 281 1515 q 449 1614 360 1614 q 508 1608 479 1614 q 583 1588 536 1601 q 616 1578 590 1586 q 663 1567 642 1571 q 703 1564 685 1564 q 746 1576 731 1564 q 761 1613 761 1589 l 839 1613 q 801 1459 839 1508 q 671 1410 763 1410 q 604 1417 636 1410 q 531 1438 572 1424 q 467 1456 492 1450 q 417 1463 443 1463 m 685 1367 l 847 1178 l 847 1157 l 661 1157 l 560 1257 l 458 1157 l 272 1157 l 272 1178 l 435 1367 l 685 1367 z "},"Ȁ":{"ha":1119,"x_min":17,"x_max":1103,"o":"m 1047 228 l 1103 228 l 1103 0 l 558 0 l 558 228 l 642 228 l 619 339 l 431 339 l 408 228 l 492 228 l 492 0 l 17 0 l 17 228 l 72 228 l 307 1081 l 813 1081 l 1047 228 m 461 486 l 589 486 l 532 763 l 518 763 l 461 486 m 301 1164 l 117 1282 l 117 1318 l 424 1318 l 506 1185 l 506 1164 l 301 1164 m 692 1164 l 507 1282 l 507 1318 l 814 1318 l 896 1185 l 896 1164 l 692 1164 z "},"Ä":{"ha":1119,"x_min":17,"x_max":1103,"o":"m 1047 228 l 1103 228 l 1103 0 l 558 0 l 558 228 l 642 228 l 619 339 l 431 339 l 408 228 l 492 228 l 492 0 l 17 0 l 17 228 l 72 228 l 307 1081 l 813 1081 l 1047 228 m 461 486 l 589 486 l 532 763 l 518 763 l 461 486 m 267 1164 l 267 1340 l 522 1340 l 522 1164 l 267 1164 m 597 1164 l 597 1340 l 853 1340 l 853 1164 l 597 1164 z "},"Ạ":{"ha":1119,"x_min":17,"x_max":1103,"o":"m 1047 228 l 1103 228 l 1103 0 l 558 0 l 558 228 l 642 228 l 619 339 l 431 339 l 408 228 l 492 228 l 492 0 l 17 0 l 17 228 l 72 228 l 307 1081 l 813 1081 l 1047 228 m 461 486 l 589 486 l 532 763 l 518 763 l 461 486 m 403 -311 l 403 -97 l 647 -97 l 647 -311 l 403 -311 z "},"À":{"ha":1119,"x_min":17,"x_max":1103,"o":"m 1047 228 l 1103 228 l 1103 0 l 558 0 l 558 228 l 642 228 l 619 339 l 431 339 l 408 228 l 492 228 l 492 0 l 17 0 l 17 228 l 72 228 l 307 1081 l 813 1081 l 1047 228 m 461 486 l 589 486 l 532 763 l 518 763 l 461 486 m 469 1164 l 243 1282 l 243 1318 l 592 1318 l 743 1185 l 743 1164 l 469 1164 z "},"Ả":{"ha":1119,"x_min":17,"x_max":1103,"o":"m 1047 228 l 1103 228 l 1103 0 l 558 0 l 558 228 l 642 228 l 619 339 l 431 339 l 408 228 l 492 228 l 492 0 l 17 0 l 17 228 l 72 228 l 307 1081 l 813 1081 l 1047 228 m 461 486 l 589 486 l 532 763 l 518 763 l 461 486 m 510 1201 q 543 1245 533 1226 q 553 1290 553 1264 q 534 1338 553 1319 q 482 1356 515 1356 q 419 1347 453 1356 l 419 1451 q 547 1472 482 1472 q 665 1435 622 1472 q 707 1333 707 1399 q 567 1143 707 1232 l 510 1201 z "},"Ȃ":{"ha":1119,"x_min":17,"x_max":1103,"o":"m 1047 228 l 1103 228 l 1103 0 l 558 0 l 558 228 l 642 228 l 619 339 l 431 339 l 408 228 l 492 228 l 492 0 l 17 0 l 17 228 l 72 228 l 307 1081 l 813 1081 l 1047 228 m 461 486 l 589 486 l 532 763 l 518 763 l 461 486 m 265 1178 q 343 1328 265 1274 q 560 1382 421 1382 q 776 1328 699 1382 q 854 1178 854 1274 l 854 1164 l 647 1164 l 647 1178 q 560 1240 647 1240 q 472 1178 472 1240 l 472 1164 l 265 1164 l 265 1178 z "},"Ā":{"ha":1119,"x_min":17,"x_max":1103,"o":"m 1047 228 l 1103 228 l 1103 0 l 558 0 l 558 228 l 642 228 l 619 339 l 431 339 l 408 228 l 492 228 l 492 0 l 17 0 l 17 228 l 72 228 l 307 1081 l 813 1081 l 1047 228 m 461 486 l 589 486 l 532 763 l 518 763 l 461 486 m 311 1167 l 311 1303 l 808 1303 l 808 1167 l 311 1167 z "},"Ą":{"ha":1119,"x_min":17,"x_max":1103,"o":"m 1047 228 l 1103 228 l 1103 0 l 558 0 l 558 228 l 642 228 l 619 339 l 431 339 l 408 228 l 492 228 l 492 0 l 17 0 l 17 228 l 72 228 l 307 1081 l 813 1081 l 1047 228 m 461 486 l 589 486 l 532 763 l 518 763 l 461 486 m 892 -300 q 757 -260 806 -300 q 708 -149 708 -221 q 737 -44 708 -96 q 811 42 765 7 l 933 42 q 880 -12 901 19 q 858 -81 858 -44 q 882 -140 858 -118 q 947 -161 906 -161 q 1031 -149 992 -161 l 1031 -267 q 892 -300 964 -300 z "},"Å":{"ha":1119,"x_min":17,"x_max":1103,"o":"m 1047 228 l 1103 228 l 1103 0 l 558 0 l 558 228 l 642 228 l 619 339 l 431 339 l 408 228 l 492 228 l 492 0 l 17 0 l 17 228 l 72 228 l 307 1081 l 813 1081 l 1047 228 m 461 486 l 589 486 l 532 763 l 518 763 l 461 486 m 560 1164 q 429 1211 481 1164 q 378 1331 378 1258 q 429 1450 378 1403 q 560 1497 481 1497 q 690 1450 639 1497 q 742 1331 742 1403 q 690 1211 742 1258 q 560 1164 639 1164 m 560 1267 q 603 1285 586 1267 q 619 1331 619 1303 q 603 1376 619 1358 q 560 1393 586 1393 q 516 1376 533 1393 q 499 1331 499 1358 q 516 1285 499 1303 q 560 1267 533 1267 z "},"Ǻ":{"ha":1119,"x_min":17,"x_max":1103,"o":"m 1047 228 l 1103 228 l 1103 0 l 558 0 l 558 228 l 642 228 l 619 339 l 431 339 l 408 228 l 492 228 l 492 0 l 17 0 l 17 228 l 72 228 l 307 1081 l 813 1081 l 1047 228 m 461 486 l 589 486 l 532 763 l 518 763 l 461 486 m 560 1164 q 429 1211 481 1164 q 378 1331 378 1258 q 429 1450 378 1403 q 560 1497 481 1497 q 690 1450 639 1497 q 742 1331 742 1403 q 690 1211 742 1258 q 560 1164 639 1164 m 560 1267 q 603 1285 586 1267 q 619 1331 619 1303 q 603 1376 619 1358 q 560 1393 586 1393 q 516 1376 533 1393 q 499 1331 499 1358 q 516 1285 499 1303 q 560 1267 533 1267 m 379 1565 l 379 1586 l 531 1719 l 879 1719 l 879 1683 l 653 1565 l 379 1565 z "},"Ã":{"ha":1119,"x_min":17,"x_max":1103,"o":"m 1047 228 l 1103 228 l 1103 0 l 558 0 l 558 228 l 642 228 l 619 339 l 431 339 l 408 228 l 492 228 l 492 0 l 17 0 l 17 228 l 72 228 l 307 1081 l 813 1081 l 1047 228 m 461 486 l 589 486 l 532 763 l 518 763 l 461 486 m 715 1164 q 638 1171 678 1164 q 543 1192 599 1178 q 451 1210 485 1204 q 385 1217 418 1217 q 325 1202 349 1217 q 301 1165 301 1188 l 224 1165 q 262 1333 224 1282 q 404 1383 300 1383 q 492 1376 450 1383 q 589 1356 533 1369 q 672 1339 642 1344 q 735 1333 703 1333 q 796 1346 774 1333 q 818 1382 818 1358 l 896 1382 q 881 1258 896 1304 q 826 1188 865 1211 q 715 1164 788 1164 z "},"Æ":{"ha":1581,"x_min":17,"x_max":1556,"o":"m 1556 661 l 1244 661 l 1244 853 l 1076 853 l 1076 633 l 1199 633 l 1199 475 l 1076 475 l 1076 228 l 1244 228 l 1244 447 l 1556 447 l 1556 0 l 618 0 l 618 228 l 688 228 l 688 339 l 497 339 l 457 228 l 540 228 l 540 0 l 17 0 l 17 228 l 72 228 l 432 1081 l 1556 1081 l 1556 661 m 557 500 l 688 500 l 688 821 l 674 821 l 557 500 z "},"Ǽ":{"ha":1581,"x_min":17,"x_max":1556,"o":"m 1556 661 l 1244 661 l 1244 853 l 1076 853 l 1076 633 l 1199 633 l 1199 475 l 1076 475 l 1076 228 l 1244 228 l 1244 447 l 1556 447 l 1556 0 l 618 0 l 618 228 l 688 228 l 688 339 l 497 339 l 457 228 l 540 228 l 540 0 l 17 0 l 17 228 l 72 228 l 432 1081 l 1556 1081 l 1556 661 m 557 500 l 688 500 l 688 821 l 674 821 l 557 500 m 793 1164 l 793 1185 l 944 1318 l 1293 1318 l 1293 1282 l 1067 1164 l 793 1164 z "},"B":{"ha":1076,"x_min":28,"x_max":1060,"o":"m 28 228 l 97 228 l 97 853 l 28 853 l 28 1081 l 665 1081 q 936 1010 839 1081 q 1033 807 1033 939 q 994 669 1033 725 q 903 584 956 613 q 803 546 851 556 l 803 532 q 981 469 901 522 q 1060 281 1060 417 q 950 67 1060 135 q 665 0 840 0 l 28 0 l 28 228 m 561 625 q 622 647 601 625 q 642 714 642 668 l 642 764 q 622 831 642 810 q 561 853 601 853 l 486 853 l 486 625 l 561 625 m 571 228 q 631 249 611 228 q 651 317 651 271 l 651 378 q 631 445 651 424 q 571 467 611 467 l 486 467 l 486 228 l 571 228 z "},"C":{"ha":1003,"x_min":19,"x_max":978,"o":"m 567 -19 q 162 114 304 -19 q 19 540 19 247 q 564 1100 19 1100 q 809 1068 696 1100 q 978 997 922 1036 l 978 650 l 644 650 l 644 750 q 621 828 644 803 q 550 853 597 853 q 479 828 503 853 q 456 750 456 803 l 456 331 q 479 253 456 278 q 550 228 503 228 q 621 253 597 228 q 644 331 644 278 l 644 443 l 978 443 l 978 83 q 809 13 921 44 q 567 -19 697 -19 z "},"Ć":{"ha":1003,"x_min":19,"x_max":978,"o":"m 567 -19 q 162 114 304 -19 q 19 540 19 247 q 564 1100 19 1100 q 809 1068 696 1100 q 978 997 922 1036 l 978 650 l 644 650 l 644 750 q 621 828 644 803 q 550 853 597 853 q 479 828 503 853 q 456 750 456 803 l 456 331 q 479 253 456 278 q 550 228 503 228 q 621 253 597 228 q 644 331 644 278 l 644 443 l 978 443 l 978 83 q 809 13 921 44 q 567 -19 697 -19 m 383 1164 l 383 1185 l 535 1318 l 883 1318 l 883 1282 l 657 1164 l 383 1164 z "},"Č":{"ha":1003,"x_min":19,"x_max":978,"o":"m 567 -19 q 162 114 304 -19 q 19 540 19 247 q 564 1100 19 1100 q 809 1068 696 1100 q 978 997 922 1036 l 978 650 l 644 650 l 644 750 q 621 828 644 803 q 550 853 597 853 q 479 828 503 853 q 456 750 456 803 l 456 331 q 479 253 456 278 q 550 228 503 228 q 621 253 597 228 q 644 331 644 278 l 644 443 l 978 443 l 978 83 q 809 13 921 44 q 567 -19 697 -19 m 390 1164 l 214 1339 l 214 1360 l 428 1360 l 557 1247 l 571 1247 l 700 1360 l 914 1360 l 914 1339 l 738 1164 l 390 1164 z "},"Ç":{"ha":1003,"x_min":19,"x_max":978,"o":"m 644 650 l 644 750 q 621 828 644 803 q 550 853 597 853 q 479 828 503 853 q 456 750 456 803 l 456 331 q 479 253 456 278 q 550 228 503 228 q 621 253 597 228 q 644 331 644 278 l 644 443 l 978 443 l 978 83 q 836 21 929 50 q 632 -17 743 -8 l 632 -54 q 733 -87 694 -54 q 772 -185 772 -121 q 720 -301 772 -260 q 576 -342 668 -342 q 406 -317 497 -342 l 406 -218 q 561 -237 490 -237 q 597 -225 585 -237 q 608 -193 608 -212 q 597 -161 608 -174 q 561 -149 585 -149 l 500 -149 l 500 -17 q 19 540 19 15 q 564 1100 19 1100 q 809 1068 696 1100 q 978 997 922 1036 l 978 650 l 644 650 z "},"Ḉ":{"ha":1003,"x_min":19,"x_max":978,"o":"m 883 1282 l 657 1164 l 383 1164 l 383 1185 l 535 1318 l 883 1318 l 883 1282 m 644 650 l 644 750 q 621 828 644 803 q 550 853 597 853 q 479 828 503 853 q 456 750 456 803 l 456 331 q 479 253 456 278 q 550 228 503 228 q 621 253 597 228 q 644 331 644 278 l 644 443 l 978 443 l 978 83 q 836 21 929 50 q 632 -17 743 -8 l 632 -54 q 733 -87 694 -54 q 772 -185 772 -121 q 720 -301 772 -260 q 576 -342 668 -342 q 406 -317 497 -342 l 406 -218 q 561 -237 490 -237 q 597 -225 585 -237 q 608 -193 608 -212 q 597 -161 608 -174 q 561 -149 585 -149 l 500 -149 l 500 -17 q 19 540 19 15 q 564 1100 19 1100 q 809 1068 696 1100 q 978 997 922 1036 l 978 650 l 644 650 z "},"Ĉ":{"ha":1003,"x_min":19,"x_max":978,"o":"m 567 -19 q 162 114 304 -19 q 19 540 19 247 q 564 1100 19 1100 q 809 1068 696 1100 q 978 997 922 1036 l 978 650 l 644 650 l 644 750 q 621 828 644 803 q 550 853 597 853 q 479 828 503 853 q 456 750 456 803 l 456 331 q 479 253 456 278 q 550 228 503 228 q 621 253 597 228 q 644 331 644 278 l 644 443 l 978 443 l 978 83 q 809 13 921 44 q 567 -19 697 -19 m 214 1164 l 214 1185 l 390 1360 l 738 1360 l 914 1185 l 914 1164 l 700 1164 l 571 1276 l 557 1276 l 428 1164 l 214 1164 z "},"Ċ":{"ha":1003,"x_min":19,"x_max":978,"o":"m 567 -19 q 162 114 304 -19 q 19 540 19 247 q 564 1100 19 1100 q 809 1068 696 1100 q 978 997 922 1036 l 978 650 l 644 650 l 644 750 q 621 828 644 803 q 550 853 597 853 q 479 828 503 853 q 456 750 456 803 l 456 331 q 479 253 456 278 q 550 228 503 228 q 621 253 597 228 q 644 331 644 278 l 644 443 l 978 443 l 978 83 q 809 13 921 44 q 567 -19 697 -19 m 436 1178 l 436 1354 l 692 1354 l 692 1178 l 436 1178 z "},"D":{"ha":1117,"x_min":28,"x_max":1097,"o":"m 28 228 l 97 228 l 97 851 l 28 851 l 28 1081 l 592 1081 q 960 953 824 1081 q 1097 540 1097 826 q 960 127 1097 254 q 592 0 824 0 l 28 0 l 28 228 m 567 228 q 638 253 614 228 q 661 331 661 278 l 661 750 q 567 853 661 853 l 486 853 l 486 228 l 567 228 z "},"Ǆ":{"ha":2074,"x_min":28,"x_max":2054,"o":"m 28 228 l 97 228 l 97 851 l 28 851 l 28 1081 l 592 1081 q 960 953 824 1081 q 1097 540 1097 826 q 960 127 1097 254 q 592 0 824 0 l 28 0 l 28 228 m 567 228 q 638 253 614 228 q 661 331 661 278 l 661 750 q 567 853 661 853 l 486 853 l 486 228 l 567 228 m 1778 342 l 2054 342 l 2054 0 l 1136 0 l 1136 200 l 1564 853 l 1419 853 l 1419 739 l 1143 739 l 1143 1081 l 2032 1081 l 2032 881 l 1606 228 l 1778 228 l 1778 342 m 1414 1164 l 1238 1339 l 1238 1360 l 1451 1360 l 1581 1247 l 1594 1247 l 1724 1360 l 1938 1360 l 1938 1339 l 1761 1164 l 1414 1164 z "},"Ð":{"ha":1147,"x_min":24,"x_max":1122,"o":"m 617 1081 q 985 953 849 1081 q 1122 540 1122 826 q 985 127 1122 254 q 617 0 849 0 l 39 0 l 39 228 l 122 228 l 122 432 l 24 432 l 24 660 l 122 660 l 122 851 l 39 851 l 39 1081 l 617 1081 m 686 750 q 592 853 686 853 l 511 853 l 511 660 l 596 660 l 596 432 l 511 432 l 511 228 l 592 228 q 663 253 639 228 q 686 331 686 278 l 686 750 z "},"Ď":{"ha":1117,"x_min":28,"x_max":1097,"o":"m 28 228 l 97 228 l 97 851 l 28 851 l 28 1081 l 592 1081 q 960 953 824 1081 q 1097 540 1097 826 q 960 127 1097 254 q 592 0 824 0 l 28 0 l 28 228 m 567 228 q 638 253 614 228 q 661 331 661 278 l 661 750 q 567 853 661 853 l 486 853 l 486 228 l 567 228 m 353 1164 l 176 1339 l 176 1360 l 390 1360 l 519 1247 l 533 1247 l 663 1360 l 876 1360 l 876 1339 l 700 1164 l 353 1164 z "},"Đ":{"ha":1147,"x_min":24,"x_max":1122,"o":"m 617 1081 q 985 953 849 1081 q 1122 540 1122 826 q 985 127 1122 254 q 617 0 849 0 l 39 0 l 39 228 l 122 228 l 122 432 l 24 432 l 24 660 l 122 660 l 122 851 l 39 851 l 39 1081 l 617 1081 m 686 750 q 592 853 686 853 l 511 853 l 511 660 l 596 660 l 596 432 l 511 432 l 511 228 l 592 228 q 663 253 639 228 q 686 331 686 278 l 686 750 z "},"Ḍ":{"ha":1117,"x_min":28,"x_max":1097,"o":"m 28 228 l 97 228 l 97 851 l 28 851 l 28 1081 l 592 1081 q 960 953 824 1081 q 1097 540 1097 826 q 960 127 1097 254 q 592 0 824 0 l 28 0 l 28 228 m 567 228 q 638 253 614 228 q 661 331 661 278 l 661 750 q 567 853 661 853 l 486 853 l 486 228 l 567 228 m 404 -311 l 404 -97 l 649 -97 l 649 -311 l 404 -311 z "},"Ḏ":{"ha":1117,"x_min":28,"x_max":1097,"o":"m 28 228 l 97 228 l 97 851 l 28 851 l 28 1081 l 592 1081 q 960 953 824 1081 q 1097 540 1097 826 q 960 127 1097 254 q 592 0 824 0 l 28 0 l 28 228 m 567 228 q 638 253 614 228 q 661 331 661 278 l 661 750 q 567 853 661 853 l 486 853 l 486 228 l 567 228 m 276 -261 l 276 -111 l 774 -111 l 774 -261 l 276 -261 z "},"ǅ":{"ha":1906,"x_min":28,"x_max":1886,"o":"m 28 228 l 97 228 l 97 851 l 28 851 l 28 1081 l 592 1081 q 960 953 824 1081 q 1097 540 1097 826 q 960 127 1097 254 q 592 0 824 0 l 28 0 l 28 228 m 567 228 q 638 253 614 228 q 661 331 661 278 l 661 750 q 567 853 661 853 l 486 853 l 486 228 l 567 228 m 1136 0 l 1136 207 l 1475 544 l 1351 544 l 1351 494 l 1144 494 l 1144 772 l 1874 772 l 1874 574 l 1543 228 l 1676 228 l 1676 306 l 1886 306 l 1886 0 l 1136 0 m 1372 856 l 1208 1067 l 1208 1088 l 1417 1088 l 1503 997 l 1517 997 l 1603 1088 l 1811 1088 l 1811 1067 l 1647 856 l 1372 856 z "},"E":{"ha":990,"x_min":28,"x_max":965,"o":"m 28 0 l 28 228 l 97 228 l 97 853 l 28 853 l 28 1081 l 965 1081 l 965 661 l 654 661 l 654 853 l 486 853 l 486 633 l 608 633 l 608 475 l 486 475 l 486 228 l 654 228 l 654 447 l 965 447 l 965 0 l 28 0 z "},"É":{"ha":990,"x_min":28,"x_max":965,"o":"m 28 0 l 28 228 l 97 228 l 97 853 l 28 853 l 28 1081 l 965 1081 l 965 661 l 654 661 l 654 853 l 486 853 l 486 633 l 608 633 l 608 475 l 486 475 l 486 228 l 654 228 l 654 447 l 965 447 l 965 0 l 28 0 m 351 1164 l 351 1185 l 503 1318 l 851 1318 l 851 1282 l 625 1164 l 351 1164 z "},"Ĕ":{"ha":990,"x_min":28,"x_max":965,"o":"m 28 0 l 28 228 l 97 228 l 97 853 l 28 853 l 28 1081 l 965 1081 l 965 661 l 654 661 l 654 853 l 486 853 l 486 633 l 608 633 l 608 475 l 486 475 l 486 228 l 654 228 l 654 447 l 965 447 l 965 0 l 28 0 m 532 1164 q 315 1218 393 1164 q 238 1368 238 1272 l 238 1382 l 444 1382 l 444 1368 q 532 1306 444 1306 q 619 1368 619 1306 l 619 1382 l 826 1382 l 826 1368 q 749 1218 826 1272 q 532 1164 671 1164 z "},"Ě":{"ha":990,"x_min":28,"x_max":965,"o":"m 28 0 l 28 228 l 97 228 l 97 853 l 28 853 l 28 1081 l 965 1081 l 965 661 l 654 661 l 654 853 l 486 853 l 486 633 l 608 633 l 608 475 l 486 475 l 486 228 l 654 228 l 654 447 l 965 447 l 965 0 l 28 0 m 358 1164 l 182 1339 l 182 1360 l 396 1360 l 525 1247 l 539 1247 l 668 1360 l 882 1360 l 882 1339 l 706 1164 l 358 1164 z "},"Ḝ":{"ha":990,"x_min":28,"x_max":965,"o":"m 28 0 l 28 228 l 97 228 l 97 853 l 28 853 l 28 1081 l 965 1081 l 965 661 l 654 661 l 654 853 l 486 853 l 486 633 l 608 633 l 608 475 l 486 475 l 486 228 l 654 228 l 654 447 l 965 447 l 965 0 l 28 0 m 542 -342 q 371 -317 463 -342 l 371 -218 q 526 -237 456 -237 q 562 -225 550 -237 q 574 -193 574 -212 q 562 -161 574 -174 q 526 -149 550 -149 l 465 -149 l 465 0 l 597 0 l 597 -54 q 699 -87 660 -54 q 738 -185 738 -121 q 685 -301 738 -260 q 542 -342 633 -342 m 532 1164 q 315 1218 393 1164 q 238 1368 238 1272 l 238 1382 l 444 1382 l 444 1368 q 532 1306 444 1306 q 619 1368 619 1306 l 619 1382 l 826 1382 l 826 1368 q 749 1218 826 1272 q 532 1164 671 1164 z "},"Ê":{"ha":990,"x_min":28,"x_max":965,"o":"m 28 0 l 28 228 l 97 228 l 97 853 l 28 853 l 28 1081 l 965 1081 l 965 661 l 654 661 l 654 853 l 486 853 l 486 633 l 608 633 l 608 475 l 486 475 l 486 228 l 654 228 l 654 447 l 965 447 l 965 0 l 28 0 m 182 1164 l 182 1185 l 358 1360 l 706 1360 l 882 1185 l 882 1164 l 668 1164 l 539 1276 l 525 1276 l 396 1164 l 182 1164 z "},"Ế":{"ha":990,"x_min":28,"x_max":1061,"o":"m 28 0 l 28 228 l 97 228 l 97 853 l 28 853 l 28 1081 l 965 1081 l 965 661 l 654 661 l 654 853 l 486 853 l 486 633 l 608 633 l 608 475 l 486 475 l 486 228 l 654 228 l 654 447 l 965 447 l 965 0 l 28 0 m 824 1471 l 1061 1471 l 1061 1435 l 922 1303 l 756 1303 l 756 1324 l 824 1471 m 407 1367 l 657 1367 l 819 1178 l 819 1157 l 633 1157 l 532 1257 l 431 1157 l 244 1157 l 244 1178 l 407 1367 z "},"Ệ":{"ha":990,"x_min":28,"x_max":965,"o":"m 28 0 l 28 228 l 97 228 l 97 853 l 28 853 l 28 1081 l 965 1081 l 965 661 l 654 661 l 654 853 l 486 853 l 486 633 l 608 633 l 608 475 l 486 475 l 486 228 l 654 228 l 654 447 l 965 447 l 965 0 l 28 0 m 410 -311 l 410 -97 l 654 -97 l 654 -311 l 410 -311 m 182 1164 l 182 1185 l 358 1360 l 706 1360 l 882 1185 l 882 1164 l 668 1164 l 539 1276 l 525 1276 l 396 1164 l 182 1164 z "},"Ề":{"ha":990,"x_min":28,"x_max":992,"o":"m 28 0 l 28 228 l 97 228 l 97 853 l 28 853 l 28 1081 l 965 1081 l 965 661 l 654 661 l 654 853 l 486 853 l 486 633 l 608 633 l 608 475 l 486 475 l 486 228 l 654 228 l 654 447 l 965 447 l 965 0 l 28 0 m 924 1464 l 992 1317 l 992 1296 l 825 1296 l 686 1428 l 686 1464 l 924 1464 m 407 1367 l 657 1367 l 819 1178 l 819 1157 l 633 1157 l 532 1257 l 431 1157 l 244 1157 l 244 1178 l 407 1367 z "},"Ể":{"ha":990,"x_min":28,"x_max":965,"o":"m 28 0 l 28 228 l 97 228 l 97 853 l 28 853 l 28 1081 l 965 1081 l 965 661 l 654 661 l 654 853 l 486 853 l 486 633 l 608 633 l 608 475 l 486 475 l 486 228 l 654 228 l 654 447 l 965 447 l 965 0 l 28 0 m 776 1632 q 894 1595 851 1632 q 936 1493 936 1558 q 796 1303 936 1392 l 739 1361 q 772 1405 763 1386 q 782 1450 782 1424 q 763 1497 782 1479 q 711 1515 744 1515 q 649 1507 682 1515 l 649 1611 q 776 1632 711 1632 m 407 1367 l 657 1367 l 819 1178 l 819 1157 l 633 1157 l 532 1257 l 431 1157 l 244 1157 l 244 1178 l 407 1367 z "},"Ễ":{"ha":990,"x_min":28,"x_max":965,"o":"m 28 0 l 28 228 l 97 228 l 97 853 l 28 853 l 28 1081 l 965 1081 l 965 661 l 654 661 l 654 853 l 486 853 l 486 633 l 608 633 l 608 475 l 486 475 l 486 228 l 654 228 l 654 447 l 965 447 l 965 0 l 28 0 m 389 1463 q 347 1449 363 1463 q 331 1411 331 1435 l 253 1411 q 292 1565 253 1515 q 421 1614 332 1614 q 480 1608 451 1614 q 556 1588 508 1601 q 588 1578 563 1586 q 635 1567 614 1571 q 675 1564 657 1564 q 718 1576 703 1564 q 733 1613 733 1589 l 811 1613 q 773 1459 811 1508 q 643 1410 735 1410 q 576 1417 608 1410 q 503 1438 544 1424 q 440 1456 464 1450 q 389 1463 415 1463 m 657 1367 l 819 1178 l 819 1157 l 633 1157 l 532 1257 l 431 1157 l 244 1157 l 244 1178 l 407 1367 l 657 1367 z "},"Ȅ":{"ha":990,"x_min":28,"x_max":965,"o":"m 28 0 l 28 228 l 97 228 l 97 853 l 28 853 l 28 1081 l 965 1081 l 965 661 l 654 661 l 654 853 l 486 853 l 486 633 l 608 633 l 608 475 l 486 475 l 486 228 l 654 228 l 654 447 l 965 447 l 965 0 l 28 0 m 274 1164 l 89 1282 l 89 1318 l 396 1318 l 478 1185 l 478 1164 l 274 1164 m 664 1164 l 479 1282 l 479 1318 l 786 1318 l 868 1185 l 868 1164 l 664 1164 z "},"Ë":{"ha":990,"x_min":28,"x_max":965,"o":"m 28 0 l 28 228 l 97 228 l 97 853 l 28 853 l 28 1081 l 965 1081 l 965 661 l 654 661 l 654 853 l 486 853 l 486 633 l 608 633 l 608 475 l 486 475 l 486 228 l 654 228 l 654 447 l 965 447 l 965 0 l 28 0 m 239 1164 l 239 1340 l 494 1340 l 494 1164 l 239 1164 m 569 1164 l 569 1340 l 825 1340 l 825 1164 l 569 1164 z "},"Ė":{"ha":990,"x_min":28,"x_max":965,"o":"m 28 0 l 28 228 l 97 228 l 97 853 l 28 853 l 28 1081 l 965 1081 l 965 661 l 654 661 l 654 853 l 486 853 l 486 633 l 608 633 l 608 475 l 486 475 l 486 228 l 654 228 l 654 447 l 965 447 l 965 0 l 28 0 m 404 1178 l 404 1354 l 660 1354 l 660 1178 l 404 1178 z "},"Ẹ":{"ha":990,"x_min":28,"x_max":965,"o":"m 28 0 l 28 228 l 97 228 l 97 853 l 28 853 l 28 1081 l 965 1081 l 965 661 l 654 661 l 654 853 l 486 853 l 486 633 l 608 633 l 608 475 l 486 475 l 486 228 l 654 228 l 654 447 l 965 447 l 965 0 l 28 0 m 410 -311 l 410 -97 l 654 -97 l 654 -311 l 410 -311 z "},"È":{"ha":990,"x_min":28,"x_max":965,"o":"m 28 0 l 28 228 l 97 228 l 97 853 l 28 853 l 28 1081 l 965 1081 l 965 661 l 654 661 l 654 853 l 486 853 l 486 633 l 608 633 l 608 475 l 486 475 l 486 228 l 654 228 l 654 447 l 965 447 l 965 0 l 28 0 m 442 1164 l 215 1282 l 215 1318 l 564 1318 l 715 1185 l 715 1164 l 442 1164 z "},"Ẻ":{"ha":990,"x_min":28,"x_max":965,"o":"m 28 0 l 28 228 l 97 228 l 97 853 l 28 853 l 28 1081 l 965 1081 l 965 661 l 654 661 l 654 853 l 486 853 l 486 633 l 608 633 l 608 475 l 486 475 l 486 228 l 654 228 l 654 447 l 965 447 l 965 0 l 28 0 m 482 1201 q 515 1245 506 1226 q 525 1290 525 1264 q 506 1338 525 1319 q 454 1356 488 1356 q 392 1347 425 1356 l 392 1451 q 519 1472 454 1472 q 637 1435 594 1472 q 679 1333 679 1399 q 539 1143 679 1232 l 482 1201 z "},"Ȇ":{"ha":990,"x_min":28,"x_max":965,"o":"m 28 0 l 28 228 l 97 228 l 97 853 l 28 853 l 28 1081 l 965 1081 l 965 661 l 654 661 l 654 853 l 486 853 l 486 633 l 608 633 l 608 475 l 486 475 l 486 228 l 654 228 l 654 447 l 965 447 l 965 0 l 28 0 m 238 1178 q 315 1328 238 1274 q 532 1382 393 1382 q 749 1328 671 1382 q 826 1178 826 1274 l 826 1164 l 619 1164 l 619 1178 q 532 1240 619 1240 q 444 1178 444 1240 l 444 1164 l 238 1164 l 238 1178 z "},"Ē":{"ha":990,"x_min":28,"x_max":965,"o":"m 28 0 l 28 228 l 97 228 l 97 853 l 28 853 l 28 1081 l 965 1081 l 965 661 l 654 661 l 654 853 l 486 853 l 486 633 l 608 633 l 608 475 l 486 475 l 486 228 l 654 228 l 654 447 l 965 447 l 965 0 l 28 0 m 283 1167 l 283 1303 l 781 1303 l 781 1167 l 283 1167 z "},"Ḗ":{"ha":990,"x_min":28,"x_max":965,"o":"m 28 0 l 28 228 l 97 228 l 97 853 l 28 853 l 28 1081 l 965 1081 l 965 661 l 654 661 l 654 853 l 486 853 l 486 633 l 608 633 l 608 475 l 486 475 l 486 228 l 654 228 l 654 447 l 965 447 l 965 0 l 28 0 m 283 1167 l 283 1303 l 781 1303 l 781 1167 l 283 1167 m 351 1379 l 351 1400 l 503 1533 l 851 1533 l 851 1497 l 625 1379 l 351 1379 z "},"Ḕ":{"ha":990,"x_min":28,"x_max":965,"o":"m 28 0 l 28 228 l 97 228 l 97 853 l 28 853 l 28 1081 l 965 1081 l 965 661 l 654 661 l 654 853 l 486 853 l 486 633 l 608 633 l 608 475 l 486 475 l 486 228 l 654 228 l 654 447 l 965 447 l 965 0 l 28 0 m 283 1167 l 283 1303 l 781 1303 l 781 1167 l 283 1167 m 442 1379 l 215 1497 l 215 1533 l 564 1533 l 715 1400 l 715 1379 l 442 1379 z "},"Ę":{"ha":990,"x_min":28,"x_max":965,"o":"m 654 661 l 654 853 l 486 853 l 486 633 l 608 633 l 608 475 l 486 475 l 486 228 l 654 228 l 654 447 l 965 447 l 965 0 l 815 0 q 783 -81 783 -42 q 807 -140 783 -118 q 872 -161 831 -161 q 956 -149 917 -161 l 956 -267 q 817 -300 889 -300 q 682 -260 731 -300 q 633 -149 633 -221 q 649 -71 633 -110 q 693 0 665 -32 l 28 0 l 28 228 l 97 228 l 97 853 l 28 853 l 28 1081 l 965 1081 l 965 661 l 654 661 z "},"Ẽ":{"ha":990,"x_min":28,"x_max":965,"o":"m 28 0 l 28 228 l 97 228 l 97 853 l 28 853 l 28 1081 l 965 1081 l 965 661 l 654 661 l 654 853 l 486 853 l 486 633 l 608 633 l 608 475 l 486 475 l 486 228 l 654 228 l 654 447 l 965 447 l 965 0 l 28 0 m 671 1164 q 589 1174 628 1164 q 499 1201 550 1183 q 427 1224 456 1217 q 372 1231 399 1231 q 330 1217 346 1231 q 314 1179 314 1203 l 236 1179 q 272 1358 236 1299 q 403 1417 307 1417 q 481 1408 446 1417 q 565 1382 517 1399 q 635 1360 607 1367 q 692 1353 663 1353 q 736 1367 722 1353 q 750 1401 750 1382 l 828 1401 q 797 1222 828 1281 q 671 1164 765 1164 z "},"F":{"ha":878,"x_min":28,"x_max":858,"o":"m 28 0 l 28 228 l 97 228 l 97 853 l 28 853 l 28 1081 l 858 1081 l 858 721 l 613 721 l 613 853 l 486 853 l 486 622 l 696 622 l 696 464 l 486 464 l 486 228 l 668 228 l 668 0 l 28 0 z "},"G":{"ha":1086,"x_min":19,"x_max":1075,"o":"m 1075 347 l 1006 347 l 1006 69 q 827 8 944 35 q 574 -19 710 -19 q 167 117 314 -19 q 19 540 19 254 q 166 967 19 833 q 585 1100 313 1100 q 832 1072 717 1100 q 1006 1010 947 1044 l 1006 678 l 658 678 l 658 743 q 634 827 658 801 q 557 853 610 853 q 480 827 504 853 q 456 743 456 801 l 456 338 q 480 253 456 279 q 557 228 504 228 q 634 253 610 228 q 658 338 658 279 l 658 347 l 583 347 l 583 554 l 1075 554 l 1075 347 z "},"Ğ":{"ha":1086,"x_min":19,"x_max":1075,"o":"m 1075 347 l 1006 347 l 1006 69 q 827 8 944 35 q 574 -19 710 -19 q 167 117 314 -19 q 19 540 19 254 q 166 967 19 833 q 585 1100 313 1100 q 832 1072 717 1100 q 1006 1010 947 1044 l 1006 678 l 658 678 l 658 743 q 634 827 658 801 q 557 853 610 853 q 480 827 504 853 q 456 743 456 801 l 456 338 q 480 253 456 279 q 557 228 504 228 q 634 253 610 228 q 658 338 658 279 l 658 347 l 583 347 l 583 554 l 1075 554 l 1075 347 m 585 1164 q 368 1218 446 1164 q 290 1368 290 1272 l 290 1382 l 497 1382 l 497 1368 q 585 1306 497 1306 q 672 1368 672 1306 l 672 1382 l 879 1382 l 879 1368 q 801 1218 879 1272 q 585 1164 724 1164 z "},"Ǧ":{"ha":1086,"x_min":19,"x_max":1075,"o":"m 1075 347 l 1006 347 l 1006 69 q 827 8 944 35 q 574 -19 710 -19 q 167 117 314 -19 q 19 540 19 254 q 166 967 19 833 q 585 1100 313 1100 q 832 1072 717 1100 q 1006 1010 947 1044 l 1006 678 l 658 678 l 658 743 q 634 827 658 801 q 557 853 610 853 q 480 827 504 853 q 456 743 456 801 l 456 338 q 480 253 456 279 q 557 228 504 228 q 634 253 610 228 q 658 338 658 279 l 658 347 l 583 347 l 583 554 l 1075 554 l 1075 347 m 411 1164 l 235 1339 l 235 1360 l 449 1360 l 578 1247 l 592 1247 l 721 1360 l 935 1360 l 935 1339 l 758 1164 l 411 1164 z "},"Ĝ":{"ha":1086,"x_min":19,"x_max":1075,"o":"m 1075 347 l 1006 347 l 1006 69 q 827 8 944 35 q 574 -19 710 -19 q 167 117 314 -19 q 19 540 19 254 q 166 967 19 833 q 585 1100 313 1100 q 832 1072 717 1100 q 1006 1010 947 1044 l 1006 678 l 658 678 l 658 743 q 634 827 658 801 q 557 853 610 853 q 480 827 504 853 q 456 743 456 801 l 456 338 q 480 253 456 279 q 557 228 504 228 q 634 253 610 228 q 658 338 658 279 l 658 347 l 583 347 l 583 554 l 1075 554 l 1075 347 m 235 1164 l 235 1185 l 411 1360 l 758 1360 l 935 1185 l 935 1164 l 721 1164 l 592 1276 l 578 1276 l 449 1164 l 235 1164 z "},"Ģ":{"ha":1086,"x_min":19,"x_max":1075,"o":"m 1075 347 l 1006 347 l 1006 69 q 827 8 944 35 q 574 -19 710 -19 q 167 117 314 -19 q 19 540 19 254 q 166 967 19 833 q 585 1100 313 1100 q 832 1072 717 1100 q 1006 1010 947 1044 l 1006 678 l 658 678 l 658 743 q 634 827 658 801 q 557 853 610 853 q 480 827 504 853 q 456 743 456 801 l 456 338 q 480 253 456 279 q 557 228 504 228 q 634 253 610 228 q 658 338 658 279 l 658 347 l 583 347 l 583 554 l 1075 554 l 1075 347 m 483 -437 l 528 -281 l 471 -281 l 471 -83 l 679 -83 l 679 -281 l 603 -437 l 483 -437 z "},"Ġ":{"ha":1086,"x_min":19,"x_max":1075,"o":"m 1075 347 l 1006 347 l 1006 69 q 827 8 944 35 q 574 -19 710 -19 q 167 117 314 -19 q 19 540 19 254 q 166 967 19 833 q 585 1100 313 1100 q 832 1072 717 1100 q 1006 1010 947 1044 l 1006 678 l 658 678 l 658 743 q 634 827 658 801 q 557 853 610 853 q 480 827 504 853 q 456 743 456 801 l 456 338 q 480 253 456 279 q 557 228 504 228 q 634 253 610 228 q 658 338 658 279 l 658 347 l 583 347 l 583 554 l 1075 554 l 1075 347 m 457 1178 l 457 1354 l 713 1354 l 713 1178 l 457 1178 z "},"Ḡ":{"ha":1086,"x_min":19,"x_max":1075,"o":"m 1075 347 l 1006 347 l 1006 69 q 827 8 944 35 q 574 -19 710 -19 q 167 117 314 -19 q 19 540 19 254 q 166 967 19 833 q 585 1100 313 1100 q 832 1072 717 1100 q 1006 1010 947 1044 l 1006 678 l 658 678 l 658 743 q 634 827 658 801 q 557 853 610 853 q 480 827 504 853 q 456 743 456 801 l 456 338 q 480 253 456 279 q 557 228 504 228 q 634 253 610 228 q 658 338 658 279 l 658 347 l 583 347 l 583 554 l 1075 554 l 1075 347 m 336 1167 l 336 1303 l 833 1303 l 833 1167 l 336 1167 z "},"H":{"ha":1167,"x_min":28,"x_max":1139,"o":"m 1139 853 l 1069 853 l 1069 228 l 1139 228 l 1139 0 l 614 0 l 614 228 l 681 228 l 681 457 l 486 457 l 486 228 l 553 228 l 553 0 l 28 0 l 28 228 l 97 228 l 97 853 l 28 853 l 28 1081 l 553 1081 l 553 853 l 486 853 l 486 642 l 681 642 l 681 853 l 614 853 l 614 1081 l 1139 1081 l 1139 853 z "},"Ħ":{"ha":1167,"x_min":28,"x_max":1139,"o":"m 1139 853 l 1069 853 l 1069 742 l 1139 742 l 1139 601 l 1069 601 l 1069 228 l 1139 228 l 1139 0 l 614 0 l 614 228 l 681 228 l 681 346 l 486 346 l 486 228 l 553 228 l 553 0 l 28 0 l 28 228 l 97 228 l 97 601 l 28 601 l 28 742 l 97 742 l 97 853 l 28 853 l 28 1081 l 553 1081 l 553 853 l 486 853 l 486 742 l 681 742 l 681 853 l 614 853 l 614 1081 l 1139 1081 l 1139 853 m 681 504 l 681 601 l 486 601 l 486 504 l 681 504 z "},"Ḫ":{"ha":1167,"x_min":28,"x_max":1139,"o":"m 1139 853 l 1069 853 l 1069 228 l 1139 228 l 1139 0 l 614 0 l 614 228 l 681 228 l 681 457 l 486 457 l 486 228 l 553 228 l 553 0 l 28 0 l 28 228 l 97 228 l 97 853 l 28 853 l 28 1081 l 553 1081 l 553 853 l 486 853 l 486 642 l 681 642 l 681 853 l 614 853 l 614 1081 l 1139 1081 l 1139 853 m 583 -301 q 367 -247 444 -301 q 289 -97 289 -193 l 289 -83 l 496 -83 l 496 -97 q 583 -160 496 -160 q 671 -97 671 -160 l 671 -83 l 878 -83 l 878 -97 q 800 -247 878 -193 q 583 -301 722 -301 z "},"Ĥ":{"ha":1167,"x_min":28,"x_max":1139,"o":"m 1139 853 l 1069 853 l 1069 228 l 1139 228 l 1139 0 l 614 0 l 614 228 l 681 228 l 681 457 l 486 457 l 486 228 l 553 228 l 553 0 l 28 0 l 28 228 l 97 228 l 97 853 l 28 853 l 28 1081 l 553 1081 l 553 853 l 486 853 l 486 642 l 681 642 l 681 853 l 614 853 l 614 1081 l 1139 1081 l 1139 853 m 233 1164 l 233 1185 l 410 1360 l 757 1360 l 933 1185 l 933 1164 l 719 1164 l 590 1276 l 576 1276 l 447 1164 l 233 1164 z "},"Ḥ":{"ha":1167,"x_min":28,"x_max":1139,"o":"m 1139 853 l 1069 853 l 1069 228 l 1139 228 l 1139 0 l 614 0 l 614 228 l 681 228 l 681 457 l 486 457 l 486 228 l 553 228 l 553 0 l 28 0 l 28 228 l 97 228 l 97 853 l 28 853 l 28 1081 l 553 1081 l 553 853 l 486 853 l 486 642 l 681 642 l 681 853 l 614 853 l 614 1081 l 1139 1081 l 1139 853 m 461 -311 l 461 -97 l 706 -97 l 706 -311 l 461 -311 z "},"I":{"ha":583,"x_min":28,"x_max":556,"o":"m 28 0 l 28 228 l 97 228 l 97 853 l 28 853 l 28 1081 l 556 1081 l 556 853 l 486 853 l 486 228 l 556 228 l 556 0 l 28 0 z "},"Ĳ":{"ha":1114,"x_min":28,"x_max":1089,"o":"m 479 -19 q 230 2 350 -19 q 28 57 110 24 l 28 329 l 367 329 l 367 315 q 396 249 367 271 q 492 228 425 228 l 533 228 q 630 260 601 228 q 658 368 658 293 l 658 853 l 589 853 l 589 1081 l 1089 1081 l 1089 853 l 1019 853 l 1019 415 q 479 -19 1019 -19 m 28 375 l 28 603 l 97 603 l 97 853 l 28 853 l 28 1081 l 528 1081 l 528 853 l 458 853 l 458 603 l 528 603 l 528 375 l 28 375 z "},"Í":{"ha":583,"x_min":28,"x_max":611,"o":"m 28 0 l 28 228 l 97 228 l 97 853 l 28 853 l 28 1081 l 556 1081 l 556 853 l 486 853 l 486 228 l 556 228 l 556 0 l 28 0 m 111 1164 l 111 1185 l 263 1318 l 611 1318 l 611 1282 l 385 1164 l 111 1164 z "},"Ĭ":{"ha":583,"x_min":-3,"x_max":586,"o":"m 28 0 l 28 228 l 97 228 l 97 853 l 28 853 l 28 1081 l 556 1081 l 556 853 l 486 853 l 486 228 l 556 228 l 556 0 l 28 0 m 292 1164 q 75 1218 153 1164 q -3 1368 -3 1272 l -3 1382 l 204 1382 l 204 1368 q 292 1306 204 1306 q 379 1368 379 1306 l 379 1382 l 586 1382 l 586 1368 q 508 1218 586 1272 q 292 1164 431 1164 z "},"Î":{"ha":583,"x_min":-58,"x_max":642,"o":"m 28 0 l 28 228 l 97 228 l 97 853 l 28 853 l 28 1081 l 556 1081 l 556 853 l 486 853 l 486 228 l 556 228 l 556 0 l 28 0 m -58 1164 l -58 1185 l 118 1360 l 465 1360 l 642 1185 l 642 1164 l 428 1164 l 299 1276 l 285 1276 l 156 1164 l -58 1164 z "},"Ȉ":{"ha":583,"x_min":-151,"x_max":628,"o":"m 28 0 l 28 228 l 97 228 l 97 853 l 28 853 l 28 1081 l 556 1081 l 556 853 l 486 853 l 486 228 l 556 228 l 556 0 l 28 0 m 33 1164 l -151 1282 l -151 1318 l 156 1318 l 238 1185 l 238 1164 l 33 1164 m 424 1164 l 239 1282 l 239 1318 l 546 1318 l 628 1185 l 628 1164 l 424 1164 z "},"Ï":{"ha":583,"x_min":-1,"x_max":585,"o":"m 28 0 l 28 228 l 97 228 l 97 853 l 28 853 l 28 1081 l 556 1081 l 556 853 l 486 853 l 486 228 l 556 228 l 556 0 l 28 0 m -1 1164 l -1 1340 l 254 1340 l 254 1164 l -1 1164 m 329 1164 l 329 1340 l 585 1340 l 585 1164 l 329 1164 z "},"Ḯ":{"ha":583,"x_min":-1,"x_max":611,"o":"m 28 0 l 28 228 l 97 228 l 97 853 l 28 853 l 28 1081 l 556 1081 l 556 853 l 486 853 l 486 228 l 556 228 l 556 0 l 28 0 m -1 1164 l -1 1340 l 254 1340 l 254 1164 l -1 1164 m 329 1164 l 329 1340 l 585 1340 l 585 1164 l 329 1164 m 111 1410 l 111 1431 l 263 1564 l 611 1564 l 611 1528 l 385 1410 l 111 1410 z "},"İ":{"ha":583,"x_min":28,"x_max":556,"o":"m 28 0 l 28 228 l 97 228 l 97 853 l 28 853 l 28 1081 l 556 1081 l 556 853 l 486 853 l 486 228 l 556 228 l 556 0 l 28 0 m 164 1178 l 164 1354 l 419 1354 l 419 1178 l 164 1178 z "},"Ị":{"ha":583,"x_min":28,"x_max":556,"o":"m 28 0 l 28 228 l 97 228 l 97 853 l 28 853 l 28 1081 l 556 1081 l 556 853 l 486 853 l 486 228 l 556 228 l 556 0 l 28 0 m 183 -311 l 183 -97 l 428 -97 l 428 -311 l 183 -311 z "},"Ì":{"ha":583,"x_min":-25,"x_max":556,"o":"m 28 0 l 28 228 l 97 228 l 97 853 l 28 853 l 28 1081 l 556 1081 l 556 853 l 486 853 l 486 228 l 556 228 l 556 0 l 28 0 m 201 1164 l -25 1282 l -25 1318 l 324 1318 l 475 1185 l 475 1164 l 201 1164 z "},"Ỉ":{"ha":583,"x_min":28,"x_max":556,"o":"m 28 0 l 28 228 l 97 228 l 97 853 l 28 853 l 28 1081 l 556 1081 l 556 853 l 486 853 l 486 228 l 556 228 l 556 0 l 28 0 m 242 1201 q 275 1245 265 1226 q 285 1290 285 1264 q 266 1338 285 1319 q 214 1356 247 1356 q 151 1347 185 1356 l 151 1451 q 279 1472 214 1472 q 397 1435 354 1472 q 439 1333 439 1399 q 299 1143 439 1232 l 242 1201 z "},"Ȋ":{"ha":583,"x_min":-3,"x_max":586,"o":"m 28 0 l 28 228 l 97 228 l 97 853 l 28 853 l 28 1081 l 556 1081 l 556 853 l 486 853 l 486 228 l 556 228 l 556 0 l 28 0 m -3 1178 q 75 1328 -3 1274 q 292 1382 153 1382 q 508 1328 431 1382 q 586 1178 586 1274 l 586 1164 l 379 1164 l 379 1178 q 292 1240 379 1240 q 204 1178 204 1240 l 204 1164 l -3 1164 l -3 1178 z "},"Ī":{"ha":583,"x_min":28,"x_max":556,"o":"m 28 0 l 28 228 l 97 228 l 97 853 l 28 853 l 28 1081 l 556 1081 l 556 853 l 486 853 l 486 228 l 556 228 l 556 0 l 28 0 m 43 1167 l 43 1303 l 540 1303 l 540 1167 l 43 1167 z "},"Į":{"ha":583,"x_min":28,"x_max":556,"o":"m 486 853 l 486 228 l 556 228 l 556 0 l 356 0 q 324 -81 324 -42 q 347 -140 324 -118 q 413 -161 371 -161 q 496 -149 457 -161 l 496 -267 q 357 -300 429 -300 q 222 -260 271 -300 q 174 -149 174 -221 q 190 -71 174 -110 q 233 0 206 -32 l 28 0 l 28 228 l 97 228 l 97 853 l 28 853 l 28 1081 l 556 1081 l 556 853 l 486 853 z "},"Ĩ":{"ha":583,"x_min":-44,"x_max":628,"o":"m 28 0 l 28 228 l 97 228 l 97 853 l 28 853 l 28 1081 l 556 1081 l 556 853 l 486 853 l 486 228 l 556 228 l 556 0 l 28 0 m 447 1164 q 370 1171 410 1164 q 275 1192 331 1178 q 183 1210 217 1204 q 117 1217 150 1217 q 57 1202 81 1217 q 33 1165 33 1188 l -44 1165 q -6 1333 -44 1282 q 136 1383 32 1383 q 224 1376 182 1383 q 321 1356 265 1369 q 404 1339 374 1344 q 467 1333 435 1333 q 528 1346 506 1333 q 550 1382 550 1358 l 628 1382 q 613 1258 628 1304 q 558 1188 597 1211 q 447 1164 519 1164 z "},"J":{"ha":925,"x_min":17,"x_max":900,"o":"m 379 -19 q 176 5 272 -19 q 17 72 81 29 l 17 317 l 294 317 l 294 303 q 367 228 294 228 q 423 248 404 228 q 442 311 442 268 l 442 853 l 317 853 l 317 1081 l 900 1081 l 900 853 l 831 853 l 831 386 q 711 81 831 182 q 379 -19 592 -19 z "},"Ĵ":{"ha":925,"x_min":17,"x_max":986,"o":"m 379 -19 q 176 5 272 -19 q 17 72 81 29 l 17 317 l 294 317 l 294 303 q 367 228 294 228 q 423 248 404 228 q 442 311 442 268 l 442 853 l 317 853 l 317 1081 l 900 1081 l 900 853 l 831 853 l 831 386 q 711 81 831 182 q 379 -19 592 -19 m 286 1164 l 286 1185 l 463 1360 l 810 1360 l 986 1185 l 986 1164 l 772 1164 l 643 1276 l 629 1276 l 500 1164 l 286 1164 z "},"K":{"ha":1160,"x_min":28,"x_max":1138,"o":"m 1068 228 l 1138 228 l 1138 0 l 758 0 l 550 431 l 486 378 l 486 228 l 553 228 l 553 0 l 28 0 l 28 228 l 97 228 l 97 853 l 28 853 l 28 1081 l 553 1081 l 553 853 l 486 853 l 486 669 l 701 853 l 614 853 l 614 1081 l 1131 1081 l 1131 853 l 1061 853 l 829 661 l 1068 228 z "},"Ķ":{"ha":1160,"x_min":28,"x_max":1138,"o":"m 1068 228 l 1138 228 l 1138 0 l 758 0 l 550 431 l 486 378 l 486 228 l 553 228 l 553 0 l 28 0 l 28 228 l 97 228 l 97 853 l 28 853 l 28 1081 l 553 1081 l 553 853 l 486 853 l 486 669 l 701 853 l 614 853 l 614 1081 l 1131 1081 l 1131 853 l 1061 853 l 829 661 l 1068 228 m 493 -437 l 538 -281 l 481 -281 l 481 -83 l 689 -83 l 689 -281 l 613 -437 l 493 -437 z "},"L":{"ha":907,"x_min":28,"x_max":888,"o":"m 28 0 l 28 228 l 97 228 l 97 853 l 28 853 l 28 1081 l 614 1081 l 614 853 l 486 853 l 486 228 l 611 228 l 611 356 l 888 356 l 888 0 l 28 0 z "},"Ǉ":{"ha":1832,"x_min":28,"x_max":1807,"o":"m 28 0 l 28 228 l 97 228 l 97 853 l 28 853 l 28 1081 l 614 1081 l 614 853 l 486 853 l 486 228 l 611 228 l 611 356 l 888 356 l 888 0 l 28 0 m 1286 -19 q 1083 5 1179 -19 q 924 72 988 29 l 924 317 l 1201 317 l 1201 303 q 1274 228 1201 228 q 1330 248 1311 228 q 1349 311 1349 268 l 1349 853 l 1224 853 l 1224 1081 l 1807 1081 l 1807 853 l 1738 853 l 1738 386 q 1618 81 1738 182 q 1286 -19 1499 -19 z "},"Ĺ":{"ha":907,"x_min":28,"x_max":888,"o":"m 28 0 l 28 228 l 97 228 l 97 853 l 28 853 l 28 1081 l 614 1081 l 614 853 l 486 853 l 486 228 l 611 228 l 611 356 l 888 356 l 888 0 l 28 0 m 111 1164 l 111 1185 l 263 1318 l 611 1318 l 611 1282 l 385 1164 l 111 1164 z "},"Ľ":{"ha":913,"x_min":28,"x_max":888,"o":"m 28 0 l 28 228 l 97 228 l 97 853 l 28 853 l 28 1081 l 614 1081 l 614 853 l 486 853 l 486 228 l 611 228 l 611 356 l 888 356 l 888 0 l 28 0 m 674 765 l 674 1081 l 888 1081 l 888 1043 l 840 765 l 674 765 z "},"Ļ":{"ha":907,"x_min":28,"x_max":888,"o":"m 28 0 l 28 228 l 97 228 l 97 853 l 28 853 l 28 1081 l 614 1081 l 614 853 l 486 853 l 486 228 l 611 228 l 611 356 l 888 356 l 888 0 l 28 0 m 363 -437 l 407 -281 l 350 -281 l 350 -83 l 558 -83 l 558 -281 l 482 -437 l 363 -437 z "},"Ŀ":{"ha":907,"x_min":28,"x_max":888,"o":"m 28 0 l 28 228 l 97 228 l 97 853 l 28 853 l 28 1081 l 614 1081 l 614 853 l 486 853 l 486 228 l 611 228 l 611 356 l 888 356 l 888 0 l 28 0 m 633 506 l 633 731 l 864 731 l 864 506 l 633 506 z "},"Ḷ":{"ha":907,"x_min":28,"x_max":888,"o":"m 28 0 l 28 228 l 97 228 l 97 853 l 28 853 l 28 1081 l 614 1081 l 614 853 l 486 853 l 486 228 l 611 228 l 611 356 l 888 356 l 888 0 l 28 0 m 332 -311 l 332 -97 l 576 -97 l 576 -311 l 332 -311 z "},"ǈ":{"ha":1342,"x_min":28,"x_max":1306,"o":"m 28 0 l 28 228 l 97 228 l 97 853 l 28 853 l 28 1081 l 614 1081 l 614 853 l 486 853 l 486 228 l 611 228 l 611 356 l 888 356 l 888 0 l 28 0 m 992 849 l 992 1081 l 1275 1081 l 1275 849 l 992 849 m 982 -328 q 865 -318 925 -328 q 763 -297 804 -308 l 763 -71 q 879 -81 828 -81 q 986 19 986 -81 l 986 544 l 893 544 l 893 772 l 1306 772 l 1306 47 q 1225 -235 1306 -143 q 982 -328 1144 -328 z "},"Ḻ":{"ha":907,"x_min":28,"x_max":888,"o":"m 28 0 l 28 228 l 97 228 l 97 853 l 28 853 l 28 1081 l 614 1081 l 614 853 l 486 853 l 486 228 l 611 228 l 611 356 l 888 356 l 888 0 l 28 0 m 204 -261 l 204 -111 l 701 -111 l 701 -261 l 204 -261 z "},"Ł":{"ha":932,"x_min":-14,"x_max":888,"o":"m 611 356 l 888 356 l 888 0 l 28 0 l 28 228 l 97 228 l 97 339 l 14 308 l -14 308 l -14 476 l 97 517 l 97 853 l 28 853 l 28 1081 l 614 1081 l 614 853 l 486 853 l 486 657 l 793 768 l 821 768 l 821 600 l 486 479 l 486 228 l 611 228 l 611 356 z "},"M":{"ha":1588,"x_min":28,"x_max":1560,"o":"m 1560 853 l 1490 853 l 1490 228 l 1560 228 l 1560 0 l 1035 0 l 1035 228 l 1101 228 l 1101 714 l 865 0 l 660 0 l 417 707 l 417 228 l 483 228 l 483 0 l 28 0 l 28 228 l 97 228 l 97 853 l 28 853 l 28 1081 l 664 1081 l 808 647 l 947 1081 l 1560 1081 l 1560 853 z "},"Ṃ":{"ha":1588,"x_min":28,"x_max":1560,"o":"m 1560 853 l 1490 853 l 1490 228 l 1560 228 l 1560 0 l 1035 0 l 1035 228 l 1101 228 l 1101 714 l 865 0 l 660 0 l 417 707 l 417 228 l 483 228 l 483 0 l 28 0 l 28 228 l 97 228 l 97 853 l 28 853 l 28 1081 l 664 1081 l 808 647 l 947 1081 l 1560 1081 l 1560 853 m 640 -311 l 640 -97 l 885 -97 l 885 -311 l 640 -311 z "},"N":{"ha":1308,"x_min":28,"x_max":1283,"o":"m 828 1081 l 1283 1081 l 1283 853 l 1214 853 l 1214 0 l 824 0 l 417 626 l 417 228 l 483 228 l 483 0 l 28 0 l 28 228 l 97 228 l 97 853 l 28 853 l 28 1081 l 529 1081 l 894 524 l 894 853 l 828 853 l 828 1081 z "},"Ǌ":{"ha":2233,"x_min":28,"x_max":2208,"o":"m 828 1081 l 1283 1081 l 1283 853 l 1214 853 l 1214 0 l 824 0 l 417 626 l 417 228 l 483 228 l 483 0 l 28 0 l 28 228 l 97 228 l 97 853 l 28 853 l 28 1081 l 529 1081 l 894 524 l 894 853 l 828 853 l 828 1081 m 1688 -19 q 1485 5 1581 -19 q 1325 72 1389 29 l 1325 317 l 1603 317 l 1603 303 q 1675 228 1603 228 q 1731 248 1713 228 q 1750 311 1750 268 l 1750 853 l 1625 853 l 1625 1081 l 2208 1081 l 2208 853 l 2139 853 l 2139 386 q 2019 81 2139 182 q 1688 -19 1900 -19 z "},"Ń":{"ha":1308,"x_min":28,"x_max":1283,"o":"m 828 1081 l 1283 1081 l 1283 853 l 1214 853 l 1214 0 l 824 0 l 417 626 l 417 228 l 483 228 l 483 0 l 28 0 l 28 228 l 97 228 l 97 853 l 28 853 l 28 1081 l 529 1081 l 894 524 l 894 853 l 828 853 l 828 1081 m 488 1164 l 488 1185 l 639 1318 l 988 1318 l 988 1282 l 761 1164 l 488 1164 z "},"Ň":{"ha":1308,"x_min":28,"x_max":1283,"o":"m 828 1081 l 1283 1081 l 1283 853 l 1214 853 l 1214 0 l 824 0 l 417 626 l 417 228 l 483 228 l 483 0 l 28 0 l 28 228 l 97 228 l 97 853 l 28 853 l 28 1081 l 529 1081 l 894 524 l 894 853 l 828 853 l 828 1081 m 494 1164 l 318 1339 l 318 1360 l 532 1360 l 661 1247 l 675 1247 l 804 1360 l 1018 1360 l 1018 1339 l 842 1164 l 494 1164 z "},"Ņ":{"ha":1308,"x_min":28,"x_max":1283,"o":"m 828 1081 l 1283 1081 l 1283 853 l 1214 853 l 1214 0 l 824 0 l 417 626 l 417 228 l 483 228 l 483 0 l 28 0 l 28 228 l 97 228 l 97 853 l 28 853 l 28 1081 l 529 1081 l 894 524 l 894 853 l 828 853 l 828 1081 m 565 -437 l 610 -281 l 553 -281 l 553 -83 l 761 -83 l 761 -281 l 685 -437 l 565 -437 z "},"Ṅ":{"ha":1308,"x_min":28,"x_max":1283,"o":"m 828 1081 l 1283 1081 l 1283 853 l 1214 853 l 1214 0 l 824 0 l 417 626 l 417 228 l 483 228 l 483 0 l 28 0 l 28 228 l 97 228 l 97 853 l 28 853 l 28 1081 l 529 1081 l 894 524 l 894 853 l 828 853 l 828 1081 m 540 1178 l 540 1354 l 796 1354 l 796 1178 l 540 1178 z "},"Ṇ":{"ha":1308,"x_min":28,"x_max":1283,"o":"m 828 1081 l 1283 1081 l 1283 853 l 1214 853 l 1214 0 l 824 0 l 417 626 l 417 228 l 483 228 l 483 0 l 28 0 l 28 228 l 97 228 l 97 853 l 28 853 l 28 1081 l 529 1081 l 894 524 l 894 853 l 828 853 l 828 1081 m 535 -311 l 535 -97 l 779 -97 l 779 -311 l 535 -311 z "},"Ŋ":{"ha":1106,"x_min":28,"x_max":1064,"o":"m 771 1100 q 997 1004 931 1100 q 1064 729 1064 908 l 1064 128 q 944 -218 1064 -100 q 597 -336 824 -336 q 310 -289 444 -336 l 310 -83 q 488 -111 406 -111 q 628 -68 582 -111 q 675 65 675 -25 l 675 660 q 652 738 675 713 q 582 763 629 763 q 510 738 535 763 q 486 660 486 713 l 486 0 l 28 0 l 28 228 l 97 228 l 97 853 l 28 853 l 28 1081 l 486 1081 l 486 938 q 611 1058 542 1015 q 771 1100 681 1100 z "},"ǋ":{"ha":1743,"x_min":28,"x_max":1707,"o":"m 828 1081 l 1283 1081 l 1283 853 l 1214 853 l 1214 0 l 824 0 l 417 626 l 417 228 l 483 228 l 483 0 l 28 0 l 28 228 l 97 228 l 97 853 l 28 853 l 28 1081 l 529 1081 l 894 524 l 894 853 l 828 853 l 828 1081 m 1393 849 l 1393 1081 l 1676 1081 l 1676 849 l 1393 849 m 1383 -328 q 1266 -318 1326 -328 q 1164 -297 1206 -308 l 1164 -71 q 1281 -81 1229 -81 q 1388 19 1388 -81 l 1388 544 l 1294 544 l 1294 772 l 1707 772 l 1707 47 q 1626 -235 1707 -143 q 1383 -328 1546 -328 z "},"Ṉ":{"ha":1308,"x_min":28,"x_max":1283,"o":"m 828 1081 l 1283 1081 l 1283 853 l 1214 853 l 1214 0 l 824 0 l 417 626 l 417 228 l 483 228 l 483 0 l 28 0 l 28 228 l 97 228 l 97 853 l 28 853 l 28 1081 l 529 1081 l 894 524 l 894 853 l 828 853 l 828 1081 m 407 -261 l 407 -111 l 904 -111 l 904 -261 l 407 -261 z "},"Ñ":{"ha":1308,"x_min":28,"x_max":1283,"o":"m 828 1081 l 1283 1081 l 1283 853 l 1214 853 l 1214 0 l 824 0 l 417 626 l 417 228 l 483 228 l 483 0 l 28 0 l 28 228 l 97 228 l 97 853 l 28 853 l 28 1081 l 529 1081 l 894 524 l 894 853 l 828 853 l 828 1081 m 824 1164 q 747 1171 786 1164 q 651 1192 707 1178 q 560 1210 593 1204 q 493 1217 526 1217 q 433 1202 457 1217 q 410 1165 410 1188 l 332 1165 q 370 1333 332 1282 q 513 1383 408 1383 q 600 1376 558 1383 q 697 1356 642 1369 q 781 1339 750 1344 q 843 1333 811 1333 q 904 1346 882 1333 q 926 1382 926 1358 l 1004 1382 q 989 1258 1004 1304 q 935 1188 974 1211 q 824 1164 896 1164 z "},"O":{"ha":1100,"x_min":19,"x_max":1081,"o":"m 550 -19 q 158 114 296 -19 q 19 540 19 247 q 158 967 19 833 q 550 1100 296 1100 q 942 967 804 1100 q 1081 540 1081 833 q 942 114 1081 247 q 550 -19 804 -19 m 550 228 q 621 253 597 228 q 644 331 644 278 l 644 750 q 621 828 644 803 q 550 853 597 853 q 479 828 503 853 q 456 750 456 803 l 456 331 q 479 252 456 276 q 550 228 503 228 z "},"Ó":{"ha":1100,"x_min":19,"x_max":1081,"o":"m 550 -19 q 158 114 296 -19 q 19 540 19 247 q 158 967 19 833 q 550 1100 296 1100 q 942 967 804 1100 q 1081 540 1081 833 q 942 114 1081 247 q 550 -19 804 -19 m 550 228 q 621 253 597 228 q 644 331 644 278 l 644 750 q 621 828 644 803 q 550 853 597 853 q 479 828 503 853 q 456 750 456 803 l 456 331 q 479 252 456 276 q 550 228 503 228 m 369 1164 l 369 1185 l 521 1318 l 869 1318 l 869 1282 l 643 1164 l 369 1164 z "},"Ŏ":{"ha":1100,"x_min":19,"x_max":1081,"o":"m 550 -19 q 158 114 296 -19 q 19 540 19 247 q 158 967 19 833 q 550 1100 296 1100 q 942 967 804 1100 q 1081 540 1081 833 q 942 114 1081 247 q 550 -19 804 -19 m 550 228 q 621 253 597 228 q 644 331 644 278 l 644 750 q 621 828 644 803 q 550 853 597 853 q 479 828 503 853 q 456 750 456 803 l 456 331 q 479 252 456 276 q 550 228 503 228 m 550 1164 q 333 1218 411 1164 q 256 1368 256 1272 l 256 1382 l 463 1382 l 463 1368 q 550 1306 463 1306 q 638 1368 638 1306 l 638 1382 l 844 1382 l 844 1368 q 767 1218 844 1272 q 550 1164 689 1164 z "},"Ô":{"ha":1100,"x_min":19,"x_max":1081,"o":"m 550 -19 q 158 114 296 -19 q 19 540 19 247 q 158 967 19 833 q 550 1100 296 1100 q 942 967 804 1100 q 1081 540 1081 833 q 942 114 1081 247 q 550 -19 804 -19 m 550 228 q 621 253 597 228 q 644 331 644 278 l 644 750 q 621 828 644 803 q 550 853 597 853 q 479 828 503 853 q 456 750 456 803 l 456 331 q 479 252 456 276 q 550 228 503 228 m 200 1164 l 200 1185 l 376 1360 l 724 1360 l 900 1185 l 900 1164 l 686 1164 l 557 1276 l 543 1276 l 414 1164 l 200 1164 z "},"Ố":{"ha":1100,"x_min":19,"x_max":1081,"o":"m 550 -19 q 158 114 296 -19 q 19 540 19 247 q 158 967 19 833 q 550 1100 296 1100 q 942 967 804 1100 q 1081 540 1081 833 q 942 114 1081 247 q 550 -19 804 -19 m 550 228 q 621 253 597 228 q 644 331 644 278 l 644 750 q 621 828 644 803 q 550 853 597 853 q 479 828 503 853 q 456 750 456 803 l 456 331 q 479 252 456 276 q 550 228 503 228 m 842 1471 l 1079 1471 l 1079 1435 l 940 1303 l 774 1303 l 774 1324 l 842 1471 m 425 1367 l 675 1367 l 838 1178 l 838 1157 l 651 1157 l 550 1257 l 449 1157 l 263 1157 l 263 1178 l 425 1367 z "},"Ộ":{"ha":1100,"x_min":19,"x_max":1081,"o":"m 550 -19 q 158 114 296 -19 q 19 540 19 247 q 158 967 19 833 q 550 1100 296 1100 q 942 967 804 1100 q 1081 540 1081 833 q 942 114 1081 247 q 550 -19 804 -19 m 550 228 q 621 253 597 228 q 644 331 644 278 l 644 750 q 621 828 644 803 q 550 853 597 853 q 479 828 503 853 q 456 750 456 803 l 456 331 q 479 252 456 276 q 550 228 503 228 m 428 -311 l 428 -97 l 672 -97 l 672 -311 l 428 -311 m 200 1164 l 200 1185 l 376 1360 l 724 1360 l 900 1185 l 900 1164 l 686 1164 l 557 1276 l 543 1276 l 414 1164 l 200 1164 z "},"Ồ":{"ha":1100,"x_min":19,"x_max":1081,"o":"m 550 -19 q 158 114 296 -19 q 19 540 19 247 q 158 967 19 833 q 550 1100 296 1100 q 942 967 804 1100 q 1081 540 1081 833 q 942 114 1081 247 q 550 -19 804 -19 m 550 228 q 621 253 597 228 q 644 331 644 278 l 644 750 q 621 828 644 803 q 550 853 597 853 q 479 828 503 853 q 456 750 456 803 l 456 331 q 479 252 456 276 q 550 228 503 228 m 942 1464 l 1010 1317 l 1010 1296 l 843 1296 l 704 1428 l 704 1464 l 942 1464 m 425 1367 l 675 1367 l 838 1178 l 838 1157 l 651 1157 l 550 1257 l 449 1157 l 263 1157 l 263 1178 l 425 1367 z "},"Ổ":{"ha":1100,"x_min":19,"x_max":1081,"o":"m 550 -19 q 158 114 296 -19 q 19 540 19 247 q 158 967 19 833 q 550 1100 296 1100 q 942 967 804 1100 q 1081 540 1081 833 q 942 114 1081 247 q 550 -19 804 -19 m 550 228 q 621 253 597 228 q 644 331 644 278 l 644 750 q 621 828 644 803 q 550 853 597 853 q 479 828 503 853 q 456 750 456 803 l 456 331 q 479 252 456 276 q 550 228 503 228 m 794 1632 q 912 1595 869 1632 q 954 1493 954 1558 q 814 1303 954 1392 l 757 1361 q 790 1405 781 1386 q 800 1450 800 1424 q 781 1497 800 1479 q 729 1515 763 1515 q 667 1507 700 1515 l 667 1611 q 794 1632 729 1632 m 425 1367 l 675 1367 l 838 1178 l 838 1157 l 651 1157 l 550 1257 l 449 1157 l 263 1157 l 263 1178 l 425 1367 z "},"Ỗ":{"ha":1100,"x_min":19,"x_max":1081,"o":"m 550 -19 q 158 114 296 -19 q 19 540 19 247 q 158 967 19 833 q 550 1100 296 1100 q 942 967 804 1100 q 1081 540 1081 833 q 942 114 1081 247 q 550 -19 804 -19 m 550 228 q 621 253 597 228 q 644 331 644 278 l 644 750 q 621 828 644 803 q 550 853 597 853 q 479 828 503 853 q 456 750 456 803 l 456 331 q 479 252 456 276 q 550 228 503 228 m 407 1463 q 365 1449 381 1463 q 349 1411 349 1435 l 271 1411 q 310 1565 271 1515 q 439 1614 350 1614 q 498 1608 469 1614 q 574 1588 526 1601 q 606 1578 581 1586 q 653 1567 632 1571 q 693 1564 675 1564 q 736 1576 721 1564 q 751 1613 751 1589 l 829 1613 q 791 1459 829 1508 q 661 1410 753 1410 q 594 1417 626 1410 q 521 1438 563 1424 q 458 1456 482 1450 q 407 1463 433 1463 m 675 1367 l 838 1178 l 838 1157 l 651 1157 l 550 1257 l 449 1157 l 263 1157 l 263 1178 l 425 1367 l 675 1367 z "},"Ȍ":{"ha":1100,"x_min":19,"x_max":1081,"o":"m 550 -19 q 158 114 296 -19 q 19 540 19 247 q 158 967 19 833 q 550 1100 296 1100 q 942 967 804 1100 q 1081 540 1081 833 q 942 114 1081 247 q 550 -19 804 -19 m 550 228 q 621 253 597 228 q 644 331 644 278 l 644 750 q 621 828 644 803 q 550 853 597 853 q 479 828 503 853 q 456 750 456 803 l 456 331 q 479 252 456 276 q 550 228 503 228 m 292 1164 l 107 1282 l 107 1318 l 414 1318 l 496 1185 l 496 1164 l 292 1164 m 682 1164 l 497 1282 l 497 1318 l 804 1318 l 886 1185 l 886 1164 l 682 1164 z "},"Ö":{"ha":1100,"x_min":19,"x_max":1081,"o":"m 550 -19 q 158 114 296 -19 q 19 540 19 247 q 158 967 19 833 q 550 1100 296 1100 q 942 967 804 1100 q 1081 540 1081 833 q 942 114 1081 247 q 550 -19 804 -19 m 550 228 q 621 253 597 228 q 644 331 644 278 l 644 750 q 621 828 644 803 q 550 853 597 853 q 479 828 503 853 q 456 750 456 803 l 456 331 q 479 252 456 276 q 550 228 503 228 m 257 1164 l 257 1340 l 513 1340 l 513 1164 l 257 1164 m 588 1164 l 588 1340 l 843 1340 l 843 1164 l 588 1164 z "},"Ȫ":{"ha":1100,"x_min":19,"x_max":1081,"o":"m 550 -19 q 158 114 296 -19 q 19 540 19 247 q 158 967 19 833 q 550 1100 296 1100 q 942 967 804 1100 q 1081 540 1081 833 q 942 114 1081 247 q 550 -19 804 -19 m 550 228 q 621 253 597 228 q 644 331 644 278 l 644 750 q 621 828 644 803 q 550 853 597 853 q 479 828 503 853 q 456 750 456 803 l 456 331 q 479 252 456 276 q 550 228 503 228 m 257 1178 l 257 1410 l 489 1410 l 489 1178 l 257 1178 m 613 1178 l 613 1410 l 843 1410 l 843 1178 l 613 1178 m 301 1519 l 301 1683 l 799 1683 l 799 1519 l 301 1519 z "},"Ȱ":{"ha":1100,"x_min":19,"x_max":1081,"o":"m 550 -19 q 158 114 296 -19 q 19 540 19 247 q 158 967 19 833 q 550 1100 296 1100 q 942 967 804 1100 q 1081 540 1081 833 q 942 114 1081 247 q 550 -19 804 -19 m 550 228 q 621 253 597 228 q 644 331 644 278 l 644 750 q 621 828 644 803 q 550 853 597 853 q 479 828 503 853 q 456 750 456 803 l 456 331 q 479 252 456 276 q 550 228 503 228 m 422 1178 l 422 1354 l 678 1354 l 678 1178 l 422 1178 m 301 1426 l 301 1563 l 799 1563 l 799 1426 l 301 1426 z "},"Ọ":{"ha":1100,"x_min":19,"x_max":1081,"o":"m 550 -19 q 158 114 296 -19 q 19 540 19 247 q 158 967 19 833 q 550 1100 296 1100 q 942 967 804 1100 q 1081 540 1081 833 q 942 114 1081 247 q 550 -19 804 -19 m 550 228 q 621 253 597 228 q 644 331 644 278 l 644 750 q 621 828 644 803 q 550 853 597 853 q 479 828 503 853 q 456 750 456 803 l 456 331 q 479 252 456 276 q 550 228 503 228 m 428 -311 l 428 -97 l 672 -97 l 672 -311 l 428 -311 z "},"Ò":{"ha":1100,"x_min":19,"x_max":1081,"o":"m 550 -19 q 158 114 296 -19 q 19 540 19 247 q 158 967 19 833 q 550 1100 296 1100 q 942 967 804 1100 q 1081 540 1081 833 q 942 114 1081 247 q 550 -19 804 -19 m 550 228 q 621 253 597 228 q 644 331 644 278 l 644 750 q 621 828 644 803 q 550 853 597 853 q 479 828 503 853 q 456 750 456 803 l 456 331 q 479 252 456 276 q 550 228 503 228 m 460 1164 l 233 1282 l 233 1318 l 582 1318 l 733 1185 l 733 1164 l 460 1164 z "},"Ỏ":{"ha":1100,"x_min":19,"x_max":1081,"o":"m 550 -19 q 158 114 296 -19 q 19 540 19 247 q 158 967 19 833 q 550 1100 296 1100 q 942 967 804 1100 q 1081 540 1081 833 q 942 114 1081 247 q 550 -19 804 -19 m 550 228 q 621 253 597 228 q 644 331 644 278 l 644 750 q 621 828 644 803 q 550 853 597 853 q 479 828 503 853 q 456 750 456 803 l 456 331 q 479 252 456 276 q 550 228 503 228 m 500 1201 q 533 1245 524 1226 q 543 1290 543 1264 q 524 1338 543 1319 q 472 1356 506 1356 q 410 1347 443 1356 l 410 1451 q 538 1472 472 1472 q 655 1435 613 1472 q 697 1333 697 1399 q 557 1143 697 1232 l 500 1201 z "},"Ơ":{"ha":1100,"x_min":19,"x_max":1081,"o":"m 926 982 q 1081 540 1081 843 q 942 114 1081 247 q 550 -19 804 -19 q 158 114 296 -19 q 19 540 19 247 q 157 965 19 831 q 536 1100 294 1100 q 681 1089 608 1100 q 772 1081 742 1081 q 856 1199 856 1081 l 856 1240 l 1063 1240 l 1063 1199 q 1028 1067 1063 1122 q 926 982 993 1011 m 644 750 q 621 828 644 803 q 550 853 597 853 q 479 828 503 853 q 456 750 456 803 l 456 331 q 479 252 456 276 q 550 228 503 228 q 621 253 597 228 q 644 331 644 278 l 644 750 z "},"Ớ":{"ha":1100,"x_min":19,"x_max":1081,"o":"m 926 982 q 1081 540 1081 843 q 942 114 1081 247 q 550 -19 804 -19 q 158 114 296 -19 q 19 540 19 247 q 157 965 19 831 q 536 1100 294 1100 q 681 1089 608 1100 q 772 1081 742 1081 q 856 1199 856 1081 l 856 1240 l 1063 1240 l 1063 1199 q 1028 1067 1063 1122 q 926 982 993 1011 m 644 750 q 621 828 644 803 q 550 853 597 853 q 479 828 503 853 q 456 750 456 803 l 456 331 q 479 252 456 276 q 550 228 503 228 q 621 253 597 228 q 644 331 644 278 l 644 750 m 369 1164 l 369 1185 l 521 1318 l 869 1318 l 869 1282 l 643 1164 l 369 1164 z "},"Ợ":{"ha":1100,"x_min":19,"x_max":1081,"o":"m 926 982 q 1081 540 1081 843 q 942 114 1081 247 q 550 -19 804 -19 q 158 114 296 -19 q 19 540 19 247 q 157 965 19 831 q 536 1100 294 1100 q 681 1089 608 1100 q 772 1081 742 1081 q 856 1199 856 1081 l 856 1240 l 1063 1240 l 1063 1199 q 1028 1067 1063 1122 q 926 982 993 1011 m 644 750 q 621 828 644 803 q 550 853 597 853 q 479 828 503 853 q 456 750 456 803 l 456 331 q 479 252 456 276 q 550 228 503 228 q 621 253 597 228 q 644 331 644 278 l 644 750 m 428 -311 l 428 -97 l 672 -97 l 672 -311 l 428 -311 z "},"Ờ":{"ha":1100,"x_min":19,"x_max":1081,"o":"m 926 982 q 1081 540 1081 843 q 942 114 1081 247 q 550 -19 804 -19 q 158 114 296 -19 q 19 540 19 247 q 157 965 19 831 q 536 1100 294 1100 q 681 1089 608 1100 q 772 1081 742 1081 q 856 1199 856 1081 l 856 1240 l 1063 1240 l 1063 1199 q 1028 1067 1063 1122 q 926 982 993 1011 m 644 750 q 621 828 644 803 q 550 853 597 853 q 479 828 503 853 q 456 750 456 803 l 456 331 q 479 252 456 276 q 550 228 503 228 q 621 253 597 228 q 644 331 644 278 l 644 750 m 460 1164 l 233 1282 l 233 1318 l 582 1318 l 733 1185 l 733 1164 l 460 1164 z "},"Ở":{"ha":1100,"x_min":19,"x_max":1081,"o":"m 926 982 q 1081 540 1081 843 q 942 114 1081 247 q 550 -19 804 -19 q 158 114 296 -19 q 19 540 19 247 q 157 965 19 831 q 536 1100 294 1100 q 681 1089 608 1100 q 772 1081 742 1081 q 856 1199 856 1081 l 856 1240 l 1063 1240 l 1063 1199 q 1028 1067 1063 1122 q 926 982 993 1011 m 644 750 q 621 828 644 803 q 550 853 597 853 q 479 828 503 853 q 456 750 456 803 l 456 331 q 479 252 456 276 q 550 228 503 228 q 621 253 597 228 q 644 331 644 278 l 644 750 m 500 1201 q 533 1245 524 1226 q 543 1290 543 1264 q 524 1338 543 1319 q 472 1356 506 1356 q 410 1347 443 1356 l 410 1451 q 538 1472 472 1472 q 655 1435 613 1472 q 697 1333 697 1399 q 557 1143 697 1232 l 500 1201 z "},"Ỡ":{"ha":1100,"x_min":19,"x_max":1081,"o":"m 414 1217 q 374 1202 390 1217 q 358 1165 358 1188 l 281 1165 q 319 1320 281 1271 q 447 1369 358 1369 q 571 1343 497 1369 q 601 1334 578 1342 q 645 1323 625 1326 q 683 1319 665 1319 q 724 1333 710 1319 q 739 1368 739 1346 l 817 1368 q 778 1213 817 1263 q 650 1164 740 1164 q 594 1170 619 1164 q 547 1183 568 1176 q 519 1192 526 1190 q 461 1210 483 1204 q 414 1217 439 1217 m 926 982 q 1081 540 1081 843 q 942 114 1081 247 q 550 -19 804 -19 q 158 114 296 -19 q 19 540 19 247 q 157 965 19 831 q 536 1100 294 1100 q 681 1089 608 1100 q 772 1081 742 1081 q 856 1199 856 1081 l 856 1240 l 1063 1240 l 1063 1199 q 1028 1067 1063 1122 q 926 982 993 1011 m 644 750 q 621 828 644 803 q 550 853 597 853 q 479 828 503 853 q 456 750 456 803 l 456 331 q 479 252 456 276 q 550 228 503 228 q 621 253 597 228 q 644 331 644 278 l 644 750 z "},"Ő":{"ha":1100,"x_min":19,"x_max":1081,"o":"m 550 -19 q 158 114 296 -19 q 19 540 19 247 q 158 967 19 833 q 550 1100 296 1100 q 942 967 804 1100 q 1081 540 1081 833 q 942 114 1081 247 q 550 -19 804 -19 m 550 228 q 621 253 597 228 q 644 331 644 278 l 644 750 q 621 828 644 803 q 550 853 597 853 q 479 828 503 853 q 456 750 456 803 l 456 331 q 479 252 456 276 q 550 228 503 228 m 288 1164 l 288 1185 l 356 1396 l 611 1396 l 611 1358 l 454 1164 l 288 1164 m 604 1164 l 604 1185 l 672 1396 l 928 1396 l 928 1358 l 771 1164 l 604 1164 z "},"Ȏ":{"ha":1100,"x_min":19,"x_max":1081,"o":"m 550 -19 q 158 114 296 -19 q 19 540 19 247 q 158 967 19 833 q 550 1100 296 1100 q 942 967 804 1100 q 1081 540 1081 833 q 942 114 1081 247 q 550 -19 804 -19 m 550 228 q 621 253 597 228 q 644 331 644 278 l 644 750 q 621 828 644 803 q 550 853 597 853 q 479 828 503 853 q 456 750 456 803 l 456 331 q 479 252 456 276 q 550 228 503 228 m 256 1178 q 333 1328 256 1274 q 550 1382 411 1382 q 767 1328 689 1382 q 844 1178 844 1274 l 844 1164 l 638 1164 l 638 1178 q 550 1240 638 1240 q 463 1178 463 1240 l 463 1164 l 256 1164 l 256 1178 z "},"Ō":{"ha":1100,"x_min":19,"x_max":1081,"o":"m 550 -19 q 158 114 296 -19 q 19 540 19 247 q 158 967 19 833 q 550 1100 296 1100 q 942 967 804 1100 q 1081 540 1081 833 q 942 114 1081 247 q 550 -19 804 -19 m 550 228 q 621 253 597 228 q 644 331 644 278 l 644 750 q 621 828 644 803 q 550 853 597 853 q 479 828 503 853 q 456 750 456 803 l 456 331 q 479 252 456 276 q 550 228 503 228 m 301 1167 l 301 1303 l 799 1303 l 799 1167 l 301 1167 z "},"Ṓ":{"ha":1100,"x_min":19,"x_max":1081,"o":"m 550 -19 q 158 114 296 -19 q 19 540 19 247 q 158 967 19 833 q 550 1100 296 1100 q 942 967 804 1100 q 1081 540 1081 833 q 942 114 1081 247 q 550 -19 804 -19 m 550 228 q 621 253 597 228 q 644 331 644 278 l 644 750 q 621 828 644 803 q 550 853 597 853 q 479 828 503 853 q 456 750 456 803 l 456 331 q 479 252 456 276 q 550 228 503 228 m 301 1167 l 301 1303 l 799 1303 l 799 1167 l 301 1167 m 369 1379 l 369 1400 l 521 1533 l 869 1533 l 869 1497 l 643 1379 l 369 1379 z "},"Ṑ":{"ha":1100,"x_min":19,"x_max":1081,"o":"m 550 -19 q 158 114 296 -19 q 19 540 19 247 q 158 967 19 833 q 550 1100 296 1100 q 942 967 804 1100 q 1081 540 1081 833 q 942 114 1081 247 q 550 -19 804 -19 m 550 228 q 621 253 597 228 q 644 331 644 278 l 644 750 q 621 828 644 803 q 550 853 597 853 q 479 828 503 853 q 456 750 456 803 l 456 331 q 479 252 456 276 q 550 228 503 228 m 301 1167 l 301 1303 l 799 1303 l 799 1167 l 301 1167 m 460 1379 l 233 1497 l 233 1533 l 582 1533 l 733 1400 l 733 1379 l 460 1379 z "},"Ǫ":{"ha":1100,"x_min":19,"x_max":1081,"o":"m 1081 540 q 626 -17 1081 22 q 607 -81 607 -51 q 631 -140 607 -118 q 696 -161 654 -161 q 779 -149 740 -161 l 779 -267 q 640 -300 713 -300 q 506 -260 554 -300 q 457 -149 457 -221 q 501 -18 457 -83 q 19 540 19 7 q 158 967 19 833 q 550 1100 296 1100 q 942 967 804 1100 q 1081 540 1081 833 m 456 331 q 479 252 456 276 q 550 228 503 228 q 621 253 597 228 q 644 331 644 278 l 644 750 q 621 828 644 803 q 550 853 597 853 q 479 828 503 853 q 456 750 456 803 l 456 331 z "},"Ø":{"ha":1100,"x_min":19,"x_max":1081,"o":"m 974 931 q 1081 540 1081 793 q 942 114 1081 247 q 550 -19 804 -19 q 233 56 357 -19 l 186 0 l 33 0 l 33 42 l 125 150 q 19 540 19 290 q 158 967 19 833 q 550 1100 296 1100 q 867 1026 746 1100 l 914 1082 l 1067 1082 l 1067 1040 l 974 931 m 447 531 l 653 772 q 624 840 649 818 q 550 861 599 861 q 473 836 499 861 q 447 758 447 811 l 447 531 m 550 219 q 627 244 601 219 q 653 322 653 269 l 653 551 l 447 308 q 476 240 450 261 q 550 219 501 219 z "},"Ǿ":{"ha":1100,"x_min":19,"x_max":1081,"o":"m 974 931 q 1081 540 1081 793 q 942 114 1081 247 q 550 -19 804 -19 q 233 56 357 -19 l 186 0 l 33 0 l 33 42 l 125 150 q 19 540 19 290 q 158 967 19 833 q 550 1100 296 1100 q 867 1026 746 1100 l 914 1082 l 1067 1082 l 1067 1040 l 974 931 m 447 531 l 653 772 q 624 840 649 818 q 550 861 599 861 q 473 836 499 861 q 447 758 447 811 l 447 531 m 550 219 q 627 244 601 219 q 653 322 653 269 l 653 551 l 447 308 q 476 240 450 261 q 550 219 501 219 m 368 1164 l 368 1185 l 519 1318 l 868 1318 l 868 1282 l 642 1164 l 368 1164 z "},"Õ":{"ha":1100,"x_min":19,"x_max":1081,"o":"m 550 -19 q 158 114 296 -19 q 19 540 19 247 q 158 967 19 833 q 550 1100 296 1100 q 942 967 804 1100 q 1081 540 1081 833 q 942 114 1081 247 q 550 -19 804 -19 m 550 228 q 621 253 597 228 q 644 331 644 278 l 644 750 q 621 828 644 803 q 550 853 597 853 q 479 828 503 853 q 456 750 456 803 l 456 331 q 479 252 456 276 q 550 228 503 228 m 706 1164 q 628 1171 668 1164 q 533 1192 589 1178 q 442 1210 475 1204 q 375 1217 408 1217 q 315 1202 339 1217 q 292 1165 292 1188 l 214 1165 q 252 1333 214 1282 q 394 1383 290 1383 q 482 1376 440 1383 q 579 1356 524 1369 q 663 1339 632 1344 q 725 1333 693 1333 q 786 1346 764 1333 q 808 1382 808 1358 l 886 1382 q 871 1258 886 1304 q 817 1188 856 1211 q 706 1164 778 1164 z "},"Ṍ":{"ha":1100,"x_min":19,"x_max":1081,"o":"m 550 -19 q 158 114 296 -19 q 19 540 19 247 q 158 967 19 833 q 550 1100 296 1100 q 942 967 804 1100 q 1081 540 1081 833 q 942 114 1081 247 q 550 -19 804 -19 m 550 228 q 621 253 597 228 q 644 331 644 278 l 644 750 q 621 828 644 803 q 550 853 597 853 q 479 828 503 853 q 456 750 456 803 l 456 331 q 479 252 456 276 q 550 228 503 228 m 706 1164 q 628 1171 668 1164 q 533 1192 589 1178 q 442 1210 475 1204 q 375 1217 408 1217 q 315 1202 339 1217 q 292 1165 292 1188 l 214 1165 q 252 1333 214 1282 q 394 1383 290 1383 q 482 1376 440 1383 q 579 1356 524 1369 q 663 1339 632 1344 q 725 1333 693 1333 q 786 1346 764 1333 q 808 1382 808 1358 l 886 1382 q 871 1258 886 1304 q 817 1188 856 1211 q 706 1164 778 1164 m 369 1467 l 369 1488 l 521 1621 l 869 1621 l 869 1585 l 643 1467 l 369 1467 z "},"Ṏ":{"ha":1100,"x_min":19,"x_max":1081,"o":"m 550 -19 q 158 114 296 -19 q 19 540 19 247 q 158 967 19 833 q 550 1100 296 1100 q 942 967 804 1100 q 1081 540 1081 833 q 942 114 1081 247 q 550 -19 804 -19 m 550 228 q 621 253 597 228 q 644 331 644 278 l 644 750 q 621 828 644 803 q 550 853 597 853 q 479 828 503 853 q 456 750 456 803 l 456 331 q 479 252 456 276 q 550 228 503 228 m 706 1164 q 628 1171 668 1164 q 533 1192 589 1178 q 442 1210 475 1204 q 375 1217 408 1217 q 315 1202 339 1217 q 292 1165 292 1188 l 214 1165 q 252 1333 214 1282 q 394 1383 290 1383 q 482 1376 440 1383 q 579 1356 524 1369 q 663 1339 632 1344 q 725 1333 693 1333 q 786 1346 764 1333 q 808 1382 808 1358 l 886 1382 q 871 1258 886 1304 q 817 1188 856 1211 q 706 1164 778 1164 m 257 1467 l 257 1643 l 513 1643 l 513 1467 l 257 1467 m 588 1467 l 588 1643 l 843 1643 l 843 1467 l 588 1467 z "},"Ȭ":{"ha":1100,"x_min":19,"x_max":1081,"o":"m 550 -19 q 158 114 296 -19 q 19 540 19 247 q 158 967 19 833 q 550 1100 296 1100 q 942 967 804 1100 q 1081 540 1081 833 q 942 114 1081 247 q 550 -19 804 -19 m 550 228 q 621 253 597 228 q 644 331 644 278 l 644 750 q 621 828 644 803 q 550 853 597 853 q 479 828 503 853 q 456 750 456 803 l 456 331 q 479 252 456 276 q 550 228 503 228 m 706 1164 q 628 1171 668 1164 q 533 1192 589 1178 q 442 1210 475 1204 q 375 1217 408 1217 q 315 1202 339 1217 q 292 1165 292 1188 l 214 1165 q 252 1333 214 1282 q 394 1383 290 1383 q 482 1376 440 1383 q 579 1356 524 1369 q 663 1339 632 1344 q 725 1333 693 1333 q 786 1346 764 1333 q 808 1382 808 1358 l 886 1382 q 871 1258 886 1304 q 817 1188 856 1211 q 706 1164 778 1164 m 301 1469 l 301 1606 l 799 1606 l 799 1469 l 301 1469 z "},"Œ":{"ha":1538,"x_min":19,"x_max":1513,"o":"m 1201 661 l 1201 853 l 1033 853 l 1033 633 l 1156 633 l 1156 475 l 1033 475 l 1033 228 l 1201 228 l 1201 447 l 1513 447 l 1513 0 l 732 0 q 550 -19 654 -19 q 158 114 296 -19 q 19 540 19 247 q 158 967 19 833 q 550 1100 296 1100 q 731 1081 653 1100 l 1513 1081 l 1513 661 l 1201 661 m 456 331 q 483 253 456 278 q 568 228 511 228 q 644 242 607 228 l 644 839 q 568 853 607 853 q 483 828 511 853 q 456 750 456 804 l 456 331 z "},"P":{"ha":1025,"x_min":28,"x_max":1006,"o":"m 28 228 l 97 228 l 97 853 l 28 853 l 28 1081 l 638 1081 q 911 1003 817 1081 q 1006 754 1006 926 q 911 505 1006 582 q 638 428 817 428 l 486 428 l 486 228 l 619 228 l 619 0 l 28 0 l 28 228 m 533 625 q 614 714 614 625 l 614 764 q 594 831 614 810 q 533 853 574 853 l 486 853 l 486 625 l 533 625 z "},"Þ":{"ha":1058,"x_min":39,"x_max":1003,"o":"m 675 790 q 916 738 829 790 q 1003 561 1003 686 q 675 318 1003 318 l 511 318 l 511 228 l 644 228 l 644 0 l 39 0 l 39 228 l 122 228 l 122 853 l 39 853 l 39 1081 l 594 1081 l 594 853 l 511 853 l 511 790 l 675 790 m 611 543 q 593 589 611 574 q 544 604 575 604 l 511 604 l 511 460 l 544 460 q 593 475 575 460 q 611 521 611 490 l 611 543 z "},"Q":{"ha":1125,"x_min":19,"x_max":1103,"o":"m 1103 -108 q 631 -90 808 -108 q 326 -13 454 -72 q 113 164 199 46 q 19 540 19 299 q 159 961 19 822 q 550 1100 299 1100 q 940 977 800 1100 q 1081 610 1081 854 q 1047 412 1081 504 q 929 242 1013 319 l 936 228 l 1103 228 l 1103 -108 m 550 228 q 644 331 644 228 l 644 750 q 550 853 644 853 q 456 750 456 853 l 456 331 q 550 228 456 228 z "},"R":{"ha":1111,"x_min":28,"x_max":1089,"o":"m 28 228 l 97 228 l 97 853 l 28 853 l 28 1081 l 665 1081 q 939 1007 844 1081 q 1033 768 1033 933 q 996 607 1033 675 q 889 513 958 539 l 890 499 q 1024 335 1024 478 l 1024 228 l 1089 228 l 1089 0 l 649 0 l 649 326 q 633 408 649 381 q 583 446 617 436 q 486 456 549 456 l 486 228 l 578 228 l 578 0 l 28 0 l 28 228 m 561 625 q 622 647 601 625 q 642 714 642 668 l 642 764 q 622 831 642 810 q 561 853 601 853 l 486 853 l 486 625 l 561 625 z "},"Ŕ":{"ha":1111,"x_min":28,"x_max":1089,"o":"m 28 228 l 97 228 l 97 853 l 28 853 l 28 1081 l 665 1081 q 939 1007 844 1081 q 1033 768 1033 933 q 996 607 1033 675 q 889 513 958 539 l 890 499 q 1024 335 1024 478 l 1024 228 l 1089 228 l 1089 0 l 649 0 l 649 326 q 633 408 649 381 q 583 446 617 436 q 486 456 549 456 l 486 228 l 578 228 l 578 0 l 28 0 l 28 228 m 561 625 q 622 647 601 625 q 642 714 642 668 l 642 764 q 622 831 642 810 q 561 853 601 853 l 486 853 l 486 625 l 561 625 m 343 1164 l 343 1185 l 494 1318 l 843 1318 l 843 1282 l 617 1164 l 343 1164 z "},"Ř":{"ha":1111,"x_min":28,"x_max":1089,"o":"m 28 228 l 97 228 l 97 853 l 28 853 l 28 1081 l 665 1081 q 939 1007 844 1081 q 1033 768 1033 933 q 996 607 1033 675 q 889 513 958 539 l 890 499 q 1024 335 1024 478 l 1024 228 l 1089 228 l 1089 0 l 649 0 l 649 326 q 633 408 649 381 q 583 446 617 436 q 486 456 549 456 l 486 228 l 578 228 l 578 0 l 28 0 l 28 228 m 561 625 q 622 647 601 625 q 642 714 642 668 l 642 764 q 622 831 642 810 q 561 853 601 853 l 486 853 l 486 625 l 561 625 m 350 1164 l 174 1339 l 174 1360 l 388 1360 l 517 1247 l 531 1247 l 660 1360 l 874 1360 l 874 1339 l 697 1164 l 350 1164 z "},"Ŗ":{"ha":1111,"x_min":28,"x_max":1089,"o":"m 28 228 l 97 228 l 97 853 l 28 853 l 28 1081 l 665 1081 q 939 1007 844 1081 q 1033 768 1033 933 q 996 607 1033 675 q 889 513 958 539 l 890 499 q 1024 335 1024 478 l 1024 228 l 1089 228 l 1089 0 l 649 0 l 649 326 q 633 408 649 381 q 583 446 617 436 q 486 456 549 456 l 486 228 l 578 228 l 578 0 l 28 0 l 28 228 m 561 625 q 622 647 601 625 q 642 714 642 668 l 642 764 q 622 831 642 810 q 561 853 601 853 l 486 853 l 486 625 l 561 625 m 486 -437 l 531 -281 l 474 -281 l 474 -83 l 682 -83 l 682 -281 l 606 -437 l 486 -437 z "},"Ȑ":{"ha":1111,"x_min":28,"x_max":1089,"o":"m 28 228 l 97 228 l 97 853 l 28 853 l 28 1081 l 665 1081 q 939 1007 844 1081 q 1033 768 1033 933 q 996 607 1033 675 q 889 513 958 539 l 890 499 q 1024 335 1024 478 l 1024 228 l 1089 228 l 1089 0 l 649 0 l 649 326 q 633 408 649 381 q 583 446 617 436 q 486 456 549 456 l 486 228 l 578 228 l 578 0 l 28 0 l 28 228 m 561 625 q 622 647 601 625 q 642 714 642 668 l 642 764 q 622 831 642 810 q 561 853 601 853 l 486 853 l 486 625 l 561 625 m 265 1164 l 81 1282 l 81 1318 l 388 1318 l 469 1185 l 469 1164 l 265 1164 m 656 1164 l 471 1282 l 471 1318 l 778 1318 l 860 1185 l 860 1164 l 656 1164 z "},"Ṛ":{"ha":1111,"x_min":28,"x_max":1089,"o":"m 28 228 l 97 228 l 97 853 l 28 853 l 28 1081 l 665 1081 q 939 1007 844 1081 q 1033 768 1033 933 q 996 607 1033 675 q 889 513 958 539 l 890 499 q 1024 335 1024 478 l 1024 228 l 1089 228 l 1089 0 l 649 0 l 649 326 q 633 408 649 381 q 583 446 617 436 q 486 456 549 456 l 486 228 l 578 228 l 578 0 l 28 0 l 28 228 m 561 625 q 622 647 601 625 q 642 714 642 668 l 642 764 q 622 831 642 810 q 561 853 601 853 l 486 853 l 486 625 l 561 625 m 456 -311 l 456 -97 l 700 -97 l 700 -311 l 456 -311 z "},"Ȓ":{"ha":1111,"x_min":28,"x_max":1089,"o":"m 28 228 l 97 228 l 97 853 l 28 853 l 28 1081 l 665 1081 q 939 1007 844 1081 q 1033 768 1033 933 q 996 607 1033 675 q 889 513 958 539 l 890 499 q 1024 335 1024 478 l 1024 228 l 1089 228 l 1089 0 l 649 0 l 649 326 q 633 408 649 381 q 583 446 617 436 q 486 456 549 456 l 486 228 l 578 228 l 578 0 l 28 0 l 28 228 m 561 625 q 622 647 601 625 q 642 714 642 668 l 642 764 q 622 831 642 810 q 561 853 601 853 l 486 853 l 486 625 l 561 625 m 229 1178 q 307 1328 229 1274 q 524 1382 385 1382 q 740 1328 663 1382 q 818 1178 818 1274 l 818 1164 l 611 1164 l 611 1178 q 524 1240 611 1240 q 436 1178 436 1240 l 436 1164 l 229 1164 l 229 1178 z "},"Ṟ":{"ha":1111,"x_min":28,"x_max":1089,"o":"m 28 228 l 97 228 l 97 853 l 28 853 l 28 1081 l 665 1081 q 939 1007 844 1081 q 1033 768 1033 933 q 996 607 1033 675 q 889 513 958 539 l 890 499 q 1024 335 1024 478 l 1024 228 l 1089 228 l 1089 0 l 649 0 l 649 326 q 633 408 649 381 q 583 446 617 436 q 486 456 549 456 l 486 228 l 578 228 l 578 0 l 28 0 l 28 228 m 561 625 q 622 647 601 625 q 642 714 642 668 l 642 764 q 622 831 642 810 q 561 853 601 853 l 486 853 l 486 625 l 561 625 m 328 -261 l 328 -111 l 825 -111 l 825 -261 l 328 -261 z "},"S":{"ha":936,"x_min":11,"x_max":925,"o":"m 458 -19 q 206 3 325 -19 q 24 56 88 26 l 24 331 l 329 331 q 349 268 329 288 q 419 249 368 249 q 481 262 463 249 q 500 301 500 275 q 482 340 500 324 q 419 372 464 356 l 300 414 q 78 551 146 472 q 11 765 11 631 q 119 1015 11 929 q 478 1100 226 1100 q 705 1076 599 1100 q 876 1011 811 1051 l 876 763 l 599 763 q 513 832 599 832 q 453 822 471 832 q 436 785 436 811 q 456 747 436 761 q 522 718 476 733 l 643 676 q 858 547 790 626 q 925 338 925 467 q 806 71 925 161 q 458 -19 688 -19 z "},"Ś":{"ha":936,"x_min":11,"x_max":925,"o":"m 458 -19 q 206 3 325 -19 q 24 56 88 26 l 24 331 l 329 331 q 349 268 329 288 q 419 249 368 249 q 481 262 463 249 q 500 301 500 275 q 482 340 500 324 q 419 372 464 356 l 300 414 q 78 551 146 472 q 11 765 11 631 q 119 1015 11 929 q 478 1100 226 1100 q 705 1076 599 1100 q 876 1011 811 1051 l 876 763 l 599 763 q 513 832 599 832 q 453 822 471 832 q 436 785 436 811 q 456 747 436 761 q 522 718 476 733 l 643 676 q 858 547 790 626 q 925 338 925 467 q 806 71 925 161 q 458 -19 688 -19 m 297 1164 l 297 1185 l 449 1318 l 797 1318 l 797 1282 l 571 1164 l 297 1164 z "},"Ṥ":{"ha":936,"x_min":11,"x_max":925,"o":"m 458 -19 q 206 3 325 -19 q 24 56 88 26 l 24 331 l 329 331 q 349 268 329 288 q 419 249 368 249 q 481 262 463 249 q 500 301 500 275 q 482 340 500 324 q 419 372 464 356 l 300 414 q 78 551 146 472 q 11 765 11 631 q 119 1015 11 929 q 478 1100 226 1100 q 705 1076 599 1100 q 876 1011 811 1051 l 876 763 l 599 763 q 513 832 599 832 q 453 822 471 832 q 436 785 436 811 q 456 747 436 761 q 522 718 476 733 l 643 676 q 858 547 790 626 q 925 338 925 467 q 806 71 925 161 q 458 -19 688 -19 m 297 1164 l 297 1185 l 449 1318 l 797 1318 l 797 1282 l 571 1164 l 297 1164 m 350 1415 l 350 1592 l 606 1592 l 606 1415 l 350 1415 z "},"Š":{"ha":936,"x_min":11,"x_max":925,"o":"m 458 -19 q 206 3 325 -19 q 24 56 88 26 l 24 331 l 329 331 q 349 268 329 288 q 419 249 368 249 q 481 262 463 249 q 500 301 500 275 q 482 340 500 324 q 419 372 464 356 l 300 414 q 78 551 146 472 q 11 765 11 631 q 119 1015 11 929 q 478 1100 226 1100 q 705 1076 599 1100 q 876 1011 811 1051 l 876 763 l 599 763 q 513 832 599 832 q 453 822 471 832 q 436 785 436 811 q 456 747 436 761 q 522 718 476 733 l 643 676 q 858 547 790 626 q 925 338 925 467 q 806 71 925 161 q 458 -19 688 -19 m 304 1164 l 128 1339 l 128 1360 l 342 1360 l 471 1247 l 485 1247 l 614 1360 l 828 1360 l 828 1339 l 651 1164 l 304 1164 z "},"Ṧ":{"ha":936,"x_min":11,"x_max":925,"o":"m 458 -19 q 206 3 325 -19 q 24 56 88 26 l 24 331 l 329 331 q 349 268 329 288 q 419 249 368 249 q 481 262 463 249 q 500 301 500 275 q 482 340 500 324 q 419 372 464 356 l 300 414 q 78 551 146 472 q 11 765 11 631 q 119 1015 11 929 q 478 1100 226 1100 q 705 1076 599 1100 q 876 1011 811 1051 l 876 763 l 599 763 q 513 832 599 832 q 453 822 471 832 q 436 785 436 811 q 456 747 436 761 q 522 718 476 733 l 643 676 q 858 547 790 626 q 925 338 925 467 q 806 71 925 161 q 458 -19 688 -19 m 304 1164 l 128 1339 l 128 1360 l 342 1360 l 471 1247 l 485 1247 l 614 1360 l 828 1360 l 828 1339 l 651 1164 l 304 1164 m 350 1429 l 350 1606 l 606 1606 l 606 1429 l 350 1429 z "},"Ş":{"ha":936,"x_min":11,"x_max":925,"o":"m 925 338 q 823 84 925 174 q 524 -18 721 -6 l 524 -54 q 625 -87 586 -54 q 664 -185 664 -121 q 612 -301 664 -260 q 468 -342 560 -342 q 297 -317 389 -342 l 297 -218 q 453 -237 382 -237 q 488 -225 476 -237 q 500 -193 500 -212 q 488 -161 500 -174 q 453 -149 476 -149 l 392 -149 l 392 -18 q 178 9 278 -12 q 24 56 79 31 l 24 331 l 329 331 q 349 268 329 288 q 419 249 368 249 q 481 262 463 249 q 500 301 500 275 q 482 340 500 324 q 419 372 464 356 l 300 414 q 78 551 146 472 q 11 765 11 631 q 119 1015 11 929 q 478 1100 226 1100 q 705 1076 599 1100 q 876 1011 811 1051 l 876 763 l 599 763 q 513 832 599 832 q 453 822 471 832 q 436 785 436 811 q 456 747 436 761 q 522 718 476 733 l 643 676 q 858 547 790 626 q 925 338 925 467 z "},"Ŝ":{"ha":936,"x_min":11,"x_max":925,"o":"m 458 -19 q 206 3 325 -19 q 24 56 88 26 l 24 331 l 329 331 q 349 268 329 288 q 419 249 368 249 q 481 262 463 249 q 500 301 500 275 q 482 340 500 324 q 419 372 464 356 l 300 414 q 78 551 146 472 q 11 765 11 631 q 119 1015 11 929 q 478 1100 226 1100 q 705 1076 599 1100 q 876 1011 811 1051 l 876 763 l 599 763 q 513 832 599 832 q 453 822 471 832 q 436 785 436 811 q 456 747 436 761 q 522 718 476 733 l 643 676 q 858 547 790 626 q 925 338 925 467 q 806 71 925 161 q 458 -19 688 -19 m 128 1164 l 128 1185 l 304 1360 l 651 1360 l 828 1185 l 828 1164 l 614 1164 l 485 1276 l 471 1276 l 342 1164 l 128 1164 z "},"Ș":{"ha":936,"x_min":11,"x_max":925,"o":"m 458 -19 q 206 3 325 -19 q 24 56 88 26 l 24 331 l 329 331 q 349 268 329 288 q 419 249 368 249 q 481 262 463 249 q 500 301 500 275 q 482 340 500 324 q 419 372 464 356 l 300 414 q 78 551 146 472 q 11 765 11 631 q 119 1015 11 929 q 478 1100 226 1100 q 705 1076 599 1100 q 876 1011 811 1051 l 876 763 l 599 763 q 513 832 599 832 q 453 822 471 832 q 436 785 436 811 q 456 747 436 761 q 522 718 476 733 l 643 676 q 858 547 790 626 q 925 338 925 467 q 806 71 925 161 q 458 -19 688 -19 m 376 -437 l 421 -281 l 364 -281 l 364 -83 l 572 -83 l 572 -281 l 496 -437 l 376 -437 z "},"Ṡ":{"ha":936,"x_min":11,"x_max":925,"o":"m 458 -19 q 206 3 325 -19 q 24 56 88 26 l 24 331 l 329 331 q 349 268 329 288 q 419 249 368 249 q 481 262 463 249 q 500 301 500 275 q 482 340 500 324 q 419 372 464 356 l 300 414 q 78 551 146 472 q 11 765 11 631 q 119 1015 11 929 q 478 1100 226 1100 q 705 1076 599 1100 q 876 1011 811 1051 l 876 763 l 599 763 q 513 832 599 832 q 453 822 471 832 q 436 785 436 811 q 456 747 436 761 q 522 718 476 733 l 643 676 q 858 547 790 626 q 925 338 925 467 q 806 71 925 161 q 458 -19 688 -19 m 350 1178 l 350 1354 l 606 1354 l 606 1178 l 350 1178 z "},"Ṣ":{"ha":936,"x_min":11,"x_max":925,"o":"m 458 -19 q 206 3 325 -19 q 24 56 88 26 l 24 331 l 329 331 q 349 268 329 288 q 419 249 368 249 q 481 262 463 249 q 500 301 500 275 q 482 340 500 324 q 419 372 464 356 l 300 414 q 78 551 146 472 q 11 765 11 631 q 119 1015 11 929 q 478 1100 226 1100 q 705 1076 599 1100 q 876 1011 811 1051 l 876 763 l 599 763 q 513 832 599 832 q 453 822 471 832 q 436 785 436 811 q 456 747 436 761 q 522 718 476 733 l 643 676 q 858 547 790 626 q 925 338 925 467 q 806 71 925 161 q 458 -19 688 -19 m 346 -311 l 346 -97 l 590 -97 l 590 -311 l 346 -311 z "},"Ṩ":{"ha":936,"x_min":11,"x_max":925,"o":"m 458 -19 q 206 3 325 -19 q 24 56 88 26 l 24 331 l 329 331 q 349 268 329 288 q 419 249 368 249 q 481 262 463 249 q 500 301 500 275 q 482 340 500 324 q 419 372 464 356 l 300 414 q 78 551 146 472 q 11 765 11 631 q 119 1015 11 929 q 478 1100 226 1100 q 705 1076 599 1100 q 876 1011 811 1051 l 876 763 l 599 763 q 513 832 599 832 q 453 822 471 832 q 436 785 436 811 q 456 747 436 761 q 522 718 476 733 l 643 676 q 858 547 790 626 q 925 338 925 467 q 806 71 925 161 q 458 -19 688 -19 m 346 -311 l 346 -97 l 590 -97 l 590 -311 l 346 -311 m 350 1178 l 350 1354 l 606 1354 l 606 1178 l 350 1178 z "},"ẞ":{"ha":1163,"x_min":25,"x_max":1146,"o":"m 882 622 q 1146 303 1146 569 q 1057 64 1146 147 q 807 -19 968 -19 q 671 -5 740 -19 q 556 28 601 10 l 556 225 q 610 219 579 219 q 703 250 668 219 q 738 343 738 281 q 690 446 738 413 q 556 479 643 479 l 556 618 l 711 835 q 631 853 681 853 q 519 815 551 853 q 486 701 486 778 l 486 0 l 25 0 l 25 228 l 94 228 l 97 689 q 224 1001 99 901 q 599 1100 350 1100 q 1025 1006 832 1100 l 1025 821 l 882 622 z "},"Ə":{"ha":1026,"x_min":17,"x_max":1007,"o":"m 506 -19 q 136 110 256 -19 q 17 482 17 239 l 17 608 l 571 608 l 571 621 q 528 725 571 692 q 388 758 486 758 q 50 706 232 758 l 50 1013 q 253 1075 138 1050 q 478 1100 369 1100 q 1007 538 1007 1100 q 880 124 1007 268 q 506 -19 753 -19 m 478 253 q 548 278 525 253 q 571 356 571 303 l 571 399 l 385 399 l 385 356 q 408 277 385 301 q 478 253 432 253 z "},"T":{"ha":1083,"x_min":19,"x_max":1064,"o":"m 1064 744 l 825 744 l 825 853 l 736 853 l 736 228 l 833 228 l 833 0 l 250 0 l 250 228 l 347 228 l 347 853 l 258 853 l 258 744 l 19 744 l 19 1081 l 1064 1081 l 1064 744 z "},"Ŧ":{"ha":1083,"x_min":19,"x_max":1064,"o":"m 1064 744 l 825 744 l 825 853 l 736 853 l 736 603 l 944 603 l 944 421 l 736 421 l 736 228 l 833 228 l 833 0 l 250 0 l 250 228 l 347 228 l 347 421 l 139 421 l 139 603 l 347 603 l 347 853 l 258 853 l 258 744 l 19 744 l 19 1081 l 1064 1081 l 1064 744 z "},"Ť":{"ha":1083,"x_min":19,"x_max":1064,"o":"m 1064 744 l 825 744 l 825 853 l 736 853 l 736 228 l 833 228 l 833 0 l 250 0 l 250 228 l 347 228 l 347 853 l 258 853 l 258 744 l 19 744 l 19 1081 l 1064 1081 l 1064 744 m 368 1164 l 192 1339 l 192 1360 l 406 1360 l 535 1247 l 549 1247 l 678 1360 l 892 1360 l 892 1339 l 715 1164 l 368 1164 z "},"Ţ":{"ha":1083,"x_min":19,"x_max":1064,"o":"m 1064 744 l 825 744 l 825 853 l 736 853 l 736 228 l 833 228 l 833 0 l 250 0 l 250 228 l 347 228 l 347 853 l 258 853 l 258 744 l 19 744 l 19 1081 l 1064 1081 l 1064 744 m 553 -342 q 382 -317 474 -342 l 382 -218 q 538 -237 467 -237 q 573 -225 561 -237 q 585 -193 585 -212 q 573 -161 585 -174 q 538 -149 561 -149 l 476 -149 l 476 0 l 608 0 l 608 -54 q 710 -87 671 -54 q 749 -185 749 -121 q 697 -301 749 -260 q 553 -342 644 -342 z "},"Ț":{"ha":1083,"x_min":19,"x_max":1064,"o":"m 1064 744 l 825 744 l 825 853 l 736 853 l 736 228 l 833 228 l 833 0 l 250 0 l 250 228 l 347 228 l 347 853 l 258 853 l 258 744 l 19 744 l 19 1081 l 1064 1081 l 1064 744 m 450 -437 l 494 -281 l 438 -281 l 438 -83 l 646 -83 l 646 -281 l 569 -437 l 450 -437 z "},"Ṭ":{"ha":1083,"x_min":19,"x_max":1064,"o":"m 1064 744 l 825 744 l 825 853 l 736 853 l 736 228 l 833 228 l 833 0 l 250 0 l 250 228 l 347 228 l 347 853 l 258 853 l 258 744 l 19 744 l 19 1081 l 1064 1081 l 1064 744 m 419 -311 l 419 -97 l 664 -97 l 664 -311 l 419 -311 z "},"Ṯ":{"ha":1083,"x_min":19,"x_max":1064,"o":"m 1064 744 l 825 744 l 825 853 l 736 853 l 736 228 l 833 228 l 833 0 l 250 0 l 250 228 l 347 228 l 347 853 l 258 853 l 258 744 l 19 744 l 19 1081 l 1064 1081 l 1064 744 m 292 -261 l 292 -111 l 789 -111 l 789 -261 l 292 -261 z "},"U":{"ha":1085,"x_min":22,"x_max":1063,"o":"m 547 -19 q 210 76 329 -19 q 92 388 92 172 l 92 853 l 22 853 l 22 1081 l 536 1081 l 536 853 l 481 853 l 481 317 q 501 249 481 271 q 561 228 521 228 q 622 249 601 228 q 642 317 642 271 l 642 853 l 586 853 l 586 1081 l 1063 1081 l 1063 853 l 993 853 l 993 388 q 878 76 993 172 q 547 -19 763 -19 z "},"Ú":{"ha":1085,"x_min":22,"x_max":1063,"o":"m 547 -19 q 210 76 329 -19 q 92 388 92 172 l 92 853 l 22 853 l 22 1081 l 536 1081 l 536 853 l 481 853 l 481 317 q 501 249 481 271 q 561 228 521 228 q 622 249 601 228 q 642 317 642 271 l 642 853 l 586 853 l 586 1081 l 1063 1081 l 1063 853 l 993 853 l 993 388 q 878 76 993 172 q 547 -19 763 -19 m 378 1164 l 378 1185 l 529 1318 l 878 1318 l 878 1282 l 651 1164 l 378 1164 z "},"Ŭ":{"ha":1085,"x_min":22,"x_max":1063,"o":"m 547 -19 q 210 76 329 -19 q 92 388 92 172 l 92 853 l 22 853 l 22 1081 l 536 1081 l 536 853 l 481 853 l 481 317 q 501 249 481 271 q 561 228 521 228 q 622 249 601 228 q 642 317 642 271 l 642 853 l 586 853 l 586 1081 l 1063 1081 l 1063 853 l 993 853 l 993 388 q 878 76 993 172 q 547 -19 763 -19 m 558 1164 q 342 1218 419 1164 q 264 1368 264 1272 l 264 1382 l 471 1382 l 471 1368 q 558 1306 471 1306 q 646 1368 646 1306 l 646 1382 l 853 1382 l 853 1368 q 775 1218 853 1272 q 558 1164 697 1164 z "},"Û":{"ha":1085,"x_min":22,"x_max":1063,"o":"m 547 -19 q 210 76 329 -19 q 92 388 92 172 l 92 853 l 22 853 l 22 1081 l 536 1081 l 536 853 l 481 853 l 481 317 q 501 249 481 271 q 561 228 521 228 q 622 249 601 228 q 642 317 642 271 l 642 853 l 586 853 l 586 1081 l 1063 1081 l 1063 853 l 993 853 l 993 388 q 878 76 993 172 q 547 -19 763 -19 m 208 1164 l 208 1185 l 385 1360 l 732 1360 l 908 1185 l 908 1164 l 694 1164 l 565 1276 l 551 1276 l 422 1164 l 208 1164 z "},"Ȕ":{"ha":1085,"x_min":22,"x_max":1063,"o":"m 547 -19 q 210 76 329 -19 q 92 388 92 172 l 92 853 l 22 853 l 22 1081 l 536 1081 l 536 853 l 481 853 l 481 317 q 501 249 481 271 q 561 228 521 228 q 622 249 601 228 q 642 317 642 271 l 642 853 l 586 853 l 586 1081 l 1063 1081 l 1063 853 l 993 853 l 993 388 q 878 76 993 172 q 547 -19 763 -19 m 300 1164 l 115 1282 l 115 1318 l 422 1318 l 504 1185 l 504 1164 l 300 1164 m 690 1164 l 506 1282 l 506 1318 l 813 1318 l 894 1185 l 894 1164 l 690 1164 z "},"Ü":{"ha":1085,"x_min":22,"x_max":1063,"o":"m 547 -19 q 210 76 329 -19 q 92 388 92 172 l 92 853 l 22 853 l 22 1081 l 536 1081 l 536 853 l 481 853 l 481 317 q 501 249 481 271 q 561 228 521 228 q 622 249 601 228 q 642 317 642 271 l 642 853 l 586 853 l 586 1081 l 1063 1081 l 1063 853 l 993 853 l 993 388 q 878 76 993 172 q 547 -19 763 -19 m 265 1164 l 265 1340 l 521 1340 l 521 1164 l 265 1164 m 596 1164 l 596 1340 l 851 1340 l 851 1164 l 596 1164 z "},"Ụ":{"ha":1085,"x_min":22,"x_max":1063,"o":"m 547 -19 q 210 76 329 -19 q 92 388 92 172 l 92 853 l 22 853 l 22 1081 l 536 1081 l 536 853 l 481 853 l 481 317 q 501 249 481 271 q 561 228 521 228 q 622 249 601 228 q 642 317 642 271 l 642 853 l 586 853 l 586 1081 l 1063 1081 l 1063 853 l 993 853 l 993 388 q 878 76 993 172 q 547 -19 763 -19 m 425 -311 l 425 -97 l 669 -97 l 669 -311 l 425 -311 z "},"Ù":{"ha":1085,"x_min":22,"x_max":1063,"o":"m 547 -19 q 210 76 329 -19 q 92 388 92 172 l 92 853 l 22 853 l 22 1081 l 536 1081 l 536 853 l 481 853 l 481 317 q 501 249 481 271 q 561 228 521 228 q 622 249 601 228 q 642 317 642 271 l 642 853 l 586 853 l 586 1081 l 1063 1081 l 1063 853 l 993 853 l 993 388 q 878 76 993 172 q 547 -19 763 -19 m 468 1164 l 242 1282 l 242 1318 l 590 1318 l 742 1185 l 742 1164 l 468 1164 z "},"Ủ":{"ha":1085,"x_min":22,"x_max":1063,"o":"m 547 -19 q 210 76 329 -19 q 92 388 92 172 l 92 853 l 22 853 l 22 1081 l 536 1081 l 536 853 l 481 853 l 481 317 q 501 249 481 271 q 561 228 521 228 q 622 249 601 228 q 642 317 642 271 l 642 853 l 586 853 l 586 1081 l 1063 1081 l 1063 853 l 993 853 l 993 388 q 878 76 993 172 q 547 -19 763 -19 m 508 1201 q 542 1245 532 1226 q 551 1290 551 1264 q 533 1338 551 1319 q 481 1356 514 1356 q 418 1347 451 1356 l 418 1451 q 546 1472 481 1472 q 663 1435 621 1472 q 706 1333 706 1399 q 565 1143 706 1232 l 508 1201 z "},"Ư":{"ha":1085,"x_min":22,"x_max":1204,"o":"m 1204 1240 l 1204 1199 q 1149 1032 1204 1096 q 993 951 1093 968 l 993 388 q 878 76 993 172 q 547 -19 763 -19 q 210 76 329 -19 q 92 388 92 172 l 92 853 l 22 853 l 22 1081 l 536 1081 l 536 853 l 481 853 l 481 317 q 501 249 481 271 q 561 228 521 228 q 622 249 601 228 q 642 317 642 271 l 642 853 l 586 853 l 586 1081 l 896 1081 q 972 1110 947 1081 q 997 1199 997 1139 l 997 1240 l 1204 1240 z "},"Ứ":{"ha":1085,"x_min":22,"x_max":1204,"o":"m 1204 1240 l 1204 1199 q 1149 1032 1204 1096 q 993 951 1093 968 l 993 388 q 878 76 993 172 q 547 -19 763 -19 q 210 76 329 -19 q 92 388 92 172 l 92 853 l 22 853 l 22 1081 l 536 1081 l 536 853 l 481 853 l 481 317 q 501 249 481 271 q 561 228 521 228 q 622 249 601 228 q 642 317 642 271 l 642 853 l 586 853 l 586 1081 l 896 1081 q 972 1110 947 1081 q 997 1199 997 1139 l 997 1240 l 1204 1240 m 378 1164 l 378 1185 l 529 1318 l 878 1318 l 878 1282 l 651 1164 l 378 1164 z "},"Ự":{"ha":1085,"x_min":22,"x_max":1204,"o":"m 1204 1240 l 1204 1199 q 1149 1032 1204 1096 q 993 951 1093 968 l 993 388 q 878 76 993 172 q 547 -19 763 -19 q 210 76 329 -19 q 92 388 92 172 l 92 853 l 22 853 l 22 1081 l 536 1081 l 536 853 l 481 853 l 481 317 q 501 249 481 271 q 561 228 521 228 q 622 249 601 228 q 642 317 642 271 l 642 853 l 586 853 l 586 1081 l 896 1081 q 972 1110 947 1081 q 997 1199 997 1139 l 997 1240 l 1204 1240 m 425 -311 l 425 -97 l 669 -97 l 669 -311 l 425 -311 z "},"Ừ":{"ha":1085,"x_min":22,"x_max":1204,"o":"m 1204 1240 l 1204 1199 q 1149 1032 1204 1096 q 993 951 1093 968 l 993 388 q 878 76 993 172 q 547 -19 763 -19 q 210 76 329 -19 q 92 388 92 172 l 92 853 l 22 853 l 22 1081 l 536 1081 l 536 853 l 481 853 l 481 317 q 501 249 481 271 q 561 228 521 228 q 622 249 601 228 q 642 317 642 271 l 642 853 l 586 853 l 586 1081 l 896 1081 q 972 1110 947 1081 q 997 1199 997 1139 l 997 1240 l 1204 1240 m 468 1164 l 242 1282 l 242 1318 l 590 1318 l 742 1185 l 742 1164 l 468 1164 z "},"Ử":{"ha":1085,"x_min":22,"x_max":1204,"o":"m 1204 1240 l 1204 1199 q 1149 1032 1204 1096 q 993 951 1093 968 l 993 388 q 878 76 993 172 q 547 -19 763 -19 q 210 76 329 -19 q 92 388 92 172 l 92 853 l 22 853 l 22 1081 l 536 1081 l 536 853 l 481 853 l 481 317 q 501 249 481 271 q 561 228 521 228 q 622 249 601 228 q 642 317 642 271 l 642 853 l 586 853 l 586 1081 l 896 1081 q 972 1110 947 1081 q 997 1199 997 1139 l 997 1240 l 1204 1240 m 508 1201 q 542 1245 532 1226 q 551 1290 551 1264 q 533 1338 551 1319 q 481 1356 514 1356 q 418 1347 451 1356 l 418 1451 q 546 1472 481 1472 q 663 1435 621 1472 q 706 1333 706 1399 q 565 1143 706 1232 l 508 1201 z "},"Ữ":{"ha":1085,"x_min":22,"x_max":1204,"o":"m 1204 1240 l 1204 1199 q 1149 1032 1204 1096 q 993 951 1093 968 l 993 388 q 878 76 993 172 q 547 -19 763 -19 q 210 76 329 -19 q 92 388 92 172 l 92 853 l 22 853 l 22 1081 l 536 1081 l 536 853 l 481 853 l 481 317 q 501 249 481 271 q 561 228 521 228 q 622 249 601 228 q 642 317 642 271 l 642 853 l 586 853 l 586 1081 l 896 1081 q 972 1110 947 1081 q 997 1199 997 1139 l 997 1240 l 1204 1240 m 715 1164 q 632 1171 674 1164 q 532 1192 590 1178 q 440 1210 476 1204 q 368 1217 403 1217 q 317 1203 336 1217 q 299 1165 299 1189 l 221 1165 q 263 1327 221 1272 q 399 1382 306 1382 q 479 1376 440 1382 q 583 1356 518 1369 q 746 1332 689 1332 q 797 1344 779 1332 q 815 1381 815 1357 l 893 1381 q 852 1219 893 1274 q 715 1164 811 1164 z "},"Ű":{"ha":1085,"x_min":22,"x_max":1063,"o":"m 547 -19 q 210 76 329 -19 q 92 388 92 172 l 92 853 l 22 853 l 22 1081 l 536 1081 l 536 853 l 481 853 l 481 317 q 501 249 481 271 q 561 228 521 228 q 622 249 601 228 q 642 317 642 271 l 642 853 l 586 853 l 586 1081 l 1063 1081 l 1063 853 l 993 853 l 993 388 q 878 76 993 172 q 547 -19 763 -19 m 199 1164 l 199 1185 l 281 1318 l 588 1318 l 588 1282 l 403 1164 l 199 1164 m 589 1164 l 589 1185 l 671 1318 l 978 1318 l 978 1282 l 793 1164 l 589 1164 z "},"Ȗ":{"ha":1085,"x_min":22,"x_max":1063,"o":"m 547 -19 q 210 76 329 -19 q 92 388 92 172 l 92 853 l 22 853 l 22 1081 l 536 1081 l 536 853 l 481 853 l 481 317 q 501 249 481 271 q 561 228 521 228 q 622 249 601 228 q 642 317 642 271 l 642 853 l 586 853 l 586 1081 l 1063 1081 l 1063 853 l 993 853 l 993 388 q 878 76 993 172 q 547 -19 763 -19 m 264 1178 q 342 1328 264 1274 q 558 1382 419 1382 q 775 1328 697 1382 q 853 1178 853 1274 l 853 1164 l 646 1164 l 646 1178 q 558 1240 646 1240 q 471 1178 471 1240 l 471 1164 l 264 1164 l 264 1178 z "},"Ū":{"ha":1085,"x_min":22,"x_max":1063,"o":"m 547 -19 q 210 76 329 -19 q 92 388 92 172 l 92 853 l 22 853 l 22 1081 l 536 1081 l 536 853 l 481 853 l 481 317 q 501 249 481 271 q 561 228 521 228 q 622 249 601 228 q 642 317 642 271 l 642 853 l 586 853 l 586 1081 l 1063 1081 l 1063 853 l 993 853 l 993 388 q 878 76 993 172 q 547 -19 763 -19 m 310 1167 l 310 1303 l 807 1303 l 807 1167 l 310 1167 z "},"Ṻ":{"ha":1085,"x_min":22,"x_max":1063,"o":"m 547 -19 q 210 76 329 -19 q 92 388 92 172 l 92 853 l 22 853 l 22 1081 l 536 1081 l 536 853 l 481 853 l 481 317 q 501 249 481 271 q 561 228 521 228 q 622 249 601 228 q 642 317 642 271 l 642 853 l 586 853 l 586 1081 l 1063 1081 l 1063 853 l 993 853 l 993 388 q 878 76 993 172 q 547 -19 763 -19 m 310 1167 l 310 1303 l 807 1303 l 807 1167 l 310 1167 m 265 1379 l 265 1556 l 521 1556 l 521 1379 l 265 1379 m 596 1379 l 596 1556 l 851 1556 l 851 1379 l 596 1379 z "},"Ų":{"ha":1085,"x_min":22,"x_max":1063,"o":"m 1063 1081 l 1063 853 l 993 853 l 993 388 q 897 96 993 193 q 622 -17 801 -1 q 603 -81 603 -51 q 626 -140 603 -118 q 692 -161 650 -161 q 775 -149 736 -161 l 775 -267 q 636 -300 708 -300 q 501 -260 550 -300 q 453 -149 453 -221 q 497 -18 453 -83 q 197 88 303 -8 q 92 388 92 185 l 92 853 l 22 853 l 22 1081 l 536 1081 l 536 853 l 481 853 l 481 317 q 501 249 481 271 q 561 228 521 228 q 622 249 601 228 q 642 317 642 271 l 642 853 l 586 853 l 586 1081 l 1063 1081 z "},"Ů":{"ha":1085,"x_min":22,"x_max":1063,"o":"m 547 -19 q 210 76 329 -19 q 92 388 92 172 l 92 853 l 22 853 l 22 1081 l 536 1081 l 536 853 l 481 853 l 481 317 q 501 249 481 271 q 561 228 521 228 q 622 249 601 228 q 642 317 642 271 l 642 853 l 586 853 l 586 1081 l 1063 1081 l 1063 853 l 993 853 l 993 388 q 878 76 993 172 q 547 -19 763 -19 m 558 1164 q 428 1211 479 1164 q 376 1331 376 1258 q 428 1450 376 1403 q 558 1497 479 1497 q 689 1450 638 1497 q 740 1331 740 1403 q 689 1211 740 1258 q 558 1164 638 1164 m 558 1267 q 601 1285 585 1267 q 618 1331 618 1303 q 601 1376 618 1358 q 558 1393 585 1393 q 515 1376 532 1393 q 497 1331 497 1358 q 515 1285 497 1303 q 558 1267 532 1267 z "},"Ũ":{"ha":1085,"x_min":22,"x_max":1063,"o":"m 547 -19 q 210 76 329 -19 q 92 388 92 172 l 92 853 l 22 853 l 22 1081 l 536 1081 l 536 853 l 481 853 l 481 317 q 501 249 481 271 q 561 228 521 228 q 622 249 601 228 q 642 317 642 271 l 642 853 l 586 853 l 586 1081 l 1063 1081 l 1063 853 l 993 853 l 993 388 q 878 76 993 172 q 547 -19 763 -19 m 714 1164 q 637 1171 676 1164 q 542 1192 597 1178 q 450 1210 483 1204 q 383 1217 417 1217 q 324 1202 347 1217 q 300 1165 300 1188 l 222 1165 q 260 1333 222 1282 q 403 1383 299 1383 q 490 1376 449 1383 q 588 1356 532 1369 q 671 1339 640 1344 q 733 1333 701 1333 q 794 1346 772 1333 q 817 1382 817 1358 l 894 1382 q 879 1258 894 1304 q 825 1188 864 1211 q 714 1164 786 1164 z "},"Ṹ":{"ha":1085,"x_min":22,"x_max":1063,"o":"m 547 -19 q 210 76 329 -19 q 92 388 92 172 l 92 853 l 22 853 l 22 1081 l 536 1081 l 536 853 l 481 853 l 481 317 q 501 249 481 271 q 561 228 521 228 q 622 249 601 228 q 642 317 642 271 l 642 853 l 586 853 l 586 1081 l 1063 1081 l 1063 853 l 993 853 l 993 388 q 878 76 993 172 q 547 -19 763 -19 m 714 1164 q 637 1171 676 1164 q 542 1192 597 1178 q 450 1210 483 1204 q 383 1217 417 1217 q 324 1202 347 1217 q 300 1165 300 1188 l 222 1165 q 260 1333 222 1282 q 403 1383 299 1383 q 490 1376 449 1383 q 588 1356 532 1369 q 671 1339 640 1344 q 733 1333 701 1333 q 794 1346 772 1333 q 817 1382 817 1358 l 894 1382 q 879 1258 894 1304 q 825 1188 864 1211 q 714 1164 786 1164 m 378 1467 l 378 1488 l 529 1621 l 878 1621 l 878 1585 l 651 1467 l 378 1467 z "},"V":{"ha":1092,"x_min":17,"x_max":1075,"o":"m 611 1081 l 1075 1081 l 1075 853 l 1019 853 l 771 0 l 321 0 l 72 853 l 17 853 l 17 1081 l 550 1081 l 550 853 l 478 853 l 574 388 l 588 388 l 683 853 l 611 853 l 611 1081 z "},"W":{"ha":1676,"x_min":17,"x_max":1660,"o":"m 1215 1081 l 1660 1081 l 1660 853 l 1604 853 l 1397 0 l 982 0 l 856 600 l 842 600 l 708 0 l 293 0 l 72 853 l 17 853 l 17 1081 l 531 1081 l 531 853 l 478 853 l 532 499 l 546 499 l 678 1081 l 1078 1081 l 1200 499 l 1214 499 l 1268 853 l 1215 853 l 1215 1081 z "},"Ẃ":{"ha":1676,"x_min":17,"x_max":1660,"o":"m 1215 1081 l 1660 1081 l 1660 853 l 1604 853 l 1397 0 l 982 0 l 856 600 l 842 600 l 708 0 l 293 0 l 72 853 l 17 853 l 17 1081 l 531 1081 l 531 853 l 478 853 l 532 499 l 546 499 l 678 1081 l 1078 1081 l 1200 499 l 1214 499 l 1268 853 l 1215 853 l 1215 1081 m 697 1164 l 697 1185 l 849 1318 l 1197 1318 l 1197 1282 l 971 1164 l 697 1164 z "},"Ŵ":{"ha":1676,"x_min":17,"x_max":1660,"o":"m 1215 1081 l 1660 1081 l 1660 853 l 1604 853 l 1397 0 l 982 0 l 856 600 l 842 600 l 708 0 l 293 0 l 72 853 l 17 853 l 17 1081 l 531 1081 l 531 853 l 478 853 l 532 499 l 546 499 l 678 1081 l 1078 1081 l 1200 499 l 1214 499 l 1268 853 l 1215 853 l 1215 1081 m 528 1164 l 528 1185 l 704 1360 l 1051 1360 l 1228 1185 l 1228 1164 l 1014 1164 l 885 1276 l 871 1276 l 742 1164 l 528 1164 z "},"Ẅ":{"ha":1676,"x_min":17,"x_max":1660,"o":"m 1215 1081 l 1660 1081 l 1660 853 l 1604 853 l 1397 0 l 982 0 l 856 600 l 842 600 l 708 0 l 293 0 l 72 853 l 17 853 l 17 1081 l 531 1081 l 531 853 l 478 853 l 532 499 l 546 499 l 678 1081 l 1078 1081 l 1200 499 l 1214 499 l 1268 853 l 1215 853 l 1215 1081 m 585 1164 l 585 1340 l 840 1340 l 840 1164 l 585 1164 m 915 1164 l 915 1340 l 1171 1340 l 1171 1164 l 915 1164 z "},"Ẁ":{"ha":1676,"x_min":17,"x_max":1660,"o":"m 1215 1081 l 1660 1081 l 1660 853 l 1604 853 l 1397 0 l 982 0 l 856 600 l 842 600 l 708 0 l 293 0 l 72 853 l 17 853 l 17 1081 l 531 1081 l 531 853 l 478 853 l 532 499 l 546 499 l 678 1081 l 1078 1081 l 1200 499 l 1214 499 l 1268 853 l 1215 853 l 1215 1081 m 788 1164 l 561 1282 l 561 1318 l 910 1318 l 1061 1185 l 1061 1164 l 788 1164 z "},"X":{"ha":1111,"x_min":19,"x_max":1092,"o":"m 1033 228 l 1092 228 l 1092 0 l 567 0 l 567 228 l 624 228 l 543 342 l 529 342 l 449 228 l 506 228 l 506 0 l 19 0 l 19 228 l 92 228 l 358 528 l 81 853 l 22 853 l 22 1081 l 543 1081 l 543 853 l 490 853 l 567 739 l 581 739 l 657 853 l 604 853 l 604 1081 l 1086 1081 l 1086 853 l 1014 853 l 751 557 l 1033 228 z "},"Y":{"ha":1078,"x_min":17,"x_max":1061,"o":"m 635 1081 l 1061 1081 l 1061 853 l 1006 853 l 738 372 l 738 228 l 807 228 l 807 0 l 279 0 l 279 228 l 349 228 l 349 372 l 72 853 l 17 853 l 17 1081 l 554 1081 l 554 853 l 506 853 l 588 638 l 601 638 l 683 853 l 635 853 l 635 1081 z "},"Ý":{"ha":1078,"x_min":17,"x_max":1061,"o":"m 635 1081 l 1061 1081 l 1061 853 l 1006 853 l 738 372 l 738 228 l 807 228 l 807 0 l 279 0 l 279 228 l 349 228 l 349 372 l 72 853 l 17 853 l 17 1081 l 554 1081 l 554 853 l 506 853 l 588 638 l 601 638 l 683 853 l 635 853 l 635 1081 m 414 1164 l 414 1185 l 565 1318 l 914 1318 l 914 1282 l 688 1164 l 414 1164 z "},"Ŷ":{"ha":1078,"x_min":17,"x_max":1061,"o":"m 635 1081 l 1061 1081 l 1061 853 l 1006 853 l 738 372 l 738 228 l 807 228 l 807 0 l 279 0 l 279 228 l 349 228 l 349 372 l 72 853 l 17 853 l 17 1081 l 554 1081 l 554 853 l 506 853 l 588 638 l 601 638 l 683 853 l 635 853 l 635 1081 m 244 1164 l 244 1185 l 421 1360 l 768 1360 l 944 1185 l 944 1164 l 731 1164 l 601 1276 l 588 1276 l 458 1164 l 244 1164 z "},"Ÿ":{"ha":1078,"x_min":17,"x_max":1061,"o":"m 635 1081 l 1061 1081 l 1061 853 l 1006 853 l 738 372 l 738 228 l 807 228 l 807 0 l 279 0 l 279 228 l 349 228 l 349 372 l 72 853 l 17 853 l 17 1081 l 554 1081 l 554 853 l 506 853 l 588 638 l 601 638 l 683 853 l 635 853 l 635 1081 m 301 1164 l 301 1340 l 557 1340 l 557 1164 l 301 1164 m 632 1164 l 632 1340 l 888 1340 l 888 1164 l 632 1164 z "},"Ẏ":{"ha":1078,"x_min":17,"x_max":1061,"o":"m 635 1081 l 1061 1081 l 1061 853 l 1006 853 l 738 372 l 738 228 l 807 228 l 807 0 l 279 0 l 279 228 l 349 228 l 349 372 l 72 853 l 17 853 l 17 1081 l 554 1081 l 554 853 l 506 853 l 588 638 l 601 638 l 683 853 l 635 853 l 635 1081 m 467 1178 l 467 1354 l 722 1354 l 722 1178 l 467 1178 z "},"Ỵ":{"ha":1078,"x_min":17,"x_max":1061,"o":"m 635 1081 l 1061 1081 l 1061 853 l 1006 853 l 738 372 l 738 228 l 807 228 l 807 0 l 279 0 l 279 228 l 349 228 l 349 372 l 72 853 l 17 853 l 17 1081 l 554 1081 l 554 853 l 506 853 l 588 638 l 601 638 l 683 853 l 635 853 l 635 1081 m 421 -311 l 421 -97 l 665 -97 l 665 -311 l 421 -311 z "},"Ỳ":{"ha":1078,"x_min":17,"x_max":1061,"o":"m 635 1081 l 1061 1081 l 1061 853 l 1006 853 l 738 372 l 738 228 l 807 228 l 807 0 l 279 0 l 279 228 l 349 228 l 349 372 l 72 853 l 17 853 l 17 1081 l 554 1081 l 554 853 l 506 853 l 588 638 l 601 638 l 683 853 l 635 853 l 635 1081 m 504 1164 l 278 1282 l 278 1318 l 626 1318 l 778 1185 l 778 1164 l 504 1164 z "},"Ỷ":{"ha":1078,"x_min":17,"x_max":1061,"o":"m 635 1081 l 1061 1081 l 1061 853 l 1006 853 l 738 372 l 738 228 l 807 228 l 807 0 l 279 0 l 279 228 l 349 228 l 349 372 l 72 853 l 17 853 l 17 1081 l 554 1081 l 554 853 l 506 853 l 588 638 l 601 638 l 683 853 l 635 853 l 635 1081 m 544 1201 q 578 1245 568 1226 q 588 1290 588 1264 q 569 1338 588 1319 q 517 1356 550 1356 q 454 1347 488 1356 l 454 1451 q 582 1472 517 1472 q 699 1435 657 1472 q 742 1333 742 1399 q 601 1143 742 1232 l 544 1201 z "},"Ȳ":{"ha":1078,"x_min":17,"x_max":1061,"o":"m 635 1081 l 1061 1081 l 1061 853 l 1006 853 l 738 372 l 738 228 l 807 228 l 807 0 l 279 0 l 279 228 l 349 228 l 349 372 l 72 853 l 17 853 l 17 1081 l 554 1081 l 554 853 l 506 853 l 588 638 l 601 638 l 683 853 l 635 853 l 635 1081 m 346 1167 l 346 1303 l 843 1303 l 843 1167 l 346 1167 z "},"Ỹ":{"ha":1078,"x_min":17,"x_max":1061,"o":"m 635 1081 l 1061 1081 l 1061 853 l 1006 853 l 738 372 l 738 228 l 807 228 l 807 0 l 279 0 l 279 228 l 349 228 l 349 372 l 72 853 l 17 853 l 17 1081 l 554 1081 l 554 853 l 506 853 l 588 638 l 601 638 l 683 853 l 635 853 l 635 1081 m 750 1164 q 673 1171 713 1164 q 578 1192 633 1178 q 486 1210 519 1204 q 419 1217 453 1217 q 360 1202 383 1217 q 336 1165 336 1188 l 258 1165 q 297 1333 258 1282 q 439 1383 335 1383 q 526 1376 485 1383 q 624 1356 568 1369 q 707 1339 676 1344 q 769 1333 738 1333 q 831 1346 808 1333 q 853 1382 853 1358 l 931 1382 q 915 1258 931 1304 q 861 1188 900 1211 q 750 1164 822 1164 z "},"Z":{"ha":957,"x_min":19,"x_max":938,"o":"m 661 342 l 938 342 l 938 0 l 19 0 l 19 200 l 447 853 l 303 853 l 303 739 l 26 739 l 26 1081 l 915 1081 l 915 881 l 489 228 l 661 228 l 661 342 z "},"Ź":{"ha":957,"x_min":19,"x_max":938,"o":"m 661 342 l 938 342 l 938 0 l 19 0 l 19 200 l 447 853 l 303 853 l 303 739 l 26 739 l 26 1081 l 915 1081 l 915 881 l 489 228 l 661 228 l 661 342 m 290 1164 l 290 1185 l 442 1318 l 790 1318 l 790 1282 l 564 1164 l 290 1164 z "},"Ž":{"ha":957,"x_min":19,"x_max":938,"o":"m 661 342 l 938 342 l 938 0 l 19 0 l 19 200 l 447 853 l 303 853 l 303 739 l 26 739 l 26 1081 l 915 1081 l 915 881 l 489 228 l 661 228 l 661 342 m 297 1164 l 121 1339 l 121 1360 l 335 1360 l 464 1247 l 478 1247 l 607 1360 l 821 1360 l 821 1339 l 644 1164 l 297 1164 z "},"Ż":{"ha":957,"x_min":19,"x_max":938,"o":"m 661 342 l 938 342 l 938 0 l 19 0 l 19 200 l 447 853 l 303 853 l 303 739 l 26 739 l 26 1081 l 915 1081 l 915 881 l 489 228 l 661 228 l 661 342 m 343 1178 l 343 1354 l 599 1354 l 599 1178 l 343 1178 z "},"Ẓ":{"ha":957,"x_min":19,"x_max":938,"o":"m 661 342 l 938 342 l 938 0 l 19 0 l 19 200 l 447 853 l 303 853 l 303 739 l 26 739 l 26 1081 l 915 1081 l 915 881 l 489 228 l 661 228 l 661 342 m 357 -311 l 357 -97 l 601 -97 l 601 -311 l 357 -311 z "},"a":{"ha":854,"x_min":25,"x_max":835,"o":"m 835 228 l 835 0 l 468 0 l 468 94 q 383 15 438 50 q 249 -19 328 -19 q 85 36 144 -19 q 25 193 25 92 q 471 463 25 456 q 435 527 467 510 q 326 544 403 544 q 192 531 264 544 q 61 496 121 518 l 61 751 q 221 781 135 769 q 389 792 307 792 q 685 717 596 792 q 774 485 774 642 l 774 228 l 835 228 m 468 325 q 372 308 406 325 q 338 253 338 292 q 352 215 338 229 q 393 200 367 200 q 449 231 429 200 q 468 317 468 261 l 468 325 z "},"á":{"ha":854,"x_min":25,"x_max":835,"o":"m 835 228 l 835 0 l 468 0 l 468 94 q 383 15 438 50 q 249 -19 328 -19 q 85 36 144 -19 q 25 193 25 92 q 471 463 25 456 q 435 527 467 510 q 326 544 403 544 q 192 531 264 544 q 61 496 121 518 l 61 751 q 221 781 135 769 q 389 792 307 792 q 685 717 596 792 q 774 485 774 642 l 774 228 l 835 228 m 468 325 q 372 308 406 325 q 338 253 338 292 q 352 215 338 229 q 393 200 367 200 q 449 231 429 200 q 468 317 468 261 l 468 325 m 317 856 l 317 876 l 468 1088 l 765 1088 l 765 1050 l 539 856 l 317 856 z "},"ă":{"ha":854,"x_min":25,"x_max":835,"o":"m 835 228 l 835 0 l 468 0 l 468 94 q 383 15 438 50 q 249 -19 328 -19 q 85 36 144 -19 q 25 193 25 92 q 471 463 25 456 q 435 527 467 510 q 326 544 403 544 q 192 531 264 544 q 61 496 121 518 l 61 751 q 221 781 135 769 q 389 792 307 792 q 685 717 596 792 q 774 485 774 642 l 774 228 l 835 228 m 468 325 q 372 308 406 325 q 338 253 338 292 q 352 215 338 229 q 393 200 367 200 q 449 231 429 200 q 468 317 468 261 l 468 325 m 438 858 q 221 919 299 858 q 143 1090 143 981 l 143 1104 l 350 1104 l 350 1090 q 438 1000 350 1000 q 525 1090 525 1000 l 525 1104 l 732 1104 l 732 1090 q 654 919 732 981 q 438 858 576 858 z "},"ắ":{"ha":854,"x_min":25,"x_max":835,"o":"m 835 228 l 835 0 l 468 0 l 468 94 q 383 15 438 50 q 249 -19 328 -19 q 85 36 144 -19 q 25 193 25 92 q 471 463 25 456 q 435 527 467 510 q 326 544 403 544 q 192 531 264 544 q 61 496 121 518 l 61 751 q 221 781 135 769 q 389 792 307 792 q 685 717 596 792 q 774 485 774 642 l 774 228 l 835 228 m 468 325 q 372 308 406 325 q 338 253 338 292 q 352 215 338 229 q 393 200 367 200 q 449 231 429 200 q 468 317 468 261 l 468 325 m 299 1094 l 299 1115 l 408 1263 l 646 1263 l 646 1226 l 465 1094 l 299 1094 m 438 844 q 233 888 308 844 q 157 1021 157 931 l 157 1049 l 364 1049 l 364 1021 q 438 958 364 958 q 511 1021 511 958 l 511 1049 l 718 1049 l 718 1021 q 642 888 718 931 q 438 844 567 844 z "},"ặ":{"ha":854,"x_min":25,"x_max":835,"o":"m 835 228 l 835 0 l 468 0 l 468 94 q 383 15 438 50 q 249 -19 328 -19 q 85 36 144 -19 q 25 193 25 92 q 471 463 25 456 q 435 527 467 510 q 326 544 403 544 q 192 531 264 544 q 61 496 121 518 l 61 751 q 221 781 135 769 q 389 792 307 792 q 685 717 596 792 q 774 485 774 642 l 774 228 l 835 228 m 468 325 q 372 308 406 325 q 338 253 338 292 q 352 215 338 229 q 393 200 367 200 q 449 231 429 200 q 468 317 468 261 l 468 325 m 322 -283 l 322 -97 l 539 -97 l 539 -283 l 322 -283 m 438 844 q 233 888 308 844 q 157 1021 157 931 l 157 1049 l 364 1049 l 364 1021 q 438 958 364 958 q 511 1021 511 958 l 511 1049 l 718 1049 l 718 1021 q 642 888 718 931 q 438 844 567 844 z "},"ằ":{"ha":854,"x_min":25,"x_max":835,"o":"m 835 228 l 835 0 l 468 0 l 468 94 q 383 15 438 50 q 249 -19 328 -19 q 85 36 144 -19 q 25 193 25 92 q 471 463 25 456 q 435 527 467 510 q 326 544 403 544 q 192 531 264 544 q 61 496 121 518 l 61 751 q 221 781 135 769 q 389 792 307 792 q 685 717 596 792 q 774 485 774 642 l 774 228 l 835 228 m 468 325 q 372 308 406 325 q 338 253 338 292 q 352 215 338 229 q 393 200 367 200 q 449 231 429 200 q 468 317 468 261 l 468 325 m 438 1094 l 257 1226 l 257 1263 l 494 1263 l 604 1115 l 604 1094 l 438 1094 m 438 844 q 233 888 308 844 q 157 1021 157 931 l 157 1049 l 364 1049 l 364 1021 q 438 958 364 958 q 511 1021 511 958 l 511 1049 l 718 1049 l 718 1021 q 642 888 718 931 q 438 844 567 844 z "},"ẳ":{"ha":854,"x_min":25,"x_max":835,"o":"m 835 228 l 835 0 l 468 0 l 468 94 q 383 15 438 50 q 249 -19 328 -19 q 85 36 144 -19 q 25 193 25 92 q 471 463 25 456 q 435 527 467 510 q 326 544 403 544 q 192 531 264 544 q 61 496 121 518 l 61 751 q 221 781 135 769 q 389 792 307 792 q 685 717 596 792 q 774 485 774 642 l 774 228 l 835 228 m 468 325 q 372 308 406 325 q 338 253 338 292 q 352 215 338 229 q 393 200 367 200 q 449 231 429 200 q 468 317 468 261 l 468 325 m 388 1110 q 417 1148 408 1131 q 426 1188 426 1165 q 408 1235 426 1217 q 356 1253 389 1253 q 293 1244 326 1253 l 293 1349 q 421 1369 356 1369 q 538 1333 496 1369 q 581 1231 581 1296 q 543 1134 581 1178 q 440 1051 506 1090 l 388 1110 m 438 844 q 233 888 308 844 q 157 1021 157 931 l 157 1049 l 364 1049 l 364 1021 q 438 958 364 958 q 511 1021 511 958 l 511 1049 l 718 1049 l 718 1021 q 642 888 718 931 q 438 844 567 844 z "},"ẵ":{"ha":854,"x_min":25,"x_max":835,"o":"m 835 228 l 835 0 l 468 0 l 468 94 q 383 15 438 50 q 249 -19 328 -19 q 85 36 144 -19 q 25 193 25 92 q 471 463 25 456 q 435 527 467 510 q 326 544 403 544 q 192 531 264 544 q 61 496 121 518 l 61 751 q 221 781 135 769 q 389 792 307 792 q 685 717 596 792 q 774 485 774 642 l 774 228 l 835 228 m 468 325 q 372 308 406 325 q 338 253 338 292 q 352 215 338 229 q 393 200 367 200 q 449 231 429 200 q 468 317 468 261 l 468 325 m 547 1104 q 480 1111 511 1104 q 408 1132 449 1118 q 345 1151 369 1144 q 294 1157 321 1157 q 252 1143 268 1157 q 236 1106 236 1129 l 158 1106 q 198 1259 158 1210 q 328 1308 238 1308 q 460 1282 381 1308 q 492 1273 465 1281 q 540 1262 518 1265 q 581 1258 563 1258 q 624 1272 608 1258 q 639 1307 639 1285 l 717 1307 q 678 1153 717 1203 q 547 1104 639 1104 m 438 844 q 233 888 308 844 q 157 1021 157 931 l 157 1049 l 364 1049 l 364 1021 q 438 958 364 958 q 511 1021 511 958 l 511 1049 l 718 1049 l 718 1021 q 642 888 718 931 q 438 844 567 844 z "},"â":{"ha":854,"x_min":25,"x_max":835,"o":"m 835 228 l 835 0 l 468 0 l 468 94 q 383 15 438 50 q 249 -19 328 -19 q 85 36 144 -19 q 25 193 25 92 q 471 463 25 456 q 435 527 467 510 q 326 544 403 544 q 192 531 264 544 q 61 496 121 518 l 61 751 q 221 781 135 769 q 389 792 307 792 q 685 717 596 792 q 774 485 774 642 l 774 228 l 835 228 m 468 325 q 372 308 406 325 q 338 253 338 292 q 352 215 338 229 q 393 200 367 200 q 449 231 429 200 q 468 317 468 261 l 468 325 m 136 856 l 136 876 l 300 1088 l 575 1088 l 739 876 l 739 856 l 531 856 l 444 946 l 431 946 l 344 856 l 136 856 z "},"ấ":{"ha":854,"x_min":25,"x_max":967,"o":"m 835 228 l 835 0 l 468 0 l 468 94 q 383 15 438 50 q 249 -19 328 -19 q 85 36 144 -19 q 25 193 25 92 q 471 463 25 456 q 435 527 467 510 q 326 544 403 544 q 192 531 264 544 q 61 496 121 518 l 61 751 q 221 781 135 769 q 389 792 307 792 q 685 717 596 792 q 774 485 774 642 l 774 228 l 835 228 m 468 325 q 372 308 406 325 q 338 253 338 292 q 352 215 338 229 q 393 200 367 200 q 449 231 429 200 q 468 317 468 261 l 468 325 m 729 1163 l 967 1163 l 967 1126 l 828 994 l 661 994 l 661 1015 l 729 1163 m 313 1058 l 563 1058 l 725 869 l 725 849 l 539 849 l 438 949 l 336 849 l 150 849 l 150 869 l 313 1058 z "},"ậ":{"ha":854,"x_min":25,"x_max":835,"o":"m 835 228 l 835 0 l 468 0 l 468 94 q 383 15 438 50 q 249 -19 328 -19 q 85 36 144 -19 q 25 193 25 92 q 471 463 25 456 q 435 527 467 510 q 326 544 403 544 q 192 531 264 544 q 61 496 121 518 l 61 751 q 221 781 135 769 q 389 792 307 792 q 685 717 596 792 q 774 485 774 642 l 774 228 l 835 228 m 468 325 q 372 308 406 325 q 338 253 338 292 q 352 215 338 229 q 393 200 367 200 q 449 231 429 200 q 468 317 468 261 l 468 325 m 322 -283 l 322 -97 l 539 -97 l 539 -283 l 322 -283 m 563 1058 l 725 869 l 725 849 l 539 849 l 438 949 l 336 849 l 150 849 l 150 869 l 313 1058 l 563 1058 z "},"ầ":{"ha":854,"x_min":25,"x_max":897,"o":"m 835 228 l 835 0 l 468 0 l 468 94 q 383 15 438 50 q 249 -19 328 -19 q 85 36 144 -19 q 25 193 25 92 q 471 463 25 456 q 435 527 467 510 q 326 544 403 544 q 192 531 264 544 q 61 496 121 518 l 61 751 q 221 781 135 769 q 389 792 307 792 q 685 717 596 792 q 774 485 774 642 l 774 228 l 835 228 m 468 325 q 372 308 406 325 q 338 253 338 292 q 352 215 338 229 q 393 200 367 200 q 449 231 429 200 q 468 317 468 261 l 468 325 m 829 1156 l 897 1008 l 897 988 l 731 988 l 592 1119 l 592 1156 l 829 1156 m 313 1058 l 563 1058 l 725 869 l 725 849 l 539 849 l 438 949 l 336 849 l 150 849 l 150 869 l 313 1058 z "},"ẩ":{"ha":854,"x_min":25,"x_max":842,"o":"m 835 228 l 835 0 l 468 0 l 468 94 q 383 15 438 50 q 249 -19 328 -19 q 85 36 144 -19 q 25 193 25 92 q 471 463 25 456 q 435 527 467 510 q 326 544 403 544 q 192 531 264 544 q 61 496 121 518 l 61 751 q 221 781 135 769 q 389 792 307 792 q 685 717 596 792 q 774 485 774 642 l 774 228 l 835 228 m 468 325 q 372 308 406 325 q 338 253 338 292 q 352 215 338 229 q 393 200 367 200 q 449 231 429 200 q 468 317 468 261 l 468 325 m 682 1324 q 799 1287 757 1324 q 842 1185 842 1250 q 701 994 842 1083 l 644 1053 q 678 1097 668 1078 q 688 1142 688 1115 q 669 1189 688 1171 q 617 1207 650 1207 q 554 1199 588 1207 l 554 1303 q 682 1324 617 1324 m 313 1058 l 563 1058 l 725 869 l 725 849 l 539 849 l 438 949 l 336 849 l 150 849 l 150 869 l 313 1058 z "},"ẫ":{"ha":854,"x_min":25,"x_max":835,"o":"m 835 228 l 835 0 l 468 0 l 468 94 q 383 15 438 50 q 249 -19 328 -19 q 85 36 144 -19 q 25 193 25 92 q 471 463 25 456 q 435 527 467 510 q 326 544 403 544 q 192 531 264 544 q 61 496 121 518 l 61 751 q 221 781 135 769 q 389 792 307 792 q 685 717 596 792 q 774 485 774 642 l 774 228 l 835 228 m 468 325 q 372 308 406 325 q 338 253 338 292 q 352 215 338 229 q 393 200 367 200 q 449 231 429 200 q 468 317 468 261 l 468 325 m 294 1154 q 252 1140 268 1154 q 236 1103 236 1126 l 158 1103 q 198 1256 158 1207 q 326 1306 238 1306 q 385 1299 357 1306 q 461 1279 414 1293 q 494 1270 468 1278 q 541 1259 519 1263 q 581 1256 563 1256 q 624 1268 608 1256 q 639 1304 639 1281 l 717 1304 q 678 1151 717 1200 q 549 1101 640 1101 q 482 1108 514 1101 q 408 1129 450 1115 q 345 1148 369 1142 q 294 1154 321 1154 m 563 1058 l 725 869 l 725 849 l 539 849 l 438 949 l 336 849 l 150 849 l 150 869 l 313 1058 l 563 1058 z "},"ȁ":{"ha":854,"x_min":25,"x_max":835,"o":"m 835 228 l 835 0 l 468 0 l 468 94 q 383 15 438 50 q 249 -19 328 -19 q 85 36 144 -19 q 25 193 25 92 q 471 463 25 456 q 435 527 467 510 q 326 544 403 544 q 192 531 264 544 q 61 496 121 518 l 61 751 q 221 781 135 769 q 389 792 307 792 q 685 717 596 792 q 774 485 774 642 l 774 228 l 835 228 m 468 325 q 372 308 406 325 q 338 253 338 292 q 352 215 338 229 q 393 200 367 200 q 449 231 429 200 q 468 317 468 261 l 468 325 m 217 849 l 60 1043 l 60 1081 l 315 1081 l 383 869 l 383 849 l 217 849 m 533 849 l 376 1043 l 376 1081 l 632 1081 l 700 869 l 700 849 l 533 849 z "},"ä":{"ha":854,"x_min":25,"x_max":835,"o":"m 835 228 l 835 0 l 468 0 l 468 94 q 383 15 438 50 q 249 -19 328 -19 q 85 36 144 -19 q 25 193 25 92 q 471 463 25 456 q 435 527 467 510 q 326 544 403 544 q 192 531 264 544 q 61 496 121 518 l 61 751 q 221 781 135 769 q 389 792 307 792 q 685 717 596 792 q 774 485 774 642 l 774 228 l 835 228 m 468 325 q 372 308 406 325 q 338 253 338 292 q 352 215 338 229 q 393 200 367 200 q 449 231 429 200 q 468 317 468 261 l 468 325 m 144 869 l 144 1101 l 376 1101 l 376 869 l 144 869 m 500 869 l 500 1101 l 731 1101 l 731 869 l 500 869 z "},"ạ":{"ha":854,"x_min":25,"x_max":835,"o":"m 835 228 l 835 0 l 468 0 l 468 94 q 383 15 438 50 q 249 -19 328 -19 q 85 36 144 -19 q 25 193 25 92 q 471 463 25 456 q 435 527 467 510 q 326 544 403 544 q 192 531 264 544 q 61 496 121 518 l 61 751 q 221 781 135 769 q 389 792 307 792 q 685 717 596 792 q 774 485 774 642 l 774 228 l 835 228 m 468 325 q 372 308 406 325 q 338 253 338 292 q 352 215 338 229 q 393 200 367 200 q 449 231 429 200 q 468 317 468 261 l 468 325 m 308 -311 l 308 -97 l 553 -97 l 553 -311 l 308 -311 z "},"à":{"ha":854,"x_min":25,"x_max":835,"o":"m 835 228 l 835 0 l 468 0 l 468 94 q 383 15 438 50 q 249 -19 328 -19 q 85 36 144 -19 q 25 193 25 92 q 471 463 25 456 q 435 527 467 510 q 326 544 403 544 q 192 531 264 544 q 61 496 121 518 l 61 751 q 221 781 135 769 q 389 792 307 792 q 685 717 596 792 q 774 485 774 642 l 774 228 l 835 228 m 468 325 q 372 308 406 325 q 338 253 338 292 q 352 215 338 229 q 393 200 367 200 q 449 231 429 200 q 468 317 468 261 l 468 325 m 329 856 l 103 1050 l 103 1088 l 400 1088 l 551 876 l 551 856 l 329 856 z "},"ả":{"ha":854,"x_min":25,"x_max":835,"o":"m 835 228 l 835 0 l 468 0 l 468 94 q 383 15 438 50 q 249 -19 328 -19 q 85 36 144 -19 q 25 193 25 92 q 471 463 25 456 q 435 527 467 510 q 326 544 403 544 q 192 531 264 544 q 61 496 121 518 l 61 751 q 221 781 135 769 q 389 792 307 792 q 685 717 596 792 q 774 485 774 642 l 774 228 l 835 228 m 468 325 q 372 308 406 325 q 338 253 338 292 q 352 215 338 229 q 393 200 367 200 q 449 231 429 200 q 468 317 468 261 l 468 325 m 386 908 q 430 963 417 939 q 443 1018 443 986 q 420 1069 443 1050 q 358 1088 397 1088 q 281 1075 318 1088 l 281 1193 q 429 1226 350 1226 q 554 1187 510 1226 q 599 1076 599 1147 q 449 856 599 954 l 386 908 z "},"ȃ":{"ha":854,"x_min":25,"x_max":835,"o":"m 835 228 l 835 0 l 468 0 l 468 94 q 383 15 438 50 q 249 -19 328 -19 q 85 36 144 -19 q 25 193 25 92 q 471 463 25 456 q 435 527 467 510 q 326 544 403 544 q 192 531 264 544 q 61 496 121 518 l 61 751 q 221 781 135 769 q 389 792 307 792 q 685 717 596 792 q 774 485 774 642 l 774 228 l 835 228 m 468 325 q 372 308 406 325 q 338 253 338 292 q 352 215 338 229 q 393 200 367 200 q 449 231 429 200 q 468 317 468 261 l 468 325 m 143 872 q 221 1043 143 982 q 438 1104 299 1104 q 654 1043 576 1104 q 732 872 732 982 l 732 858 l 525 858 l 525 872 q 438 963 525 963 q 350 872 350 963 l 350 858 l 143 858 l 143 872 z "},"ā":{"ha":854,"x_min":25,"x_max":835,"o":"m 835 228 l 835 0 l 468 0 l 468 94 q 383 15 438 50 q 249 -19 328 -19 q 85 36 144 -19 q 25 193 25 92 q 471 463 25 456 q 435 527 467 510 q 326 544 403 544 q 192 531 264 544 q 61 496 121 518 l 61 751 q 221 781 135 769 q 389 792 307 792 q 685 717 596 792 q 774 485 774 642 l 774 228 l 835 228 m 468 325 q 372 308 406 325 q 338 253 338 292 q 352 215 338 229 q 393 200 367 200 q 449 231 429 200 q 468 317 468 261 l 468 325 m 189 882 l 189 1046 l 686 1046 l 686 882 l 189 882 z "},"ą":{"ha":854,"x_min":25,"x_max":835,"o":"m 678 0 q 646 -81 646 -42 q 669 -140 646 -118 q 735 -161 693 -161 q 818 -149 779 -161 l 818 -267 q 679 -300 751 -300 q 544 -260 593 -300 q 496 -149 496 -221 q 512 -71 496 -110 q 556 0 528 -32 l 468 0 l 468 94 q 383 15 438 50 q 249 -19 328 -19 q 85 36 144 -19 q 25 193 25 92 q 471 463 25 456 q 435 527 467 510 q 326 544 403 544 q 192 531 264 544 q 61 496 121 518 l 61 751 q 221 781 135 769 q 389 792 307 792 q 685 717 596 792 q 774 485 774 642 l 774 228 l 835 228 l 835 0 l 678 0 m 468 325 q 372 308 406 325 q 338 253 338 292 q 352 215 338 229 q 393 200 367 200 q 449 231 429 200 q 468 317 468 261 l 468 325 z "},"å":{"ha":854,"x_min":25,"x_max":835,"o":"m 835 228 l 835 0 l 468 0 l 468 94 q 383 15 438 50 q 249 -19 328 -19 q 85 36 144 -19 q 25 193 25 92 q 471 463 25 456 q 435 527 467 510 q 326 544 403 544 q 192 531 264 544 q 61 496 121 518 l 61 751 q 221 781 135 769 q 389 792 307 792 q 685 717 596 792 q 774 485 774 642 l 774 228 l 835 228 m 468 325 q 372 308 406 325 q 338 253 338 292 q 352 215 338 229 q 393 200 367 200 q 449 231 429 200 q 468 317 468 261 l 468 325 m 442 856 q 317 903 365 856 q 268 1025 268 951 q 317 1147 268 1099 q 442 1194 365 1194 q 567 1147 518 1194 q 615 1025 615 1099 q 567 903 615 951 q 442 856 518 856 m 442 965 q 481 982 465 965 q 496 1025 496 999 q 481 1067 496 1051 q 442 1083 465 1083 q 402 1067 418 1083 q 386 1025 386 1051 q 402 982 386 999 q 442 965 418 965 z "},"ǻ":{"ha":854,"x_min":25,"x_max":835,"o":"m 835 228 l 835 0 l 468 0 l 468 94 q 383 15 438 50 q 249 -19 328 -19 q 85 36 144 -19 q 25 193 25 92 q 471 463 25 456 q 435 527 467 510 q 326 544 403 544 q 192 531 264 544 q 61 496 121 518 l 61 751 q 221 781 135 769 q 389 792 307 792 q 685 717 596 792 q 774 485 774 642 l 774 228 l 835 228 m 468 325 q 372 308 406 325 q 338 253 338 292 q 352 215 338 229 q 393 200 367 200 q 449 231 429 200 q 468 317 468 261 l 468 325 m 442 856 q 317 903 365 856 q 268 1025 268 951 q 317 1147 268 1099 q 442 1194 365 1194 q 567 1147 518 1194 q 615 1025 615 1099 q 567 903 615 951 q 442 856 518 856 m 442 965 q 481 982 465 965 q 496 1025 496 999 q 481 1067 496 1051 q 442 1083 465 1083 q 402 1067 418 1083 q 386 1025 386 1051 q 402 982 386 999 q 442 965 418 965 m 257 1253 l 257 1274 l 408 1407 l 757 1407 l 757 1371 l 531 1253 l 257 1253 z "},"ã":{"ha":854,"x_min":25,"x_max":835,"o":"m 835 228 l 835 0 l 468 0 l 468 94 q 383 15 438 50 q 249 -19 328 -19 q 85 36 144 -19 q 25 193 25 92 q 471 463 25 456 q 435 527 467 510 q 326 544 403 544 q 192 531 264 544 q 61 496 121 518 l 61 751 q 221 781 135 769 q 389 792 307 792 q 685 717 596 792 q 774 485 774 642 l 774 228 l 835 228 m 468 325 q 372 308 406 325 q 338 253 338 292 q 352 215 338 229 q 393 200 367 200 q 449 231 429 200 q 468 317 468 261 l 468 325 m 576 856 q 494 865 533 856 q 404 893 456 875 q 333 915 361 908 q 278 922 304 922 q 235 908 251 922 q 219 871 219 894 l 142 871 q 177 1049 142 990 q 308 1108 213 1108 q 387 1099 351 1108 q 471 1074 422 1090 q 540 1051 513 1058 q 597 1044 568 1044 q 642 1059 628 1044 q 656 1093 656 1074 l 733 1093 q 702 914 733 972 q 576 856 671 856 z "},"æ":{"ha":1257,"x_min":25,"x_max":1240,"o":"m 790 336 l 790 328 q 821 252 790 276 q 922 228 851 228 q 1083 240 1007 228 q 1217 272 1160 253 l 1217 50 q 1074 2 1168 24 q 871 -19 981 -19 q 670 16 757 -19 q 529 121 583 51 q 413 21 482 61 q 249 -19 343 -19 q 85 36 144 -19 q 25 193 25 92 q 471 463 25 456 q 435 527 467 510 q 326 544 403 544 q 192 531 264 544 q 61 496 121 518 l 61 751 q 221 781 135 769 q 389 792 307 792 q 646 725 557 792 q 886 792 746 792 q 1156 689 1072 792 q 1240 436 1240 586 l 1240 336 l 790 336 m 790 489 l 951 489 l 951 506 q 931 574 951 553 q 871 594 911 594 q 810 573 831 594 q 790 506 790 551 l 790 489 m 468 325 q 372 308 406 325 q 338 253 338 292 q 352 215 338 229 q 393 200 367 200 q 449 231 429 200 q 468 317 468 261 l 468 325 z "},"ǽ":{"ha":1257,"x_min":25,"x_max":1240,"o":"m 790 336 l 790 328 q 821 252 790 276 q 922 228 851 228 q 1083 240 1007 228 q 1217 272 1160 253 l 1217 50 q 1074 2 1168 24 q 871 -19 981 -19 q 670 16 757 -19 q 529 121 583 51 q 413 21 482 61 q 249 -19 343 -19 q 85 36 144 -19 q 25 193 25 92 q 471 463 25 456 q 435 527 467 510 q 326 544 403 544 q 192 531 264 544 q 61 496 121 518 l 61 751 q 221 781 135 769 q 389 792 307 792 q 646 725 557 792 q 886 792 746 792 q 1156 689 1072 792 q 1240 436 1240 586 l 1240 336 l 790 336 m 790 489 l 951 489 l 951 506 q 931 574 951 553 q 871 594 911 594 q 810 573 831 594 q 790 506 790 551 l 790 489 m 468 325 q 372 308 406 325 q 338 253 338 292 q 352 215 338 229 q 393 200 367 200 q 449 231 429 200 q 468 317 468 261 l 468 325 m 526 856 l 526 876 l 678 1088 l 975 1088 l 975 1050 l 749 856 l 526 856 z "},"b":{"ha":919,"x_min":25,"x_max":906,"o":"m 621 -19 q 495 15 550 -19 q 406 94 440 50 l 406 0 l 25 0 l 25 228 l 86 228 l 86 853 l 25 853 l 25 1081 l 406 1081 l 406 678 q 495 757 440 722 q 621 792 550 792 q 834 686 763 792 q 906 386 906 581 q 834 86 906 192 q 621 -19 763 -19 m 486 228 q 547 249 526 228 q 567 317 567 271 l 567 456 q 547 523 567 501 q 486 544 526 544 q 426 523 446 544 q 406 456 406 501 l 406 317 q 426 249 406 271 q 486 228 446 228 z "},"c":{"ha":781,"x_min":19,"x_max":758,"o":"m 440 -19 q 131 84 242 -19 q 19 386 19 188 q 131 688 19 585 q 439 792 242 792 q 622 765 535 792 q 758 706 710 739 l 758 431 l 519 431 l 519 456 q 500 523 519 501 q 439 544 481 544 q 358 456 358 544 l 358 336 q 482 228 358 228 q 750 253 597 228 l 750 35 q 617 -3 703 14 q 440 -19 532 -19 z "},"ć":{"ha":781,"x_min":19,"x_max":767,"o":"m 440 -19 q 131 84 242 -19 q 19 386 19 188 q 131 688 19 585 q 439 792 242 792 q 622 765 535 792 q 758 706 710 739 l 758 431 l 519 431 l 519 456 q 500 523 519 501 q 439 544 481 544 q 358 456 358 544 l 358 336 q 482 228 358 228 q 750 253 597 228 l 750 35 q 617 -3 703 14 q 440 -19 532 -19 m 318 856 l 318 876 l 469 1088 l 767 1088 l 767 1050 l 540 856 l 318 856 z "},"č":{"ha":781,"x_min":19,"x_max":758,"o":"m 440 -19 q 131 84 242 -19 q 19 386 19 188 q 131 688 19 585 q 439 792 242 792 q 622 765 535 792 q 758 706 710 739 l 758 431 l 519 431 l 519 456 q 500 523 519 501 q 439 544 481 544 q 358 456 358 544 l 358 336 q 482 228 358 228 q 750 253 597 228 l 750 35 q 617 -3 703 14 q 440 -19 532 -19 m 301 856 l 138 1067 l 138 1088 l 346 1088 l 432 997 l 446 997 l 532 1088 l 740 1088 l 740 1067 l 576 856 l 301 856 z "},"ç":{"ha":781,"x_min":19,"x_max":758,"o":"m 519 431 l 519 456 q 500 523 519 501 q 439 544 481 544 q 358 456 358 544 l 358 336 q 482 228 358 228 q 750 253 597 228 l 750 35 q 644 3 710 18 q 506 -17 579 -12 l 506 -54 q 607 -87 568 -54 q 646 -185 646 -121 q 594 -301 646 -260 q 450 -342 542 -342 q 279 -317 371 -342 l 279 -218 q 435 -237 364 -237 q 470 -225 458 -237 q 482 -193 482 -212 q 470 -161 482 -174 q 435 -149 458 -149 l 374 -149 l 374 -17 q 113 102 206 0 q 19 386 19 204 q 131 688 19 585 q 439 792 242 792 q 622 765 535 792 q 758 706 710 739 l 758 431 l 519 431 z "},"ḉ":{"ha":781,"x_min":19,"x_max":767,"o":"m 469 1088 l 767 1088 l 767 1050 l 540 856 l 318 856 l 318 876 l 469 1088 m 19 386 q 131 688 19 585 q 439 792 242 792 q 622 765 535 792 q 758 706 710 739 l 758 431 l 519 431 l 519 456 q 500 523 519 501 q 439 544 481 544 q 358 456 358 544 l 358 336 q 482 228 358 228 q 750 253 597 228 l 750 35 q 644 3 710 18 q 506 -17 579 -12 l 506 -54 q 607 -87 568 -54 q 646 -185 646 -121 q 594 -301 646 -260 q 450 -342 542 -342 q 279 -317 371 -342 l 279 -218 q 435 -237 364 -237 q 470 -225 458 -237 q 482 -193 482 -212 q 470 -161 482 -174 q 435 -149 458 -149 l 374 -149 l 374 -17 q 113 102 206 0 q 19 386 19 204 z "},"ĉ":{"ha":781,"x_min":19,"x_max":758,"o":"m 440 -19 q 131 84 242 -19 q 19 386 19 188 q 131 688 19 585 q 439 792 242 792 q 622 765 535 792 q 758 706 710 739 l 758 431 l 519 431 l 519 456 q 500 523 519 501 q 439 544 481 544 q 358 456 358 544 l 358 336 q 482 228 358 228 q 750 253 597 228 l 750 35 q 617 -3 703 14 q 440 -19 532 -19 m 138 856 l 138 876 l 301 1088 l 576 1088 l 740 876 l 740 856 l 532 856 l 446 946 l 432 946 l 346 856 l 138 856 z "},"ċ":{"ha":781,"x_min":19,"x_max":758,"o":"m 440 -19 q 131 84 242 -19 q 19 386 19 188 q 131 688 19 585 q 439 792 242 792 q 622 765 535 792 q 758 706 710 739 l 758 431 l 519 431 l 519 456 q 500 523 519 501 q 439 544 481 544 q 358 456 358 544 l 358 336 q 482 228 358 228 q 750 253 597 228 l 750 35 q 617 -3 703 14 q 440 -19 532 -19 m 317 869 l 317 1101 l 561 1101 l 561 869 l 317 869 z "},"d":{"ha":914,"x_min":14,"x_max":894,"o":"m 299 -19 q 85 86 157 -19 q 14 386 14 192 q 85 686 14 581 q 299 792 157 792 q 424 757 369 792 q 514 678 479 722 l 514 853 l 432 853 l 432 1081 l 833 1081 l 833 228 l 894 228 l 894 0 l 514 0 l 514 94 q 424 15 479 50 q 299 -19 369 -19 m 433 228 q 494 249 474 228 q 514 317 514 271 l 514 456 q 494 523 514 501 q 433 544 474 544 q 373 523 393 544 q 353 456 353 501 l 353 317 q 373 249 353 271 q 433 228 393 228 z "},"ð":{"ha":842,"x_min":11,"x_max":850,"o":"m 517 1008 q 766 742 682 889 q 850 428 850 596 q 431 -19 850 -19 q 122 76 233 -19 q 11 358 11 172 q 105 638 11 539 q 363 736 199 736 q 476 721 428 736 l 485 732 q 349 867 421 810 l 236 772 l 156 867 l 246 943 q 110 1025 188 983 l 110 1054 l 268 1153 q 407 1081 346 1117 l 521 1176 l 603 1081 l 517 1008 m 511 400 q 491 467 511 446 q 431 489 471 489 q 370 467 390 489 q 350 400 350 446 l 350 317 q 370 249 350 271 q 431 228 390 228 q 491 249 471 228 q 511 317 511 271 l 511 400 z "},"ď":{"ha":1103,"x_min":14,"x_max":1099,"o":"m 299 -19 q 85 86 157 -19 q 14 386 14 192 q 85 686 14 581 q 299 792 157 792 q 424 757 369 792 q 514 678 479 722 l 514 853 l 432 853 l 432 1081 l 833 1081 l 833 228 l 894 228 l 894 0 l 514 0 l 514 94 q 424 15 479 50 q 299 -19 369 -19 m 433 228 q 494 249 474 228 q 514 317 514 271 l 514 456 q 494 523 514 501 q 433 544 474 544 q 373 523 393 544 q 353 456 353 501 l 353 317 q 373 249 353 271 q 433 228 393 228 m 885 724 l 885 1039 l 1099 1039 l 1099 1001 l 1051 724 l 885 724 z "},"đ":{"ha":931,"x_min":14,"x_max":908,"o":"m 833 867 l 833 228 l 894 228 l 894 0 l 514 0 l 514 94 q 424 15 479 50 q 299 -19 369 -19 q 85 86 157 -19 q 14 386 14 192 q 85 686 14 581 q 299 792 157 792 q 424 757 369 792 q 514 678 479 722 l 514 867 l 279 867 l 279 1007 l 514 1007 l 514 1081 l 833 1081 l 833 1007 l 908 1007 l 908 867 l 833 867 m 514 456 q 494 523 514 501 q 433 544 474 544 q 373 523 393 544 q 353 456 353 501 l 353 317 q 373 249 353 271 q 433 228 393 228 q 494 249 474 228 q 514 317 514 271 l 514 456 z "},"ḍ":{"ha":914,"x_min":14,"x_max":894,"o":"m 299 -19 q 85 86 157 -19 q 14 386 14 192 q 85 686 14 581 q 299 792 157 792 q 424 757 369 792 q 514 678 479 722 l 514 853 l 432 853 l 432 1081 l 833 1081 l 833 228 l 894 228 l 894 0 l 514 0 l 514 94 q 424 15 479 50 q 299 -19 369 -19 m 433 228 q 494 249 474 228 q 514 317 514 271 l 514 456 q 494 523 514 501 q 433 544 474 544 q 373 523 393 544 q 353 456 353 501 l 353 317 q 373 249 353 271 q 433 228 393 228 m 363 -311 l 363 -97 l 607 -97 l 607 -311 l 363 -311 z "},"ḏ":{"ha":914,"x_min":14,"x_max":894,"o":"m 299 -19 q 85 86 157 -19 q 14 386 14 192 q 85 686 14 581 q 299 792 157 792 q 424 757 369 792 q 514 678 479 722 l 514 853 l 432 853 l 432 1081 l 833 1081 l 833 228 l 894 228 l 894 0 l 514 0 l 514 94 q 424 15 479 50 q 299 -19 369 -19 m 433 228 q 494 249 474 228 q 514 317 514 271 l 514 456 q 494 523 514 501 q 433 544 474 544 q 373 523 393 544 q 353 456 353 501 l 353 317 q 373 249 353 271 q 433 228 393 228 m 235 -261 l 235 -111 l 732 -111 l 732 -261 l 235 -261 z "},"ǆ":{"ha":1703,"x_min":14,"x_max":1683,"o":"m 299 -19 q 85 86 157 -19 q 14 386 14 192 q 85 686 14 581 q 299 792 157 792 q 424 757 369 792 q 514 678 479 722 l 514 853 l 432 853 l 432 1081 l 833 1081 l 833 228 l 894 228 l 894 0 l 514 0 l 514 94 q 424 15 479 50 q 299 -19 369 -19 m 433 228 q 494 249 474 228 q 514 317 514 271 l 514 456 q 494 523 514 501 q 433 544 474 544 q 373 523 393 544 q 353 456 353 501 l 353 317 q 373 249 353 271 q 433 228 393 228 m 933 0 l 933 207 l 1272 544 l 1149 544 l 1149 494 l 942 494 l 942 772 l 1671 772 l 1671 574 l 1340 228 l 1474 228 l 1474 306 l 1683 306 l 1683 0 l 933 0 m 1169 856 l 1006 1067 l 1006 1088 l 1214 1088 l 1300 997 l 1314 997 l 1400 1088 l 1608 1088 l 1608 1067 l 1444 856 l 1169 856 z "},"e":{"ha":825,"x_min":19,"x_max":808,"o":"m 439 -19 q 131 84 242 -19 q 19 386 19 188 q 131 688 19 585 q 439 792 242 792 q 722 690 635 792 q 808 436 808 588 l 808 336 l 358 336 l 358 328 q 389 252 358 276 q 490 228 419 228 q 651 240 575 228 q 785 272 728 253 l 785 50 q 642 2 736 24 q 439 -19 549 -19 m 519 489 l 519 506 q 499 574 519 553 q 439 594 479 594 q 378 573 399 594 q 358 506 358 551 l 358 489 l 519 489 z "},"é":{"ha":825,"x_min":19,"x_max":808,"o":"m 439 -19 q 131 84 242 -19 q 19 386 19 188 q 131 688 19 585 q 439 792 242 792 q 722 690 635 792 q 808 436 808 588 l 808 336 l 358 336 l 358 328 q 389 252 358 276 q 490 228 419 228 q 651 240 575 228 q 785 272 728 253 l 785 50 q 642 2 736 24 q 439 -19 549 -19 m 519 489 l 519 506 q 499 574 519 553 q 439 594 479 594 q 378 573 399 594 q 358 506 358 551 l 358 489 l 519 489 m 318 856 l 318 876 l 469 1088 l 767 1088 l 767 1050 l 540 856 l 318 856 z "},"ĕ":{"ha":825,"x_min":19,"x_max":808,"o":"m 439 -19 q 131 84 242 -19 q 19 386 19 188 q 131 688 19 585 q 439 792 242 792 q 722 690 635 792 q 808 436 808 588 l 808 336 l 358 336 l 358 328 q 389 252 358 276 q 490 228 419 228 q 651 240 575 228 q 785 272 728 253 l 785 50 q 642 2 736 24 q 439 -19 549 -19 m 519 489 l 519 506 q 499 574 519 553 q 439 594 479 594 q 378 573 399 594 q 358 506 358 551 l 358 489 l 519 489 m 439 858 q 222 919 300 858 q 144 1090 144 981 l 144 1104 l 351 1104 l 351 1090 q 439 1000 351 1000 q 526 1090 526 1000 l 526 1104 l 733 1104 l 733 1090 q 656 919 733 981 q 439 858 578 858 z "},"ě":{"ha":825,"x_min":19,"x_max":808,"o":"m 439 -19 q 131 84 242 -19 q 19 386 19 188 q 131 688 19 585 q 439 792 242 792 q 722 690 635 792 q 808 436 808 588 l 808 336 l 358 336 l 358 328 q 389 252 358 276 q 490 228 419 228 q 651 240 575 228 q 785 272 728 253 l 785 50 q 642 2 736 24 q 439 -19 549 -19 m 519 489 l 519 506 q 499 574 519 553 q 439 594 479 594 q 378 573 399 594 q 358 506 358 551 l 358 489 l 519 489 m 301 856 l 138 1067 l 138 1088 l 346 1088 l 432 997 l 446 997 l 532 1088 l 740 1088 l 740 1067 l 576 856 l 301 856 z "},"ḝ":{"ha":825,"x_min":19,"x_max":808,"o":"m 439 858 q 222 919 300 858 q 144 1090 144 981 l 144 1104 l 351 1104 l 351 1090 q 439 1000 351 1000 q 526 1090 526 1000 l 526 1104 l 733 1104 l 733 1090 q 656 919 733 981 q 439 858 578 858 m 358 336 l 358 328 q 389 252 358 276 q 490 228 419 228 q 651 240 575 228 q 785 272 728 253 l 785 50 q 669 8 743 28 q 504 -17 594 -11 l 504 -54 q 606 -87 567 -54 q 644 -185 644 -121 q 592 -301 644 -260 q 449 -342 540 -342 q 278 -317 369 -342 l 278 -218 q 433 -237 363 -237 q 469 -225 457 -237 q 481 -193 481 -212 q 469 -161 481 -174 q 433 -149 457 -149 l 372 -149 l 372 -17 q 113 102 206 0 q 19 386 19 204 q 131 688 19 585 q 439 792 242 792 q 722 690 635 792 q 808 436 808 588 l 808 336 l 358 336 m 358 489 l 519 489 l 519 506 q 499 574 519 553 q 439 594 479 594 q 378 573 399 594 q 358 506 358 551 l 358 489 z "},"ê":{"ha":825,"x_min":19,"x_max":808,"o":"m 439 -19 q 131 84 242 -19 q 19 386 19 188 q 131 688 19 585 q 439 792 242 792 q 722 690 635 792 q 808 436 808 588 l 808 336 l 358 336 l 358 328 q 389 252 358 276 q 490 228 419 228 q 651 240 575 228 q 785 272 728 253 l 785 50 q 642 2 736 24 q 439 -19 549 -19 m 519 489 l 519 506 q 499 574 519 553 q 439 594 479 594 q 378 573 399 594 q 358 506 358 551 l 358 489 l 519 489 m 138 856 l 138 876 l 301 1088 l 576 1088 l 740 876 l 740 856 l 532 856 l 446 946 l 432 946 l 346 856 l 138 856 z "},"ế":{"ha":825,"x_min":19,"x_max":968,"o":"m 439 -19 q 131 84 242 -19 q 19 386 19 188 q 131 688 19 585 q 439 792 242 792 q 722 690 635 792 q 808 436 808 588 l 808 336 l 358 336 l 358 328 q 389 252 358 276 q 490 228 419 228 q 651 240 575 228 q 785 272 728 253 l 785 50 q 642 2 736 24 q 439 -19 549 -19 m 519 489 l 519 506 q 499 574 519 553 q 439 594 479 594 q 378 573 399 594 q 358 506 358 551 l 358 489 l 519 489 m 731 1163 l 968 1163 l 968 1126 l 829 994 l 663 994 l 663 1015 l 731 1163 m 314 1058 l 564 1058 l 726 869 l 726 849 l 540 849 l 439 949 l 338 849 l 151 849 l 151 869 l 314 1058 z "},"ệ":{"ha":825,"x_min":19,"x_max":808,"o":"m 439 -19 q 131 84 242 -19 q 19 386 19 188 q 131 688 19 585 q 439 792 242 792 q 722 690 635 792 q 808 436 808 588 l 808 336 l 358 336 l 358 328 q 389 252 358 276 q 490 228 419 228 q 651 240 575 228 q 785 272 728 253 l 785 50 q 642 2 736 24 q 439 -19 549 -19 m 519 489 l 519 506 q 499 574 519 553 q 439 594 479 594 q 378 573 399 594 q 358 506 358 551 l 358 489 l 519 489 m 331 -283 l 331 -97 l 547 -97 l 547 -283 l 331 -283 m 564 1058 l 726 869 l 726 849 l 540 849 l 439 949 l 338 849 l 151 849 l 151 869 l 314 1058 l 564 1058 z "},"ề":{"ha":825,"x_min":19,"x_max":899,"o":"m 439 -19 q 131 84 242 -19 q 19 386 19 188 q 131 688 19 585 q 439 792 242 792 q 722 690 635 792 q 808 436 808 588 l 808 336 l 358 336 l 358 328 q 389 252 358 276 q 490 228 419 228 q 651 240 575 228 q 785 272 728 253 l 785 50 q 642 2 736 24 q 439 -19 549 -19 m 519 489 l 519 506 q 499 574 519 553 q 439 594 479 594 q 378 573 399 594 q 358 506 358 551 l 358 489 l 519 489 m 831 1156 l 899 1008 l 899 988 l 732 988 l 593 1119 l 593 1156 l 831 1156 m 314 1058 l 564 1058 l 726 869 l 726 849 l 540 849 l 439 949 l 338 849 l 151 849 l 151 869 l 314 1058 z "},"ể":{"ha":825,"x_min":19,"x_max":843,"o":"m 439 -19 q 131 84 242 -19 q 19 386 19 188 q 131 688 19 585 q 439 792 242 792 q 722 690 635 792 q 808 436 808 588 l 808 336 l 358 336 l 358 328 q 389 252 358 276 q 490 228 419 228 q 651 240 575 228 q 785 272 728 253 l 785 50 q 642 2 736 24 q 439 -19 549 -19 m 519 489 l 519 506 q 499 574 519 553 q 439 594 479 594 q 378 573 399 594 q 358 506 358 551 l 358 489 l 519 489 m 683 1324 q 801 1287 758 1324 q 843 1185 843 1250 q 703 994 843 1083 l 646 1053 q 679 1097 669 1078 q 689 1142 689 1115 q 670 1189 689 1171 q 618 1207 651 1207 q 556 1199 589 1207 l 556 1303 q 683 1324 618 1324 m 314 1058 l 564 1058 l 726 869 l 726 849 l 540 849 l 439 949 l 338 849 l 151 849 l 151 869 l 314 1058 z "},"ễ":{"ha":825,"x_min":19,"x_max":808,"o":"m 439 -19 q 131 84 242 -19 q 19 386 19 188 q 131 688 19 585 q 439 792 242 792 q 722 690 635 792 q 808 436 808 588 l 808 336 l 358 336 l 358 328 q 389 252 358 276 q 490 228 419 228 q 651 240 575 228 q 785 272 728 253 l 785 50 q 642 2 736 24 q 439 -19 549 -19 m 519 489 l 519 506 q 499 574 519 553 q 439 594 479 594 q 378 573 399 594 q 358 506 358 551 l 358 489 l 519 489 m 296 1154 q 253 1140 269 1154 q 238 1103 238 1126 l 160 1103 q 199 1256 160 1207 q 328 1306 239 1306 q 387 1299 358 1306 q 463 1279 415 1293 q 495 1270 469 1278 q 542 1259 521 1263 q 582 1256 564 1256 q 625 1268 610 1256 q 640 1304 640 1281 l 718 1304 q 680 1151 718 1200 q 550 1101 642 1101 q 483 1108 515 1101 q 410 1129 451 1115 q 347 1148 371 1142 q 296 1154 322 1154 m 564 1058 l 726 869 l 726 849 l 540 849 l 439 949 l 338 849 l 151 849 l 151 869 l 314 1058 l 564 1058 z "},"ȅ":{"ha":825,"x_min":19,"x_max":808,"o":"m 439 -19 q 131 84 242 -19 q 19 386 19 188 q 131 688 19 585 q 439 792 242 792 q 722 690 635 792 q 808 436 808 588 l 808 336 l 358 336 l 358 328 q 389 252 358 276 q 490 228 419 228 q 651 240 575 228 q 785 272 728 253 l 785 50 q 642 2 736 24 q 439 -19 549 -19 m 519 489 l 519 506 q 499 574 519 553 q 439 594 479 594 q 378 573 399 594 q 358 506 358 551 l 358 489 l 519 489 m 218 849 l 61 1043 l 61 1081 l 317 1081 l 385 869 l 385 849 l 218 849 m 535 849 l 378 1043 l 378 1081 l 633 1081 l 701 869 l 701 849 l 535 849 z "},"ë":{"ha":825,"x_min":19,"x_max":808,"o":"m 439 -19 q 131 84 242 -19 q 19 386 19 188 q 131 688 19 585 q 439 792 242 792 q 722 690 635 792 q 808 436 808 588 l 808 336 l 358 336 l 358 328 q 389 252 358 276 q 490 228 419 228 q 651 240 575 228 q 785 272 728 253 l 785 50 q 642 2 736 24 q 439 -19 549 -19 m 519 489 l 519 506 q 499 574 519 553 q 439 594 479 594 q 378 573 399 594 q 358 506 358 551 l 358 489 l 519 489 m 146 869 l 146 1101 l 378 1101 l 378 869 l 146 869 m 501 869 l 501 1101 l 732 1101 l 732 869 l 501 869 z "},"ė":{"ha":825,"x_min":19,"x_max":808,"o":"m 439 -19 q 131 84 242 -19 q 19 386 19 188 q 131 688 19 585 q 439 792 242 792 q 722 690 635 792 q 808 436 808 588 l 808 336 l 358 336 l 358 328 q 389 252 358 276 q 490 228 419 228 q 651 240 575 228 q 785 272 728 253 l 785 50 q 642 2 736 24 q 439 -19 549 -19 m 519 489 l 519 506 q 499 574 519 553 q 439 594 479 594 q 378 573 399 594 q 358 506 358 551 l 358 489 l 519 489 m 317 869 l 317 1101 l 561 1101 l 561 869 l 317 869 z "},"ẹ":{"ha":825,"x_min":19,"x_max":808,"o":"m 439 -19 q 131 84 242 -19 q 19 386 19 188 q 131 688 19 585 q 439 792 242 792 q 722 690 635 792 q 808 436 808 588 l 808 336 l 358 336 l 358 328 q 389 252 358 276 q 490 228 419 228 q 651 240 575 228 q 785 272 728 253 l 785 50 q 642 2 736 24 q 439 -19 549 -19 m 519 489 l 519 506 q 499 574 519 553 q 439 594 479 594 q 378 573 399 594 q 358 506 358 551 l 358 489 l 519 489 m 317 -311 l 317 -97 l 561 -97 l 561 -311 l 317 -311 z "},"è":{"ha":825,"x_min":19,"x_max":808,"o":"m 439 -19 q 131 84 242 -19 q 19 386 19 188 q 131 688 19 585 q 439 792 242 792 q 722 690 635 792 q 808 436 808 588 l 808 336 l 358 336 l 358 328 q 389 252 358 276 q 490 228 419 228 q 651 240 575 228 q 785 272 728 253 l 785 50 q 642 2 736 24 q 439 -19 549 -19 m 519 489 l 519 506 q 499 574 519 553 q 439 594 479 594 q 378 573 399 594 q 358 506 358 551 l 358 489 l 519 489 m 331 856 l 104 1050 l 104 1088 l 401 1088 l 553 876 l 553 856 l 331 856 z "},"ẻ":{"ha":825,"x_min":19,"x_max":808,"o":"m 439 -19 q 131 84 242 -19 q 19 386 19 188 q 131 688 19 585 q 439 792 242 792 q 722 690 635 792 q 808 436 808 588 l 808 336 l 358 336 l 358 328 q 389 252 358 276 q 490 228 419 228 q 651 240 575 228 q 785 272 728 253 l 785 50 q 642 2 736 24 q 439 -19 549 -19 m 519 489 l 519 506 q 499 574 519 553 q 439 594 479 594 q 378 573 399 594 q 358 506 358 551 l 358 489 l 519 489 m 388 908 q 431 963 418 939 q 444 1018 444 986 q 422 1069 444 1050 q 360 1088 399 1088 q 282 1075 319 1088 l 282 1193 q 431 1226 351 1226 q 556 1187 511 1226 q 600 1076 600 1147 q 450 856 600 954 l 388 908 z "},"ȇ":{"ha":825,"x_min":19,"x_max":808,"o":"m 439 -19 q 131 84 242 -19 q 19 386 19 188 q 131 688 19 585 q 439 792 242 792 q 722 690 635 792 q 808 436 808 588 l 808 336 l 358 336 l 358 328 q 389 252 358 276 q 490 228 419 228 q 651 240 575 228 q 785 272 728 253 l 785 50 q 642 2 736 24 q 439 -19 549 -19 m 519 489 l 519 506 q 499 574 519 553 q 439 594 479 594 q 378 573 399 594 q 358 506 358 551 l 358 489 l 519 489 m 144 872 q 222 1043 144 982 q 439 1104 300 1104 q 656 1043 578 1104 q 733 872 733 982 l 733 858 l 526 858 l 526 872 q 439 963 526 963 q 351 872 351 963 l 351 858 l 144 858 l 144 872 z "},"ē":{"ha":825,"x_min":19,"x_max":808,"o":"m 439 -19 q 131 84 242 -19 q 19 386 19 188 q 131 688 19 585 q 439 792 242 792 q 722 690 635 792 q 808 436 808 588 l 808 336 l 358 336 l 358 328 q 389 252 358 276 q 490 228 419 228 q 651 240 575 228 q 785 272 728 253 l 785 50 q 642 2 736 24 q 439 -19 549 -19 m 519 489 l 519 506 q 499 574 519 553 q 439 594 479 594 q 378 573 399 594 q 358 506 358 551 l 358 489 l 519 489 m 190 882 l 190 1046 l 688 1046 l 688 882 l 190 882 z "},"ḗ":{"ha":825,"x_min":19,"x_max":808,"o":"m 439 -19 q 131 84 242 -19 q 19 386 19 188 q 131 688 19 585 q 439 792 242 792 q 722 690 635 792 q 808 436 808 588 l 808 336 l 358 336 l 358 328 q 389 252 358 276 q 490 228 419 228 q 651 240 575 228 q 785 272 728 253 l 785 50 q 642 2 736 24 q 439 -19 549 -19 m 519 489 l 519 506 q 499 574 519 553 q 439 594 479 594 q 378 573 399 594 q 358 506 358 551 l 358 489 l 519 489 m 190 882 l 190 1046 l 688 1046 l 688 882 l 190 882 m 258 1129 l 258 1150 l 410 1283 l 758 1283 l 758 1247 l 532 1129 l 258 1129 z "},"ḕ":{"ha":825,"x_min":19,"x_max":808,"o":"m 439 -19 q 131 84 242 -19 q 19 386 19 188 q 131 688 19 585 q 439 792 242 792 q 722 690 635 792 q 808 436 808 588 l 808 336 l 358 336 l 358 328 q 389 252 358 276 q 490 228 419 228 q 651 240 575 228 q 785 272 728 253 l 785 50 q 642 2 736 24 q 439 -19 549 -19 m 519 489 l 519 506 q 499 574 519 553 q 439 594 479 594 q 378 573 399 594 q 358 506 358 551 l 358 489 l 519 489 m 190 882 l 190 1046 l 688 1046 l 688 882 l 190 882 m 349 1129 l 122 1247 l 122 1283 l 471 1283 l 622 1150 l 622 1129 l 349 1129 z "},"ę":{"ha":825,"x_min":19,"x_max":808,"o":"m 358 336 l 358 328 q 389 252 358 276 q 490 228 419 228 q 651 240 575 228 q 785 272 728 253 l 785 50 q 662 6 742 26 q 485 -18 582 -14 q 467 -81 467 -50 q 490 -140 467 -118 q 556 -161 514 -161 q 639 -149 599 -161 l 639 -267 q 500 -300 572 -300 q 365 -260 414 -300 q 317 -149 317 -221 q 364 -15 317 -78 q 110 106 200 4 q 19 386 19 207 q 131 688 19 585 q 439 792 242 792 q 722 690 635 792 q 808 436 808 588 l 808 336 l 358 336 m 358 489 l 519 489 l 519 506 q 499 574 519 553 q 439 594 479 594 q 378 573 399 594 q 358 506 358 551 l 358 489 z "},"ẽ":{"ha":825,"x_min":19,"x_max":808,"o":"m 439 -19 q 131 84 242 -19 q 19 386 19 188 q 131 688 19 585 q 439 792 242 792 q 722 690 635 792 q 808 436 808 588 l 808 336 l 358 336 l 358 328 q 389 252 358 276 q 490 228 419 228 q 651 240 575 228 q 785 272 728 253 l 785 50 q 642 2 736 24 q 439 -19 549 -19 m 519 489 l 519 506 q 499 574 519 553 q 439 594 479 594 q 378 573 399 594 q 358 506 358 551 l 358 489 l 519 489 m 578 856 q 496 865 535 856 q 406 893 457 875 q 334 915 363 908 q 279 922 306 922 q 237 908 253 922 q 221 871 221 894 l 143 871 q 178 1049 143 990 q 310 1108 214 1108 q 388 1099 353 1108 q 472 1074 424 1090 q 542 1051 514 1058 q 599 1044 569 1044 q 643 1059 629 1044 q 657 1093 657 1074 l 735 1093 q 703 914 735 972 q 578 856 672 856 z "},"ə":{"ha":825,"x_min":17,"x_max":806,"o":"m 394 -19 q 105 83 193 -19 q 17 336 17 185 l 17 436 l 467 436 l 467 444 q 433 520 467 496 q 321 544 399 544 q 40 500 188 544 l 40 722 q 205 772 111 753 q 386 792 299 792 q 694 688 583 792 q 806 385 806 585 q 697 83 806 186 q 394 -19 588 -19 m 386 178 q 447 199 426 178 q 467 267 467 221 l 467 283 l 306 283 l 306 267 q 326 199 306 219 q 386 178 346 178 z "},"f":{"ha":533,"x_min":25,"x_max":638,"o":"m 25 228 l 86 228 l 86 544 l 25 544 l 25 772 l 89 772 q 172 1021 89 942 q 413 1100 254 1100 q 549 1089 489 1100 q 638 1064 610 1078 l 638 846 q 501 853 564 853 q 426 835 447 853 q 406 772 406 817 l 514 772 l 514 544 l 406 544 l 406 228 l 514 228 l 514 0 l 25 0 l 25 228 z "},"g":{"ha":908,"x_min":14,"x_max":894,"o":"m 432 -328 q 241 -314 332 -328 q 100 -282 150 -300 l 100 -54 q 364 -81 247 -81 q 478 -56 443 -81 q 514 35 514 -32 l 514 94 q 424 15 479 50 q 299 -19 369 -19 q 85 86 157 -19 q 14 386 14 192 q 85 686 14 581 q 299 792 157 792 q 424 757 369 792 q 514 678 479 722 l 514 772 l 894 772 l 894 544 l 833 544 l 833 56 q 733 -237 833 -146 q 432 -328 633 -328 m 433 228 q 494 249 474 228 q 514 317 514 271 l 514 456 q 494 523 514 501 q 433 544 474 544 q 373 523 393 544 q 353 456 353 501 l 353 317 q 373 249 353 271 q 433 228 393 228 z "},"ğ":{"ha":908,"x_min":14,"x_max":894,"o":"m 432 -328 q 241 -314 332 -328 q 100 -282 150 -300 l 100 -54 q 364 -81 247 -81 q 478 -56 443 -81 q 514 35 514 -32 l 514 94 q 424 15 479 50 q 299 -19 369 -19 q 85 86 157 -19 q 14 386 14 192 q 85 686 14 581 q 299 792 157 792 q 424 757 369 792 q 514 678 479 722 l 514 772 l 894 772 l 894 544 l 833 544 l 833 56 q 733 -237 833 -146 q 432 -328 633 -328 m 433 228 q 494 249 474 228 q 514 317 514 271 l 514 456 q 494 523 514 501 q 433 544 474 544 q 373 523 393 544 q 353 456 353 501 l 353 317 q 373 249 353 271 q 433 228 393 228 m 475 858 q 258 919 336 858 q 181 1090 181 981 l 181 1104 l 388 1104 l 388 1090 q 475 1000 388 1000 q 563 1090 563 1000 l 563 1104 l 769 1104 l 769 1090 q 692 919 769 981 q 475 858 614 858 z "},"ǧ":{"ha":908,"x_min":14,"x_max":894,"o":"m 432 -328 q 241 -314 332 -328 q 100 -282 150 -300 l 100 -54 q 364 -81 247 -81 q 478 -56 443 -81 q 514 35 514 -32 l 514 94 q 424 15 479 50 q 299 -19 369 -19 q 85 86 157 -19 q 14 386 14 192 q 85 686 14 581 q 299 792 157 792 q 424 757 369 792 q 514 678 479 722 l 514 772 l 894 772 l 894 544 l 833 544 l 833 56 q 733 -237 833 -146 q 432 -328 633 -328 m 433 228 q 494 249 474 228 q 514 317 514 271 l 514 456 q 494 523 514 501 q 433 544 474 544 q 373 523 393 544 q 353 456 353 501 l 353 317 q 373 249 353 271 q 433 228 393 228 m 338 856 l 174 1067 l 174 1088 l 382 1088 l 468 997 l 482 997 l 568 1088 l 776 1088 l 776 1067 l 613 856 l 338 856 z "},"ĝ":{"ha":908,"x_min":14,"x_max":894,"o":"m 432 -328 q 241 -314 332 -328 q 100 -282 150 -300 l 100 -54 q 364 -81 247 -81 q 478 -56 443 -81 q 514 35 514 -32 l 514 94 q 424 15 479 50 q 299 -19 369 -19 q 85 86 157 -19 q 14 386 14 192 q 85 686 14 581 q 299 792 157 792 q 424 757 369 792 q 514 678 479 722 l 514 772 l 894 772 l 894 544 l 833 544 l 833 56 q 733 -237 833 -146 q 432 -328 633 -328 m 433 228 q 494 249 474 228 q 514 317 514 271 l 514 456 q 494 523 514 501 q 433 544 474 544 q 373 523 393 544 q 353 456 353 501 l 353 317 q 373 249 353 271 q 433 228 393 228 m 174 856 l 174 876 l 338 1088 l 613 1088 l 776 876 l 776 856 l 568 856 l 482 946 l 468 946 l 382 856 l 174 856 z "},"ģ":{"ha":908,"x_min":14,"x_max":894,"o":"m 432 -328 q 241 -314 332 -328 q 100 -282 150 -300 l 100 -54 q 364 -81 247 -81 q 478 -56 443 -81 q 514 35 514 -32 l 514 94 q 424 15 479 50 q 299 -19 369 -19 q 85 86 157 -19 q 14 386 14 192 q 85 686 14 581 q 299 792 157 792 q 424 757 369 792 q 514 678 479 722 l 514 772 l 894 772 l 894 544 l 833 544 l 833 56 q 733 -237 833 -146 q 432 -328 633 -328 m 433 228 q 494 249 474 228 q 514 317 514 271 l 514 456 q 494 523 514 501 q 433 544 474 544 q 373 523 393 544 q 353 456 353 501 l 353 317 q 373 249 353 271 q 433 228 393 228 m 369 856 l 369 1039 l 446 1196 l 565 1196 l 521 1039 l 578 1039 l 578 856 l 369 856 z "},"ġ":{"ha":908,"x_min":14,"x_max":894,"o":"m 432 -328 q 241 -314 332 -328 q 100 -282 150 -300 l 100 -54 q 364 -81 247 -81 q 478 -56 443 -81 q 514 35 514 -32 l 514 94 q 424 15 479 50 q 299 -19 369 -19 q 85 86 157 -19 q 14 386 14 192 q 85 686 14 581 q 299 792 157 792 q 424 757 369 792 q 514 678 479 722 l 514 772 l 894 772 l 894 544 l 833 544 l 833 56 q 733 -237 833 -146 q 432 -328 633 -328 m 433 228 q 494 249 474 228 q 514 317 514 271 l 514 456 q 494 523 514 501 q 433 544 474 544 q 373 523 393 544 q 353 456 353 501 l 353 317 q 373 249 353 271 q 433 228 393 228 m 353 869 l 353 1101 l 597 1101 l 597 869 l 353 869 z "},"ḡ":{"ha":908,"x_min":14,"x_max":894,"o":"m 432 -328 q 241 -314 332 -328 q 100 -282 150 -300 l 100 -54 q 364 -81 247 -81 q 478 -56 443 -81 q 514 35 514 -32 l 514 94 q 424 15 479 50 q 299 -19 369 -19 q 85 86 157 -19 q 14 386 14 192 q 85 686 14 581 q 299 792 157 792 q 424 757 369 792 q 514 678 479 722 l 514 772 l 894 772 l 894 544 l 833 544 l 833 56 q 733 -237 833 -146 q 432 -328 633 -328 m 433 228 q 494 249 474 228 q 514 317 514 271 l 514 456 q 494 523 514 501 q 433 544 474 544 q 373 523 393 544 q 353 456 353 501 l 353 317 q 373 249 353 271 q 433 228 393 228 m 226 882 l 226 1046 l 724 1046 l 724 882 l 226 882 z "},"h":{"ha":967,"x_min":25,"x_max":947,"o":"m 947 228 l 947 0 l 508 0 l 508 228 l 567 228 l 567 456 q 547 523 567 501 q 489 544 528 544 q 406 456 406 544 l 406 228 l 464 228 l 464 0 l 25 0 l 25 228 l 86 228 l 86 853 l 25 853 l 25 1081 l 406 1081 l 406 664 q 517 760 457 728 q 656 792 576 792 q 828 719 771 792 q 886 521 886 647 l 886 228 l 947 228 z "},"ħ":{"ha":961,"x_min":11,"x_max":947,"o":"m 947 228 l 947 0 l 506 0 l 506 228 l 567 228 l 567 456 q 547 523 567 501 q 486 544 526 544 q 426 523 446 544 q 406 456 406 501 l 406 228 l 467 228 l 467 0 l 25 0 l 25 228 l 86 228 l 86 867 l 11 867 l 11 1007 l 86 1007 l 86 1081 l 406 1081 l 406 1007 l 640 1007 l 640 867 l 406 867 l 406 678 q 467 735 440 713 q 539 774 494 757 q 640 792 583 792 q 822 708 757 792 q 886 456 886 625 l 886 228 l 947 228 z "},"ḫ":{"ha":967,"x_min":25,"x_max":947,"o":"m 947 228 l 947 0 l 508 0 l 508 228 l 567 228 l 567 456 q 547 523 567 501 q 489 544 528 544 q 406 456 406 544 l 406 228 l 464 228 l 464 0 l 25 0 l 25 228 l 86 228 l 86 853 l 25 853 l 25 1081 l 406 1081 l 406 664 q 517 760 457 728 q 656 792 576 792 q 828 719 771 792 q 886 521 886 647 l 886 228 l 947 228 m 486 -301 q 269 -247 347 -301 q 192 -97 192 -193 l 192 -83 l 399 -83 l 399 -97 q 486 -160 399 -160 q 574 -97 574 -160 l 574 -83 l 781 -83 l 781 -97 q 703 -247 781 -193 q 486 -301 625 -301 z "},"ĥ":{"ha":967,"x_min":-132,"x_max":947,"o":"m 947 228 l 947 0 l 508 0 l 508 228 l 567 228 l 567 456 q 547 523 567 501 q 489 544 528 544 q 406 456 406 544 l 406 228 l 464 228 l 464 0 l 25 0 l 25 228 l 86 228 l 86 853 l 25 853 l 25 1081 l 406 1081 l 406 664 q 517 760 457 728 q 656 792 576 792 q 828 719 771 792 q 886 521 886 647 l 886 228 l 947 228 m -132 1164 l -132 1185 l 44 1360 l 392 1360 l 568 1185 l 568 1164 l 354 1164 l 225 1276 l 211 1276 l 82 1164 l -132 1164 z "},"ḥ":{"ha":967,"x_min":25,"x_max":947,"o":"m 947 228 l 947 0 l 508 0 l 508 228 l 567 228 l 567 456 q 547 523 567 501 q 489 544 528 544 q 406 456 406 544 l 406 228 l 464 228 l 464 0 l 25 0 l 25 228 l 86 228 l 86 853 l 25 853 l 25 1081 l 406 1081 l 406 664 q 517 760 457 728 q 656 792 576 792 q 828 719 771 792 q 886 521 886 647 l 886 228 l 947 228 m 364 -311 l 364 -97 l 608 -97 l 608 -311 l 364 -311 z "},"i":{"ha":481,"x_min":25,"x_max":467,"o":"m 92 849 l 92 1081 l 375 1081 l 375 849 l 92 849 m 25 0 l 25 228 l 86 228 l 86 544 l 25 544 l 25 772 l 406 772 l 406 228 l 467 228 l 467 0 l 25 0 z "},"ı":{"ha":481,"x_min":25,"x_max":467,"o":"m 25 0 l 25 228 l 86 228 l 86 544 l 25 544 l 25 772 l 406 772 l 406 228 l 467 228 l 467 0 l 25 0 z "},"í":{"ha":481,"x_min":25,"x_max":560,"o":"m 25 0 l 25 228 l 86 228 l 86 544 l 25 544 l 25 772 l 406 772 l 406 228 l 467 228 l 467 0 l 25 0 m 111 856 l 111 876 l 263 1088 l 560 1088 l 560 1050 l 333 856 l 111 856 z "},"ĭ":{"ha":481,"x_min":-62,"x_max":526,"o":"m 25 0 l 25 228 l 86 228 l 86 544 l 25 544 l 25 772 l 406 772 l 406 228 l 467 228 l 467 0 l 25 0 m 232 858 q 15 919 93 858 q -62 1090 -62 981 l -62 1104 l 144 1104 l 144 1090 q 232 1000 144 1000 q 319 1090 319 1000 l 319 1104 l 526 1104 l 526 1090 q 449 919 526 981 q 232 858 371 858 z "},"î":{"ha":481,"x_min":-69,"x_max":533,"o":"m 25 0 l 25 228 l 86 228 l 86 544 l 25 544 l 25 772 l 406 772 l 406 228 l 467 228 l 467 0 l 25 0 m -69 856 l -69 876 l 94 1088 l 369 1088 l 533 876 l 533 856 l 325 856 l 239 946 l 225 946 l 139 856 l -69 856 z "},"ȉ":{"ha":481,"x_min":-146,"x_max":494,"o":"m 25 0 l 25 228 l 86 228 l 86 544 l 25 544 l 25 772 l 406 772 l 406 228 l 467 228 l 467 0 l 25 0 m 11 849 l -146 1043 l -146 1081 l 110 1081 l 178 869 l 178 849 l 11 849 m 328 849 l 171 1043 l 171 1081 l 426 1081 l 494 869 l 494 849 l 328 849 z "},"ï":{"ha":481,"x_min":-61,"x_max":525,"o":"m 25 0 l 25 228 l 86 228 l 86 544 l 25 544 l 25 772 l 406 772 l 406 228 l 467 228 l 467 0 l 25 0 m -61 869 l -61 1101 l 171 1101 l 171 869 l -61 869 m 294 869 l 294 1101 l 525 1101 l 525 869 l 294 869 z "},"ḯ":{"ha":614,"x_min":14,"x_max":626,"o":"m 100 0 l 100 228 l 161 228 l 161 544 l 100 544 l 100 772 l 481 772 l 481 228 l 542 228 l 542 0 l 100 0 m 14 869 l 14 1101 l 246 1101 l 246 869 l 14 869 m 369 869 l 369 1101 l 600 1101 l 600 869 l 369 869 m 126 1185 l 126 1206 l 278 1339 l 626 1339 l 626 1303 l 400 1185 l 126 1185 z "},"ị":{"ha":481,"x_min":25,"x_max":467,"o":"m 92 849 l 92 1081 l 375 1081 l 375 849 l 92 849 m 25 0 l 25 228 l 86 228 l 86 544 l 25 544 l 25 772 l 406 772 l 406 228 l 467 228 l 467 0 l 25 0 m 124 -311 l 124 -97 l 368 -97 l 368 -311 l 124 -311 z "},"ì":{"ha":481,"x_min":-40,"x_max":467,"o":"m 25 0 l 25 228 l 86 228 l 86 544 l 25 544 l 25 772 l 406 772 l 406 228 l 467 228 l 467 0 l 25 0 m 144 856 l -40 1050 l -40 1088 l 243 1088 l 353 876 l 353 856 l 144 856 z "},"ỉ":{"ha":481,"x_min":25,"x_max":467,"o":"m 25 0 l 25 228 l 86 228 l 86 544 l 25 544 l 25 772 l 406 772 l 406 228 l 467 228 l 467 0 l 25 0 m 181 908 q 224 963 211 939 q 238 1018 238 986 q 215 1069 238 1050 q 153 1088 192 1088 q 75 1075 113 1088 l 75 1193 q 224 1226 144 1226 q 349 1187 304 1226 q 393 1076 393 1147 q 243 856 393 954 l 181 908 z "},"ȋ":{"ha":481,"x_min":-62,"x_max":526,"o":"m 25 0 l 25 228 l 86 228 l 86 544 l 25 544 l 25 772 l 406 772 l 406 228 l 467 228 l 467 0 l 25 0 m -62 872 q 15 1043 -62 982 q 232 1104 93 1104 q 449 1043 371 1104 q 526 872 526 982 l 526 858 l 319 858 l 319 872 q 232 963 319 963 q 144 872 144 963 l 144 858 l -62 858 l -62 872 z "},"ĳ":{"ha":915,"x_min":25,"x_max":879,"o":"m 92 849 l 92 1081 l 375 1081 l 375 849 l 92 849 m 25 0 l 25 228 l 86 228 l 86 544 l 25 544 l 25 772 l 406 772 l 406 228 l 467 228 l 467 0 l 25 0 m 565 849 l 565 1081 l 849 1081 l 849 849 l 565 849 m 556 -328 q 438 -318 499 -328 q 336 -297 378 -308 l 336 -71 q 453 -81 401 -81 q 560 19 560 -81 l 560 544 l 467 544 l 467 772 l 879 772 l 879 47 q 799 -235 879 -143 q 556 -328 718 -328 z "},"ī":{"ha":481,"x_min":-17,"x_max":481,"o":"m 25 0 l 25 228 l 86 228 l 86 544 l 25 544 l 25 772 l 406 772 l 406 228 l 467 228 l 467 0 l 25 0 m -17 882 l -17 1046 l 481 1046 l 481 882 l -17 882 z "},"į":{"ha":481,"x_min":25,"x_max":467,"o":"m 375 1081 l 375 849 l 92 849 l 92 1081 l 375 1081 m 294 0 q 264 -79 264 -37 q 288 -138 264 -117 q 353 -160 311 -160 q 436 -147 396 -160 l 436 -265 q 297 -299 369 -299 q 163 -259 211 -299 q 114 -147 114 -219 q 130 -70 114 -108 q 172 0 146 -32 l 25 0 l 25 228 l 86 228 l 86 544 l 25 544 l 25 772 l 406 772 l 406 228 l 467 228 l 467 0 l 294 0 z "},"ĩ":{"ha":481,"x_min":-64,"x_max":528,"o":"m 25 0 l 25 228 l 86 228 l 86 544 l 25 544 l 25 772 l 406 772 l 406 228 l 467 228 l 467 0 l 25 0 m 371 856 q 289 865 328 856 q 199 893 250 875 q 127 915 156 908 q 72 922 99 922 q 30 908 46 922 q 14 871 14 894 l -64 871 q -28 1049 -64 990 q 103 1108 7 1108 q 181 1099 146 1108 q 265 1074 217 1090 q 335 1051 307 1058 q 392 1044 363 1044 q 436 1059 422 1044 q 450 1093 450 1074 l 528 1093 q 497 914 528 972 q 371 856 465 856 z "},"j":{"ha":435,"x_min":-144,"x_max":399,"o":"m 85 849 l 85 1081 l 368 1081 l 368 849 l 85 849 m 75 -328 q -42 -318 18 -328 q -144 -297 -103 -308 l -144 -71 q -28 -81 -79 -81 q 79 19 79 -81 l 79 544 l -14 544 l -14 772 l 399 772 l 399 47 q 318 -235 399 -143 q 75 -328 238 -328 z "},"ȷ":{"ha":435,"x_min":-144,"x_max":399,"o":"m 75 -328 q -42 -318 18 -328 q -144 -297 -103 -308 l -144 -71 q -28 -81 -79 -81 q 79 19 79 -81 l 79 544 l -14 544 l -14 772 l 399 772 l 399 47 q 318 -235 399 -143 q 75 -328 238 -328 z "},"ĵ":{"ha":435,"x_min":-144,"x_max":540,"o":"m 75 -328 q -42 -318 18 -328 q -144 -297 -103 -308 l -144 -71 q -28 -81 -79 -81 q 79 19 79 -81 l 79 544 l -14 544 l -14 772 l 399 772 l 399 47 q 318 -235 399 -143 q 75 -328 238 -328 m -62 856 l -62 876 l 101 1088 l 376 1088 l 540 876 l 540 856 l 332 856 l 246 946 l 232 946 l 146 856 l -62 856 z "},"k":{"ha":942,"x_min":25,"x_max":922,"o":"m 863 228 l 922 228 l 922 0 l 582 0 l 439 267 l 406 267 l 406 0 l 25 0 l 25 228 l 86 228 l 86 853 l 25 853 l 25 1081 l 406 1081 l 406 517 l 439 517 l 611 772 l 904 772 l 904 544 l 847 544 l 729 413 l 863 228 z "},"ķ":{"ha":942,"x_min":25,"x_max":922,"o":"m 863 228 l 922 228 l 922 0 l 582 0 l 439 267 l 406 267 l 406 0 l 25 0 l 25 228 l 86 228 l 86 853 l 25 853 l 25 1081 l 406 1081 l 406 517 l 439 517 l 611 772 l 904 772 l 904 544 l 847 544 l 729 413 l 863 228 m 376 -437 l 421 -281 l 364 -281 l 364 -83 l 572 -83 l 572 -281 l 496 -437 l 376 -437 z "},"ĸ":{"ha":936,"x_min":25,"x_max":922,"o":"m 863 228 l 922 228 l 922 0 l 582 0 l 439 267 l 406 267 l 406 0 l 25 0 l 25 228 l 86 228 l 86 544 l 25 544 l 25 772 l 406 772 l 406 517 l 439 517 l 611 772 l 904 772 l 904 544 l 847 544 l 729 413 l 863 228 z "},"l":{"ha":486,"x_min":25,"x_max":467,"o":"m 25 -1 l 25 228 l 86 228 l 86 853 l 25 853 l 25 1081 l 406 1081 l 406 228 l 467 228 l 467 -1 l 25 -1 z "},"ĺ":{"ha":486,"x_min":25,"x_max":565,"o":"m 25 -1 l 25 228 l 86 228 l 86 853 l 25 853 l 25 1081 l 406 1081 l 406 228 l 467 228 l 467 -1 l 25 -1 m 65 1164 l 65 1185 l 217 1318 l 565 1318 l 565 1282 l 339 1164 l 65 1164 z "},"ľ":{"ha":686,"x_min":25,"x_max":672,"o":"m 25 -1 l 25 228 l 86 228 l 86 853 l 25 853 l 25 1081 l 406 1081 l 406 228 l 467 228 l 467 -1 l 25 -1 m 458 724 l 458 1039 l 672 1039 l 672 1001 l 625 724 l 458 724 z "},"ļ":{"ha":486,"x_min":25,"x_max":467,"o":"m 25 -1 l 25 228 l 86 228 l 86 853 l 25 853 l 25 1081 l 406 1081 l 406 228 l 467 228 l 467 -1 l 25 -1 m 154 -437 l 199 -281 l 142 -281 l 142 -83 l 350 -83 l 350 -281 l 274 -437 l 154 -437 z "},"ŀ":{"ha":703,"x_min":25,"x_max":713,"o":"m 25 -1 l 25 228 l 86 228 l 86 853 l 25 853 l 25 1081 l 406 1081 l 406 228 l 467 228 l 467 -1 l 25 -1 m 482 486 l 482 711 l 713 711 l 713 486 l 482 486 z "},"ḷ":{"ha":486,"x_min":25,"x_max":467,"o":"m 25 -1 l 25 228 l 86 228 l 86 853 l 25 853 l 25 1081 l 406 1081 l 406 228 l 467 228 l 467 -1 l 25 -1 m 124 -311 l 124 -97 l 368 -97 l 368 -311 l 124 -311 z "},"ǉ":{"ha":921,"x_min":25,"x_max":885,"o":"m 25 -1 l 25 228 l 86 228 l 86 853 l 25 853 l 25 1081 l 406 1081 l 406 228 l 467 228 l 467 -1 l 25 -1 m 571 849 l 571 1081 l 854 1081 l 854 849 l 571 849 m 561 -328 q 444 -318 504 -328 q 342 -297 383 -308 l 342 -71 q 458 -81 407 -81 q 565 19 565 -81 l 565 544 l 472 544 l 472 772 l 885 772 l 885 47 q 804 -235 885 -143 q 561 -328 724 -328 z "},"ḻ":{"ha":486,"x_min":-4,"x_max":493,"o":"m 25 -1 l 25 228 l 86 228 l 86 853 l 25 853 l 25 1081 l 406 1081 l 406 228 l 467 228 l 467 -1 l 25 -1 m -4 -261 l -4 -111 l 493 -111 l 493 -261 l -4 -261 z "},"ł":{"ha":517,"x_min":7,"x_max":535,"o":"m 535 656 l 431 589 l 431 228 l 492 228 l 492 -1 l 50 -1 l 50 228 l 111 228 l 111 385 l 35 336 l 7 336 l 7 504 l 111 571 l 111 853 l 50 853 l 50 1081 l 431 1081 l 431 775 l 507 824 l 535 824 l 535 656 z "},"m":{"ha":1447,"x_min":25,"x_max":1428,"o":"m 1428 228 l 1428 0 l 989 0 l 989 228 l 1047 228 l 1047 456 q 1028 523 1047 501 q 969 544 1008 544 q 886 456 886 544 l 886 228 l 944 228 l 944 0 l 508 0 l 508 228 l 567 228 l 567 456 q 547 523 567 501 q 489 544 528 544 q 406 456 406 544 l 406 228 l 464 228 l 464 0 l 25 0 l 25 228 l 86 228 l 86 544 l 25 544 l 25 772 l 406 772 l 406 664 q 656 792 506 792 q 794 752 740 792 q 869 640 847 713 q 984 751 919 713 q 1136 790 1049 790 q 1309 718 1251 790 q 1367 519 1367 646 l 1367 228 l 1428 228 z "},"ṃ":{"ha":1447,"x_min":25,"x_max":1428,"o":"m 1428 228 l 1428 0 l 989 0 l 989 228 l 1047 228 l 1047 456 q 1028 523 1047 501 q 969 544 1008 544 q 886 456 886 544 l 886 228 l 944 228 l 944 0 l 508 0 l 508 228 l 567 228 l 567 456 q 547 523 567 501 q 489 544 528 544 q 406 456 406 544 l 406 228 l 464 228 l 464 0 l 25 0 l 25 228 l 86 228 l 86 544 l 25 544 l 25 772 l 406 772 l 406 664 q 656 792 506 792 q 794 752 740 792 q 869 640 847 713 q 984 751 919 713 q 1136 790 1049 790 q 1309 718 1251 790 q 1367 519 1367 646 l 1367 228 l 1428 228 m 604 -311 l 604 -97 l 849 -97 l 849 -311 l 604 -311 z "},"n":{"ha":967,"x_min":25,"x_max":947,"o":"m 947 228 l 947 0 l 508 0 l 508 228 l 567 228 l 567 456 q 547 523 567 501 q 489 544 528 544 q 406 456 406 544 l 406 228 l 464 228 l 464 0 l 25 0 l 25 228 l 86 228 l 86 544 l 25 544 l 25 772 l 406 772 l 406 664 q 656 792 506 792 q 828 719 771 792 q 886 521 886 647 l 886 228 l 947 228 z "},"ń":{"ha":967,"x_min":25,"x_max":947,"o":"m 947 228 l 947 0 l 508 0 l 508 228 l 567 228 l 567 456 q 547 523 567 501 q 489 544 528 544 q 406 456 406 544 l 406 228 l 464 228 l 464 0 l 25 0 l 25 228 l 86 228 l 86 544 l 25 544 l 25 772 l 406 772 l 406 664 q 656 792 506 792 q 828 719 771 792 q 886 521 886 647 l 886 228 l 947 228 m 367 856 l 367 876 l 518 1088 l 815 1088 l 815 1050 l 589 856 l 367 856 z "},"ŉ":{"ha":1189,"x_min":8,"x_max":1169,"o":"m 21 740 l 65 897 l 8 897 l 8 1081 l 217 1081 l 217 897 l 140 740 l 21 740 m 1169 228 l 1169 0 l 731 0 l 731 228 l 789 228 l 789 456 q 769 523 789 501 q 711 544 750 544 q 628 456 628 544 l 628 228 l 686 228 l 686 0 l 247 0 l 247 228 l 308 228 l 308 544 l 247 544 l 247 772 l 628 772 l 628 664 q 878 792 728 792 q 1051 719 993 792 q 1108 521 1108 647 l 1108 228 l 1169 228 z "},"ň":{"ha":967,"x_min":25,"x_max":947,"o":"m 947 228 l 947 0 l 508 0 l 508 228 l 567 228 l 567 456 q 547 523 567 501 q 489 544 528 544 q 406 456 406 544 l 406 228 l 464 228 l 464 0 l 25 0 l 25 228 l 86 228 l 86 544 l 25 544 l 25 772 l 406 772 l 406 664 q 656 792 506 792 q 828 719 771 792 q 886 521 886 647 l 886 228 l 947 228 m 350 856 l 186 1067 l 186 1088 l 394 1088 l 481 997 l 494 997 l 581 1088 l 789 1088 l 789 1067 l 625 856 l 350 856 z "},"ņ":{"ha":967,"x_min":25,"x_max":947,"o":"m 947 228 l 947 0 l 508 0 l 508 228 l 567 228 l 567 456 q 547 523 567 501 q 489 544 528 544 q 406 456 406 544 l 406 228 l 464 228 l 464 0 l 25 0 l 25 228 l 86 228 l 86 544 l 25 544 l 25 772 l 406 772 l 406 664 q 656 792 506 792 q 828 719 771 792 q 886 521 886 647 l 886 228 l 947 228 m 394 -436 l 439 -279 l 382 -279 l 382 -82 l 590 -82 l 590 -279 l 514 -436 l 394 -436 z "},"ṅ":{"ha":967,"x_min":25,"x_max":947,"o":"m 947 228 l 947 0 l 508 0 l 508 228 l 567 228 l 567 456 q 547 523 567 501 q 489 544 528 544 q 406 456 406 544 l 406 228 l 464 228 l 464 0 l 25 0 l 25 228 l 86 228 l 86 544 l 25 544 l 25 772 l 406 772 l 406 664 q 656 792 506 792 q 828 719 771 792 q 886 521 886 647 l 886 228 l 947 228 m 365 869 l 365 1101 l 610 1101 l 610 869 l 365 869 z "},"ṇ":{"ha":967,"x_min":25,"x_max":947,"o":"m 947 228 l 947 0 l 508 0 l 508 228 l 567 228 l 567 456 q 547 523 567 501 q 489 544 528 544 q 406 456 406 544 l 406 228 l 464 228 l 464 0 l 25 0 l 25 228 l 86 228 l 86 544 l 25 544 l 25 772 l 406 772 l 406 664 q 656 792 506 792 q 828 719 771 792 q 886 521 886 647 l 886 228 l 947 228 m 364 -310 l 364 -96 l 608 -96 l 608 -310 l 364 -310 z "},"ŋ":{"ha":911,"x_min":25,"x_max":886,"o":"m 656 792 q 828 719 771 792 q 886 521 886 647 l 886 44 q 797 -244 886 -151 q 531 -336 707 -336 q 240 -293 383 -336 l 240 -103 q 426 -126 332 -126 q 567 0 567 -126 l 567 456 q 547 523 567 501 q 489 544 528 544 q 406 456 406 544 l 406 0 l 25 0 l 25 228 l 86 228 l 86 544 l 25 544 l 25 772 l 406 772 l 406 664 q 656 792 506 792 z "},"ǌ":{"ha":1401,"x_min":25,"x_max":1365,"o":"m 947 228 l 947 0 l 508 0 l 508 228 l 567 228 l 567 456 q 547 523 567 501 q 489 544 528 544 q 406 456 406 544 l 406 228 l 464 228 l 464 0 l 25 0 l 25 228 l 86 228 l 86 544 l 25 544 l 25 772 l 406 772 l 406 664 q 656 792 506 792 q 828 719 771 792 q 886 521 886 647 l 886 228 l 947 228 m 1051 849 l 1051 1081 l 1335 1081 l 1335 849 l 1051 849 m 1042 -328 q 924 -318 985 -328 q 822 -297 864 -308 l 822 -71 q 939 -81 888 -81 q 1046 19 1046 -81 l 1046 544 l 953 544 l 953 772 l 1365 772 l 1365 47 q 1285 -235 1365 -143 q 1042 -328 1204 -328 z "},"ṉ":{"ha":967,"x_min":25,"x_max":947,"o":"m 947 228 l 947 0 l 508 0 l 508 228 l 567 228 l 567 456 q 547 523 567 501 q 489 544 528 544 q 406 456 406 544 l 406 228 l 464 228 l 464 0 l 25 0 l 25 228 l 86 228 l 86 544 l 25 544 l 25 772 l 406 772 l 406 664 q 656 792 506 792 q 828 719 771 792 q 886 521 886 647 l 886 228 l 947 228 m 236 -260 l 236 -110 l 733 -110 l 733 -260 l 236 -260 z "},"ñ":{"ha":967,"x_min":25,"x_max":947,"o":"m 947 228 l 947 0 l 508 0 l 508 228 l 567 228 l 567 456 q 547 523 567 501 q 489 544 528 544 q 406 456 406 544 l 406 228 l 464 228 l 464 0 l 25 0 l 25 228 l 86 228 l 86 544 l 25 544 l 25 772 l 406 772 l 406 664 q 656 792 506 792 q 828 719 771 792 q 886 521 886 647 l 886 228 l 947 228 m 626 856 q 544 865 583 856 q 454 893 506 875 q 383 915 411 908 q 328 922 354 922 q 285 908 301 922 q 269 871 269 894 l 192 871 q 227 1049 192 990 q 358 1108 263 1108 q 437 1099 401 1108 q 521 1074 472 1090 q 590 1051 563 1058 q 647 1044 618 1044 q 692 1059 678 1044 q 706 1093 706 1074 l 783 1093 q 752 914 783 972 q 626 856 721 856 z "},"o":{"ha":878,"x_min":19,"x_max":858,"o":"m 439 -19 q 131 84 242 -19 q 19 386 19 188 q 131 688 19 585 q 439 792 242 792 q 749 687 639 792 q 858 386 858 582 q 747 84 858 188 q 439 -19 636 -19 m 439 228 q 499 249 479 228 q 519 317 519 271 l 519 456 q 499 523 519 501 q 439 544 479 544 q 378 523 399 544 q 358 456 358 501 l 358 317 q 378 249 358 271 q 439 228 399 228 z "},"ó":{"ha":878,"x_min":19,"x_max":858,"o":"m 439 -19 q 131 84 242 -19 q 19 386 19 188 q 131 688 19 585 q 439 792 242 792 q 749 687 639 792 q 858 386 858 582 q 747 84 858 188 q 439 -19 636 -19 m 439 228 q 499 249 479 228 q 519 317 519 271 l 519 456 q 499 523 519 501 q 439 544 479 544 q 378 523 399 544 q 358 456 358 501 l 358 317 q 378 249 358 271 q 439 228 399 228 m 318 856 l 318 876 l 469 1088 l 767 1088 l 767 1050 l 540 856 l 318 856 z "},"ŏ":{"ha":878,"x_min":19,"x_max":858,"o":"m 439 -19 q 131 84 242 -19 q 19 386 19 188 q 131 688 19 585 q 439 792 242 792 q 749 687 639 792 q 858 386 858 582 q 747 84 858 188 q 439 -19 636 -19 m 439 228 q 499 249 479 228 q 519 317 519 271 l 519 456 q 499 523 519 501 q 439 544 479 544 q 378 523 399 544 q 358 456 358 501 l 358 317 q 378 249 358 271 q 439 228 399 228 m 439 858 q 222 919 300 858 q 144 1090 144 981 l 144 1104 l 351 1104 l 351 1090 q 439 1000 351 1000 q 526 1090 526 1000 l 526 1104 l 733 1104 l 733 1090 q 656 919 733 981 q 439 858 578 858 z "},"ô":{"ha":878,"x_min":19,"x_max":858,"o":"m 439 -19 q 131 84 242 -19 q 19 386 19 188 q 131 688 19 585 q 439 792 242 792 q 749 687 639 792 q 858 386 858 582 q 747 84 858 188 q 439 -19 636 -19 m 439 228 q 499 249 479 228 q 519 317 519 271 l 519 456 q 499 523 519 501 q 439 544 479 544 q 378 523 399 544 q 358 456 358 501 l 358 317 q 378 249 358 271 q 439 228 399 228 m 138 856 l 138 876 l 301 1088 l 576 1088 l 740 876 l 740 856 l 532 856 l 446 946 l 432 946 l 346 856 l 138 856 z "},"ố":{"ha":878,"x_min":19,"x_max":968,"o":"m 439 -19 q 131 84 242 -19 q 19 386 19 188 q 131 688 19 585 q 439 792 242 792 q 749 687 639 792 q 858 386 858 582 q 747 84 858 188 q 439 -19 636 -19 m 439 228 q 499 249 479 228 q 519 317 519 271 l 519 456 q 499 523 519 501 q 439 544 479 544 q 378 523 399 544 q 358 456 358 501 l 358 317 q 378 249 358 271 q 439 228 399 228 m 731 1163 l 968 1163 l 968 1126 l 829 994 l 663 994 l 663 1015 l 731 1163 m 314 1058 l 564 1058 l 726 869 l 726 849 l 540 849 l 439 949 l 338 849 l 151 849 l 151 869 l 314 1058 z "},"ộ":{"ha":878,"x_min":19,"x_max":858,"o":"m 439 -19 q 131 84 242 -19 q 19 386 19 188 q 131 688 19 585 q 439 792 242 792 q 749 687 639 792 q 858 386 858 582 q 747 84 858 188 q 439 -19 636 -19 m 439 228 q 499 249 479 228 q 519 317 519 271 l 519 456 q 499 523 519 501 q 439 544 479 544 q 378 523 399 544 q 358 456 358 501 l 358 317 q 378 249 358 271 q 439 228 399 228 m 331 -283 l 331 -97 l 547 -97 l 547 -283 l 331 -283 m 564 1058 l 726 869 l 726 849 l 540 849 l 439 949 l 338 849 l 151 849 l 151 869 l 314 1058 l 564 1058 z "},"ồ":{"ha":878,"x_min":19,"x_max":899,"o":"m 439 -19 q 131 84 242 -19 q 19 386 19 188 q 131 688 19 585 q 439 792 242 792 q 749 687 639 792 q 858 386 858 582 q 747 84 858 188 q 439 -19 636 -19 m 439 228 q 499 249 479 228 q 519 317 519 271 l 519 456 q 499 523 519 501 q 439 544 479 544 q 378 523 399 544 q 358 456 358 501 l 358 317 q 378 249 358 271 q 439 228 399 228 m 831 1156 l 899 1008 l 899 988 l 732 988 l 593 1119 l 593 1156 l 831 1156 m 314 1058 l 564 1058 l 726 869 l 726 849 l 540 849 l 439 949 l 338 849 l 151 849 l 151 869 l 314 1058 z "},"ổ":{"ha":878,"x_min":19,"x_max":858,"o":"m 439 -19 q 131 84 242 -19 q 19 386 19 188 q 131 688 19 585 q 439 792 242 792 q 749 687 639 792 q 858 386 858 582 q 747 84 858 188 q 439 -19 636 -19 m 439 228 q 499 249 479 228 q 519 317 519 271 l 519 456 q 499 523 519 501 q 439 544 479 544 q 378 523 399 544 q 358 456 358 501 l 358 317 q 378 249 358 271 q 439 228 399 228 m 683 1324 q 801 1287 758 1324 q 843 1185 843 1250 q 703 994 843 1083 l 646 1053 q 679 1097 669 1078 q 689 1142 689 1115 q 670 1189 689 1171 q 618 1207 651 1207 q 556 1199 589 1207 l 556 1303 q 683 1324 618 1324 m 314 1058 l 564 1058 l 726 869 l 726 849 l 540 849 l 439 949 l 338 849 l 151 849 l 151 869 l 314 1058 z "},"ỗ":{"ha":878,"x_min":19,"x_max":858,"o":"m 439 -19 q 131 84 242 -19 q 19 386 19 188 q 131 688 19 585 q 439 792 242 792 q 749 687 639 792 q 858 386 858 582 q 747 84 858 188 q 439 -19 636 -19 m 439 228 q 499 249 479 228 q 519 317 519 271 l 519 456 q 499 523 519 501 q 439 544 479 544 q 378 523 399 544 q 358 456 358 501 l 358 317 q 378 249 358 271 q 439 228 399 228 m 296 1154 q 253 1140 269 1154 q 238 1103 238 1126 l 160 1103 q 199 1256 160 1207 q 328 1306 239 1306 q 387 1299 358 1306 q 463 1279 415 1293 q 495 1270 469 1278 q 542 1259 521 1263 q 582 1256 564 1256 q 625 1268 610 1256 q 640 1304 640 1281 l 718 1304 q 680 1151 718 1200 q 550 1101 642 1101 q 483 1108 515 1101 q 410 1129 451 1115 q 347 1148 371 1142 q 296 1154 322 1154 m 564 1058 l 726 869 l 726 849 l 540 849 l 439 949 l 338 849 l 151 849 l 151 869 l 314 1058 l 564 1058 z "},"ȍ":{"ha":878,"x_min":19,"x_max":858,"o":"m 439 -19 q 131 84 242 -19 q 19 386 19 188 q 131 688 19 585 q 439 792 242 792 q 749 687 639 792 q 858 386 858 582 q 747 84 858 188 q 439 -19 636 -19 m 439 228 q 499 249 479 228 q 519 317 519 271 l 519 456 q 499 523 519 501 q 439 544 479 544 q 378 523 399 544 q 358 456 358 501 l 358 317 q 378 249 358 271 q 439 228 399 228 m 218 849 l 61 1043 l 61 1081 l 317 1081 l 385 869 l 385 849 l 218 849 m 535 849 l 378 1043 l 378 1081 l 633 1081 l 701 869 l 701 849 l 535 849 z "},"ö":{"ha":878,"x_min":19,"x_max":858,"o":"m 439 -19 q 131 84 242 -19 q 19 386 19 188 q 131 688 19 585 q 439 792 242 792 q 749 687 639 792 q 858 386 858 582 q 747 84 858 188 q 439 -19 636 -19 m 439 228 q 499 249 479 228 q 519 317 519 271 l 519 456 q 499 523 519 501 q 439 544 479 544 q 378 523 399 544 q 358 456 358 501 l 358 317 q 378 249 358 271 q 439 228 399 228 m 146 869 l 146 1101 l 378 1101 l 378 869 l 146 869 m 501 869 l 501 1101 l 732 1101 l 732 869 l 501 869 z "},"ȫ":{"ha":878,"x_min":19,"x_max":858,"o":"m 439 -19 q 131 84 242 -19 q 19 386 19 188 q 131 688 19 585 q 439 792 242 792 q 749 687 639 792 q 858 386 858 582 q 747 84 858 188 q 439 -19 636 -19 m 439 228 q 499 249 479 228 q 519 317 519 271 l 519 456 q 499 523 519 501 q 439 544 479 544 q 378 523 399 544 q 358 456 358 501 l 358 317 q 378 249 358 271 q 439 228 399 228 m 146 869 l 146 1101 l 378 1101 l 378 869 l 146 869 m 501 869 l 501 1101 l 732 1101 l 732 869 l 501 869 m 190 1188 l 190 1324 l 688 1324 l 688 1188 l 190 1188 z "},"ȱ":{"ha":878,"x_min":19,"x_max":858,"o":"m 439 -19 q 131 84 242 -19 q 19 386 19 188 q 131 688 19 585 q 439 792 242 792 q 749 687 639 792 q 858 386 858 582 q 747 84 858 188 q 439 -19 636 -19 m 439 228 q 499 249 479 228 q 519 317 519 271 l 519 456 q 499 523 519 501 q 439 544 479 544 q 378 523 399 544 q 358 456 358 501 l 358 317 q 378 249 358 271 q 439 228 399 228 m 317 869 l 317 1101 l 561 1101 l 561 869 l 317 869 m 190 1188 l 190 1324 l 688 1324 l 688 1188 l 190 1188 z "},"ọ":{"ha":878,"x_min":19,"x_max":858,"o":"m 439 -19 q 131 84 242 -19 q 19 386 19 188 q 131 688 19 585 q 439 792 242 792 q 749 687 639 792 q 858 386 858 582 q 747 84 858 188 q 439 -19 636 -19 m 439 228 q 499 249 479 228 q 519 317 519 271 l 519 456 q 499 523 519 501 q 439 544 479 544 q 378 523 399 544 q 358 456 358 501 l 358 317 q 378 249 358 271 q 439 228 399 228 m 317 -311 l 317 -97 l 561 -97 l 561 -311 l 317 -311 z "},"ò":{"ha":878,"x_min":19,"x_max":858,"o":"m 439 -19 q 131 84 242 -19 q 19 386 19 188 q 131 688 19 585 q 439 792 242 792 q 749 687 639 792 q 858 386 858 582 q 747 84 858 188 q 439 -19 636 -19 m 439 228 q 499 249 479 228 q 519 317 519 271 l 519 456 q 499 523 519 501 q 439 544 479 544 q 378 523 399 544 q 358 456 358 501 l 358 317 q 378 249 358 271 q 439 228 399 228 m 331 856 l 104 1050 l 104 1088 l 401 1088 l 553 876 l 553 856 l 331 856 z "},"ỏ":{"ha":878,"x_min":19,"x_max":858,"o":"m 439 -19 q 131 84 242 -19 q 19 386 19 188 q 131 688 19 585 q 439 792 242 792 q 749 687 639 792 q 858 386 858 582 q 747 84 858 188 q 439 -19 636 -19 m 439 228 q 499 249 479 228 q 519 317 519 271 l 519 456 q 499 523 519 501 q 439 544 479 544 q 378 523 399 544 q 358 456 358 501 l 358 317 q 378 249 358 271 q 439 228 399 228 m 388 908 q 431 963 418 939 q 444 1018 444 986 q 422 1069 444 1050 q 360 1088 399 1088 q 282 1075 319 1088 l 282 1193 q 431 1226 351 1226 q 556 1187 511 1226 q 600 1076 600 1147 q 450 856 600 954 l 388 908 z "},"ơ":{"ha":867,"x_min":14,"x_max":922,"o":"m 922 918 l 922 890 q 878 753 922 808 q 754 676 835 699 q 853 386 853 571 q 742 84 853 188 q 433 -19 631 -19 q 125 84 236 -19 q 14 386 14 188 q 125 688 14 585 q 433 792 236 792 q 550 782 469 792 q 639 774 611 774 q 707 802 685 774 q 729 890 729 831 l 729 918 l 922 918 m 514 456 q 494 523 514 501 q 433 544 474 544 q 373 523 393 544 q 353 456 353 501 l 353 317 q 373 249 353 271 q 433 228 393 228 q 494 249 474 228 q 514 317 514 271 l 514 456 z "},"ớ":{"ha":867,"x_min":14,"x_max":922,"o":"m 922 918 l 922 890 q 878 753 922 808 q 754 676 835 699 q 853 386 853 571 q 742 84 853 188 q 433 -19 631 -19 q 125 84 236 -19 q 14 386 14 188 q 125 688 14 585 q 433 792 236 792 q 550 782 469 792 q 639 774 611 774 q 707 802 685 774 q 729 890 729 831 l 729 918 l 922 918 m 514 456 q 494 523 514 501 q 433 544 474 544 q 373 523 393 544 q 353 456 353 501 l 353 317 q 373 249 353 271 q 433 228 393 228 q 494 249 474 228 q 514 317 514 271 l 514 456 m 319 856 l 319 876 l 429 1088 l 713 1088 l 713 1050 l 528 856 l 319 856 z "},"ợ":{"ha":867,"x_min":14,"x_max":922,"o":"m 922 918 l 922 890 q 878 753 922 808 q 754 676 835 699 q 853 386 853 571 q 742 84 853 188 q 433 -19 631 -19 q 125 84 236 -19 q 14 386 14 188 q 125 688 14 585 q 433 792 236 792 q 550 782 469 792 q 639 774 611 774 q 707 802 685 774 q 729 890 729 831 l 729 918 l 922 918 m 514 456 q 494 523 514 501 q 433 544 474 544 q 373 523 393 544 q 353 456 353 501 l 353 317 q 373 249 353 271 q 433 228 393 228 q 494 249 474 228 q 514 317 514 271 l 514 456 m 325 -283 l 325 -97 l 542 -97 l 542 -283 l 325 -283 z "},"ờ":{"ha":867,"x_min":14,"x_max":922,"o":"m 922 918 l 922 890 q 878 753 922 808 q 754 676 835 699 q 853 386 853 571 q 742 84 853 188 q 433 -19 631 -19 q 125 84 236 -19 q 14 386 14 188 q 125 688 14 585 q 433 792 236 792 q 550 782 469 792 q 639 774 611 774 q 707 802 685 774 q 729 890 729 831 l 729 918 l 922 918 m 514 456 q 494 523 514 501 q 433 544 474 544 q 373 523 393 544 q 353 456 353 501 l 353 317 q 373 249 353 271 q 433 228 393 228 q 494 249 474 228 q 514 317 514 271 l 514 456 m 353 856 l 168 1050 l 168 1088 l 451 1088 l 561 876 l 561 856 l 353 856 z "},"ở":{"ha":867,"x_min":14,"x_max":922,"o":"m 922 918 l 922 890 q 878 753 922 808 q 754 676 835 699 q 853 386 853 571 q 742 84 853 188 q 433 -19 631 -19 q 125 84 236 -19 q 14 386 14 188 q 125 688 14 585 q 433 792 236 792 q 550 782 469 792 q 639 774 611 774 q 707 802 685 774 q 729 890 729 831 l 729 918 l 922 918 m 514 456 q 494 523 514 501 q 433 544 474 544 q 373 523 393 544 q 353 456 353 501 l 353 317 q 373 249 353 271 q 433 228 393 228 q 494 249 474 228 q 514 317 514 271 l 514 456 m 389 908 q 433 963 419 939 q 446 1018 446 986 q 423 1069 446 1050 q 361 1088 400 1088 q 283 1075 321 1088 l 283 1193 q 432 1226 353 1226 q 557 1187 513 1226 q 601 1076 601 1147 q 451 856 601 954 l 389 908 z "},"ỡ":{"ha":867,"x_min":14,"x_max":922,"o":"m 922 918 l 922 890 q 878 753 922 808 q 754 676 835 699 q 853 386 853 571 q 742 84 853 188 q 433 -19 631 -19 q 125 84 236 -19 q 14 386 14 188 q 125 688 14 585 q 433 792 236 792 q 550 782 469 792 q 639 774 611 774 q 707 802 685 774 q 729 890 729 831 l 729 918 l 922 918 m 514 456 q 494 523 514 501 q 433 544 474 544 q 373 523 393 544 q 353 456 353 501 l 353 317 q 373 249 353 271 q 433 228 393 228 q 494 249 474 228 q 514 317 514 271 l 514 456 m 551 856 q 492 865 521 856 q 419 892 464 874 q 358 915 379 908 q 315 922 336 922 q 277 908 290 922 q 264 871 264 894 l 186 871 q 219 1049 186 990 q 339 1108 251 1108 q 399 1099 371 1108 q 467 1074 426 1090 q 565 1044 531 1044 q 617 1093 617 1044 l 694 1093 q 665 914 694 972 q 551 856 636 856 z "},"ő":{"ha":878,"x_min":19,"x_max":858,"o":"m 439 -19 q 131 84 242 -19 q 19 386 19 188 q 131 688 19 585 q 439 792 242 792 q 749 687 639 792 q 858 386 858 582 q 747 84 858 188 q 439 -19 636 -19 m 439 228 q 499 249 479 228 q 519 317 519 271 l 519 456 q 499 523 519 501 q 439 544 479 544 q 378 523 399 544 q 358 456 358 501 l 358 317 q 378 249 358 271 q 439 228 399 228 m 176 856 l 176 876 l 244 1088 l 500 1088 l 500 1050 l 343 856 l 176 856 m 493 856 l 493 876 l 561 1088 l 817 1088 l 817 1050 l 660 856 l 493 856 z "},"ȏ":{"ha":878,"x_min":19,"x_max":858,"o":"m 439 -19 q 131 84 242 -19 q 19 386 19 188 q 131 688 19 585 q 439 792 242 792 q 749 687 639 792 q 858 386 858 582 q 747 84 858 188 q 439 -19 636 -19 m 439 228 q 499 249 479 228 q 519 317 519 271 l 519 456 q 499 523 519 501 q 439 544 479 544 q 378 523 399 544 q 358 456 358 501 l 358 317 q 378 249 358 271 q 439 228 399 228 m 144 872 q 222 1043 144 982 q 439 1104 300 1104 q 656 1043 578 1104 q 733 872 733 982 l 733 858 l 526 858 l 526 872 q 439 963 526 963 q 351 872 351 963 l 351 858 l 144 858 l 144 872 z "},"ō":{"ha":878,"x_min":19,"x_max":858,"o":"m 439 -19 q 131 84 242 -19 q 19 386 19 188 q 131 688 19 585 q 439 792 242 792 q 749 687 639 792 q 858 386 858 582 q 747 84 858 188 q 439 -19 636 -19 m 439 228 q 499 249 479 228 q 519 317 519 271 l 519 456 q 499 523 519 501 q 439 544 479 544 q 378 523 399 544 q 358 456 358 501 l 358 317 q 378 249 358 271 q 439 228 399 228 m 190 882 l 190 1046 l 688 1046 l 688 882 l 190 882 z "},"ṓ":{"ha":878,"x_min":19,"x_max":858,"o":"m 439 -19 q 131 84 242 -19 q 19 386 19 188 q 131 688 19 585 q 439 792 242 792 q 749 687 639 792 q 858 386 858 582 q 747 84 858 188 q 439 -19 636 -19 m 439 228 q 499 249 479 228 q 519 317 519 271 l 519 456 q 499 523 519 501 q 439 544 479 544 q 378 523 399 544 q 358 456 358 501 l 358 317 q 378 249 358 271 q 439 228 399 228 m 190 882 l 190 1046 l 688 1046 l 688 882 l 190 882 m 258 1129 l 258 1150 l 410 1283 l 758 1283 l 758 1247 l 532 1129 l 258 1129 z "},"ṑ":{"ha":878,"x_min":19,"x_max":858,"o":"m 439 -19 q 131 84 242 -19 q 19 386 19 188 q 131 688 19 585 q 439 792 242 792 q 749 687 639 792 q 858 386 858 582 q 747 84 858 188 q 439 -19 636 -19 m 439 228 q 499 249 479 228 q 519 317 519 271 l 519 456 q 499 523 519 501 q 439 544 479 544 q 378 523 399 544 q 358 456 358 501 l 358 317 q 378 249 358 271 q 439 228 399 228 m 190 882 l 190 1046 l 688 1046 l 688 882 l 190 882 m 349 1129 l 122 1247 l 122 1283 l 471 1283 l 622 1150 l 622 1129 l 349 1129 z "},"ǫ":{"ha":878,"x_min":19,"x_max":858,"o":"m 858 386 q 760 96 858 199 q 486 -18 661 -7 q 467 -81 467 -49 q 490 -140 467 -118 q 556 -161 514 -161 q 639 -149 599 -161 l 639 -267 q 500 -300 572 -300 q 365 -260 414 -300 q 317 -149 317 -221 q 364 -15 317 -78 q 110 106 200 4 q 19 386 19 207 q 131 688 19 585 q 439 792 242 792 q 749 687 639 792 q 858 386 858 582 m 358 317 q 378 249 358 271 q 439 228 399 228 q 499 249 479 228 q 519 317 519 271 l 519 456 q 499 523 519 501 q 439 544 479 544 q 378 523 399 544 q 358 456 358 501 l 358 317 z "},"ø":{"ha":878,"x_min":19,"x_max":858,"o":"m 775 658 q 858 386 858 556 q 747 84 858 188 q 439 -19 636 -19 q 167 54 272 -19 l 132 10 l 33 10 l 33 38 l 99 118 q 19 386 19 218 q 131 688 19 585 q 439 792 242 792 q 707 721 604 792 l 747 772 l 844 772 l 844 744 l 775 658 m 439 553 q 372 531 394 553 q 350 464 350 510 l 350 360 l 515 518 q 439 553 494 553 m 439 219 q 507 240 486 219 q 528 308 528 261 l 528 407 l 364 250 q 439 219 386 219 z "},"ǿ":{"ha":878,"x_min":19,"x_max":858,"o":"m 775 658 q 858 386 858 556 q 747 84 858 188 q 439 -19 636 -19 q 167 54 272 -19 l 132 10 l 33 10 l 33 38 l 99 118 q 19 386 19 218 q 131 688 19 585 q 439 792 242 792 q 707 721 604 792 l 747 772 l 844 772 l 844 744 l 775 658 m 439 553 q 372 531 394 553 q 350 464 350 510 l 350 360 l 515 518 q 439 553 494 553 m 439 219 q 507 240 486 219 q 528 308 528 261 l 528 407 l 364 250 q 439 219 386 219 m 318 856 l 318 876 l 469 1088 l 767 1088 l 767 1050 l 540 856 l 318 856 z "},"õ":{"ha":878,"x_min":19,"x_max":858,"o":"m 439 -19 q 131 84 242 -19 q 19 386 19 188 q 131 688 19 585 q 439 792 242 792 q 749 687 639 792 q 858 386 858 582 q 747 84 858 188 q 439 -19 636 -19 m 439 228 q 499 249 479 228 q 519 317 519 271 l 519 456 q 499 523 519 501 q 439 544 479 544 q 378 523 399 544 q 358 456 358 501 l 358 317 q 378 249 358 271 q 439 228 399 228 m 578 856 q 496 865 535 856 q 406 893 457 875 q 334 915 363 908 q 279 922 306 922 q 237 908 253 922 q 221 871 221 894 l 143 871 q 178 1049 143 990 q 310 1108 214 1108 q 388 1099 353 1108 q 472 1074 424 1090 q 542 1051 514 1058 q 599 1044 569 1044 q 643 1059 629 1044 q 657 1093 657 1074 l 735 1093 q 703 914 735 972 q 578 856 672 856 z "},"ṍ":{"ha":878,"x_min":19,"x_max":858,"o":"m 439 -19 q 131 84 242 -19 q 19 386 19 188 q 131 688 19 585 q 439 792 242 792 q 749 687 639 792 q 858 386 858 582 q 747 84 858 188 q 439 -19 636 -19 m 439 228 q 499 249 479 228 q 519 317 519 271 l 519 456 q 499 523 519 501 q 439 544 479 544 q 378 523 399 544 q 358 456 358 501 l 358 317 q 378 249 358 271 q 439 228 399 228 m 578 856 q 496 865 535 856 q 406 893 457 875 q 334 915 363 908 q 279 922 306 922 q 237 908 253 922 q 221 871 221 894 l 143 871 q 178 1049 143 990 q 310 1108 214 1108 q 388 1099 353 1108 q 472 1074 424 1090 q 542 1051 514 1058 q 599 1044 569 1044 q 643 1059 629 1044 q 657 1093 657 1074 l 735 1093 q 703 914 735 972 q 578 856 672 856 m 258 1185 l 258 1206 l 410 1339 l 758 1339 l 758 1303 l 532 1185 l 258 1185 z "},"ṏ":{"ha":878,"x_min":19,"x_max":858,"o":"m 439 -19 q 131 84 242 -19 q 19 386 19 188 q 131 688 19 585 q 439 792 242 792 q 749 687 639 792 q 858 386 858 582 q 747 84 858 188 q 439 -19 636 -19 m 439 228 q 499 249 479 228 q 519 317 519 271 l 519 456 q 499 523 519 501 q 439 544 479 544 q 378 523 399 544 q 358 456 358 501 l 358 317 q 378 249 358 271 q 439 228 399 228 m 578 856 q 496 865 535 856 q 406 893 457 875 q 334 915 363 908 q 279 922 306 922 q 237 908 253 922 q 221 871 221 894 l 143 871 q 178 1049 143 990 q 310 1108 214 1108 q 388 1099 353 1108 q 472 1074 424 1090 q 542 1051 514 1058 q 599 1044 569 1044 q 643 1059 629 1044 q 657 1093 657 1074 l 735 1093 q 703 914 735 972 q 578 856 672 856 m 146 1185 l 146 1361 l 401 1361 l 401 1185 l 146 1185 m 476 1185 l 476 1361 l 732 1361 l 732 1185 l 476 1185 z "},"ȭ":{"ha":878,"x_min":19,"x_max":858,"o":"m 190 1188 l 190 1324 l 688 1324 l 688 1188 l 190 1188 m 578 856 q 496 865 535 856 q 406 893 457 875 q 334 915 363 908 q 279 922 306 922 q 237 908 253 922 q 221 871 221 894 l 143 871 q 178 1049 143 990 q 310 1108 214 1108 q 388 1099 353 1108 q 472 1074 424 1090 q 542 1051 514 1058 q 599 1044 569 1044 q 643 1059 629 1044 q 657 1093 657 1074 l 735 1093 q 703 914 735 972 q 578 856 672 856 m 439 -19 q 131 84 242 -19 q 19 386 19 188 q 131 688 19 585 q 439 792 242 792 q 749 687 639 792 q 858 386 858 582 q 747 84 858 188 q 439 -19 636 -19 m 439 228 q 499 249 479 228 q 519 317 519 271 l 519 456 q 499 523 519 501 q 439 544 479 544 q 378 523 399 544 q 358 456 358 501 l 358 317 q 378 249 358 271 q 439 228 399 228 z "},"œ":{"ha":1317,"x_min":19,"x_max":1300,"o":"m 850 336 l 850 328 q 881 252 850 276 q 982 228 911 228 q 1143 240 1067 228 q 1276 272 1219 253 l 1276 50 q 1134 2 1228 24 q 931 -19 1040 -19 q 685 54 783 -19 q 439 -19 586 -19 q 131 84 242 -19 q 19 386 19 188 q 131 688 19 585 q 439 792 242 792 q 685 721 589 792 q 931 792 783 792 q 1213 690 1126 792 q 1300 436 1300 588 l 1300 336 l 850 336 m 850 489 l 1011 489 l 1011 506 q 991 574 1011 553 q 931 594 971 594 q 870 573 890 594 q 850 506 850 551 l 850 489 m 519 456 q 499 523 519 501 q 439 544 479 544 q 378 523 399 544 q 358 456 358 501 l 358 317 q 378 249 358 271 q 439 228 399 228 q 499 249 479 228 q 519 317 519 271 l 519 456 z "},"p":{"ha":914,"x_min":19,"x_max":900,"o":"m 19 -81 l 81 -81 l 81 544 l 19 544 l 19 772 l 400 772 l 400 678 q 490 757 435 722 q 615 792 544 792 q 828 686 757 792 q 900 386 900 581 q 828 86 900 192 q 615 -19 757 -19 q 490 15 544 -19 q 400 94 435 50 l 400 -81 l 496 -81 l 496 -308 l 19 -308 l 19 -81 m 481 228 q 541 249 521 228 q 561 317 561 271 l 561 456 q 541 523 561 501 q 481 544 521 544 q 420 523 440 544 q 400 456 400 501 l 400 317 q 420 249 400 271 q 481 228 440 228 z "},"þ":{"ha":906,"x_min":8,"x_max":889,"o":"m 604 792 q 817 686 746 792 q 889 386 889 581 q 817 86 889 192 q 604 -19 746 -19 q 478 15 533 -19 q 389 94 424 50 l 389 -81 l 485 -81 l 485 -308 l 8 -308 l 8 -81 l 69 -81 l 69 853 l 8 853 l 8 1081 l 389 1081 l 389 678 q 478 757 424 722 q 604 792 533 792 m 550 456 q 530 523 550 501 q 469 544 510 544 q 409 523 429 544 q 389 456 389 501 l 389 317 q 409 249 389 271 q 469 228 429 228 q 530 249 510 228 q 550 317 550 271 l 550 456 z "},"q":{"ha":906,"x_min":14,"x_max":894,"o":"m 418 -81 l 514 -81 l 514 94 q 424 15 479 50 q 299 -19 369 -19 q 85 86 157 -19 q 14 386 14 192 q 85 686 14 581 q 299 792 157 792 q 424 757 369 792 q 514 678 479 722 l 514 772 l 894 772 l 894 544 l 833 544 l 833 -308 l 418 -308 l 418 -81 m 433 228 q 494 249 474 228 q 514 317 514 271 l 514 456 q 494 523 514 501 q 433 544 474 544 q 373 523 393 544 q 353 456 353 501 l 353 317 q 373 249 353 271 q 433 228 393 228 z "},"r":{"ha":732,"x_min":28,"x_max":713,"o":"m 618 792 q 671 786 646 792 q 713 772 696 781 l 713 507 q 590 531 656 531 q 456 485 503 531 q 408 349 408 439 l 408 228 l 533 228 l 533 0 l 28 0 l 28 228 l 89 228 l 89 544 l 28 544 l 28 772 l 408 772 l 408 671 q 497 760 447 729 q 618 792 547 792 z "},"ŕ":{"ha":732,"x_min":28,"x_max":713,"o":"m 618 792 q 671 786 646 792 q 713 772 696 781 l 713 507 q 590 531 656 531 q 456 485 503 531 q 408 349 408 439 l 408 228 l 533 228 l 533 0 l 28 0 l 28 228 l 89 228 l 89 544 l 28 544 l 28 772 l 408 772 l 408 671 q 497 760 447 729 q 618 792 547 792 m 239 856 l 239 876 l 390 1088 l 688 1088 l 688 1050 l 461 856 l 239 856 z "},"ř":{"ha":732,"x_min":28,"x_max":713,"o":"m 618 792 q 671 786 646 792 q 713 772 696 781 l 713 507 q 590 531 656 531 q 456 485 503 531 q 408 349 408 439 l 408 228 l 533 228 l 533 0 l 28 0 l 28 228 l 89 228 l 89 544 l 28 544 l 28 772 l 408 772 l 408 671 q 497 760 447 729 q 618 792 547 792 m 222 856 l 58 1067 l 58 1088 l 267 1088 l 353 997 l 367 997 l 453 1088 l 661 1088 l 661 1067 l 497 856 l 222 856 z "},"ŗ":{"ha":732,"x_min":28,"x_max":713,"o":"m 618 792 q 671 786 646 792 q 713 772 696 781 l 713 507 q 590 531 656 531 q 456 485 503 531 q 408 349 408 439 l 408 228 l 533 228 l 533 0 l 28 0 l 28 228 l 89 228 l 89 544 l 28 544 l 28 772 l 408 772 l 408 671 q 497 760 447 729 q 618 792 547 792 m 188 -437 l 232 -281 l 175 -281 l 175 -83 l 383 -83 l 383 -281 l 307 -437 l 188 -437 z "},"ȑ":{"ha":732,"x_min":-18,"x_max":713,"o":"m 618 792 q 671 786 646 792 q 713 772 696 781 l 713 507 q 590 531 656 531 q 456 485 503 531 q 408 349 408 439 l 408 228 l 533 228 l 533 0 l 28 0 l 28 228 l 89 228 l 89 544 l 28 544 l 28 772 l 408 772 l 408 671 q 497 760 447 729 q 618 792 547 792 m 139 849 l -18 1043 l -18 1081 l 238 1081 l 306 869 l 306 849 l 139 849 m 456 849 l 299 1043 l 299 1081 l 554 1081 l 622 869 l 622 849 l 456 849 z "},"ṛ":{"ha":732,"x_min":28,"x_max":713,"o":"m 618 792 q 671 786 646 792 q 713 772 696 781 l 713 507 q 590 531 656 531 q 456 485 503 531 q 408 349 408 439 l 408 228 l 533 228 l 533 0 l 28 0 l 28 228 l 89 228 l 89 544 l 28 544 l 28 772 l 408 772 l 408 671 q 497 760 447 729 q 618 792 547 792 m 157 -311 l 157 -97 l 401 -97 l 401 -311 l 157 -311 z "},"ȓ":{"ha":732,"x_min":28,"x_max":713,"o":"m 618 792 q 671 786 646 792 q 713 772 696 781 l 713 507 q 590 531 656 531 q 456 485 503 531 q 408 349 408 439 l 408 228 l 533 228 l 533 0 l 28 0 l 28 228 l 89 228 l 89 544 l 28 544 l 28 772 l 408 772 l 408 671 q 497 760 447 729 q 618 792 547 792 m 65 872 q 143 1043 65 982 q 360 1104 221 1104 q 576 1043 499 1104 q 654 872 654 982 l 654 858 l 447 858 l 447 872 q 360 963 447 963 q 272 872 272 963 l 272 858 l 65 858 l 65 872 z "},"ṟ":{"ha":732,"x_min":28,"x_max":713,"o":"m 618 792 q 671 786 646 792 q 713 772 696 781 l 713 507 q 590 531 656 531 q 456 485 503 531 q 408 349 408 439 l 408 228 l 533 228 l 533 0 l 28 0 l 28 228 l 89 228 l 89 544 l 28 544 l 28 772 l 408 772 l 408 671 q 497 760 447 729 q 618 792 547 792 m 29 -261 l 29 -111 l 526 -111 l 526 -261 l 29 -261 z "},"s":{"ha":721,"x_min":25,"x_max":701,"o":"m 363 -19 q 25 36 188 -19 l 25 242 l 250 242 l 250 228 q 335 161 250 161 q 410 213 410 161 q 388 254 410 240 q 313 278 367 268 l 243 290 q 25 538 25 329 q 117 725 25 658 q 364 792 208 792 q 657 733 538 792 l 657 540 l 446 540 l 446 554 q 427 597 446 582 q 372 611 408 611 q 303 567 303 611 q 322 531 303 543 q 393 507 342 518 l 472 492 q 649 404 596 468 q 701 240 701 340 q 613 47 701 114 q 363 -19 525 -19 z "},"ś":{"ha":721,"x_min":25,"x_max":701,"o":"m 363 -19 q 25 36 188 -19 l 25 242 l 250 242 l 250 228 q 335 161 250 161 q 410 213 410 161 q 388 254 410 240 q 313 278 367 268 l 243 290 q 25 538 25 329 q 117 725 25 658 q 364 792 208 792 q 657 733 538 792 l 657 540 l 446 540 l 446 554 q 427 597 446 582 q 372 611 408 611 q 303 567 303 611 q 322 531 303 543 q 393 507 342 518 l 472 492 q 649 404 596 468 q 701 240 701 340 q 613 47 701 114 q 363 -19 525 -19 m 229 856 l 229 876 l 381 1088 l 678 1088 l 678 1050 l 451 856 l 229 856 z "},"ṥ":{"ha":721,"x_min":25,"x_max":701,"o":"m 363 -19 q 25 36 188 -19 l 25 242 l 250 242 l 250 228 q 335 161 250 161 q 410 213 410 161 q 388 254 410 240 q 313 278 367 268 l 243 290 q 25 538 25 329 q 117 725 25 658 q 364 792 208 792 q 657 733 538 792 l 657 540 l 446 540 l 446 554 q 427 597 446 582 q 372 611 408 611 q 303 567 303 611 q 322 531 303 543 q 393 507 342 518 l 472 492 q 649 404 596 468 q 701 240 701 340 q 613 47 701 114 q 363 -19 525 -19 m 229 856 l 229 876 l 381 1088 l 678 1088 l 678 1050 l 451 856 l 229 856 m 222 1157 l 222 1333 l 478 1333 l 478 1157 l 222 1157 z "},"š":{"ha":721,"x_min":25,"x_max":701,"o":"m 363 -19 q 25 36 188 -19 l 25 242 l 250 242 l 250 228 q 335 161 250 161 q 410 213 410 161 q 388 254 410 240 q 313 278 367 268 l 243 290 q 25 538 25 329 q 117 725 25 658 q 364 792 208 792 q 657 733 538 792 l 657 540 l 446 540 l 446 554 q 427 597 446 582 q 372 611 408 611 q 303 567 303 611 q 322 531 303 543 q 393 507 342 518 l 472 492 q 649 404 596 468 q 701 240 701 340 q 613 47 701 114 q 363 -19 525 -19 m 213 856 l 49 1067 l 49 1088 l 257 1088 l 343 997 l 357 997 l 443 1088 l 651 1088 l 651 1067 l 488 856 l 213 856 z "},"ṧ":{"ha":721,"x_min":25,"x_max":701,"o":"m 363 -19 q 25 36 188 -19 l 25 242 l 250 242 l 250 228 q 335 161 250 161 q 410 213 410 161 q 388 254 410 240 q 313 278 367 268 l 243 290 q 25 538 25 329 q 117 725 25 658 q 364 792 208 792 q 657 733 538 792 l 657 540 l 446 540 l 446 554 q 427 597 446 582 q 372 611 408 611 q 303 567 303 611 q 322 531 303 543 q 393 507 342 518 l 472 492 q 649 404 596 468 q 701 240 701 340 q 613 47 701 114 q 363 -19 525 -19 m 213 856 l 49 1067 l 49 1088 l 257 1088 l 343 997 l 357 997 l 443 1088 l 651 1088 l 651 1067 l 488 856 l 213 856 m 222 1171 l 222 1347 l 478 1347 l 478 1171 l 222 1171 z "},"ş":{"ha":721,"x_min":25,"x_max":701,"o":"m 701 240 q 627 58 701 124 q 415 -18 553 -7 l 415 -54 q 517 -87 478 -54 q 556 -185 556 -121 q 503 -301 556 -260 q 360 -342 451 -342 q 189 -317 281 -342 l 189 -218 q 344 -237 274 -237 q 380 -225 368 -237 q 392 -193 392 -212 q 380 -161 392 -174 q 344 -149 368 -149 l 283 -149 l 283 -17 q 25 36 153 -7 l 25 242 l 250 242 l 250 228 q 335 161 250 161 q 410 213 410 161 q 388 254 410 240 q 313 278 367 268 l 243 290 q 25 538 25 329 q 117 725 25 658 q 364 792 208 792 q 657 733 538 792 l 657 540 l 446 540 l 446 554 q 427 597 446 582 q 372 611 408 611 q 303 567 303 611 q 322 531 303 543 q 393 507 342 518 l 472 492 q 649 404 596 468 q 701 240 701 340 z "}}}
